<svg xmlns="http://www.w3.org/2000/svg" xmlns:xlink="http://www.w3.org/1999/xlink" width="100" zoomAndPan="magnify" viewBox="0 0 75 74.999997" height="100" preserveAspectRatio="xMidYMid meet" version="1.0"><defs><clipPath id="882e94e876"><path d="M 43.6875 42.582031 L 44.046875 42.582031 L 44.046875 42.914062 L 43.6875 42.914062 Z M 43.6875 42.582031 " clip-rule="nonzero"/></clipPath><clipPath id="1f5b0fad65"><path d="M 44.023438 42.824219 C 43.351562 43.050781 43.949219 42.601562 43.949219 42.601562 " clip-rule="nonzero"/></clipPath><clipPath id="7669f74ffc"><path d="M 43.875 42.300781 L 44.328125 42.300781 L 44.328125 42.679688 L 43.875 42.679688 Z M 43.875 42.300781 " clip-rule="nonzero"/></clipPath><clipPath id="b5618721fc"><path d="M 43.875 42.675781 C 44.175781 41.851562 44.324219 42.675781 44.324219 42.675781 " clip-rule="nonzero"/></clipPath><clipPath id="c696c41506"><path d="M 36.4375 43.761719 L 37.289062 43.761719 L 37.289062 44.402344 L 36.4375 44.402344 Z M 36.4375 43.761719 " clip-rule="nonzero"/></clipPath><clipPath id="d96e44b532"><path d="M 36.449219 44.398438 C 36.601562 43.273438 37.273438 44.023438 37.273438 44.023438 " clip-rule="nonzero"/></clipPath><clipPath id="f46d7ec1f5"><path d="M 44.289062 42.296875 L 47.929688 42.296875 L 47.929688 44.554688 L 44.289062 44.554688 Z M 44.289062 42.296875 " clip-rule="nonzero"/></clipPath><clipPath id="ba6d9d54b6"><path d="M 47.925781 42.300781 C 47.175781 44.25 46.425781 44.550781 45.976562 44.550781 C 45.449219 44.476562 44.773438 44.023438 44.476562 43.648438 C 44.25 43.273438 44.324219 42.300781 44.324219 42.300781 " clip-rule="nonzero"/></clipPath><clipPath id="987a5c92ca"><path d="M 46.125 40.273438 L 46.503906 40.273438 L 46.503906 40.726562 L 46.125 40.726562 Z M 46.125 40.273438 " clip-rule="nonzero"/></clipPath><clipPath id="39d4054095"><path d="M 46.5 40.726562 C 45.675781 40.425781 46.5 40.273438 46.5 40.273438 " clip-rule="nonzero"/></clipPath></defs><path fill="#004b8d" d="M 35.9375 62.5 L 31.25 62.5 L 31.25 73.4375 C 31.25 74.054688 30.886719 74.609375 30.328125 74.863281 C 29.769531 75.117188 29.113281 75.011719 28.648438 74.601562 L 0.523438 49.601562 C 0.191406 49.308594 0 48.882812 0 48.4375 C 0 47.992188 0.191406 47.566406 0.523438 47.269531 L 28.648438 22.269531 C 29.109375 21.859375 29.769531 21.757812 30.328125 22.007812 C 30.890625 22.261719 31.25 22.820312 31.25 23.433594 L 31.25 34.402344 L 31.707031 34.394531 C 32.074219 34.382812 32.445312 34.371094 32.8125 34.371094 C 45.867188 34.371094 59.375 27.359375 59.375 15.621094 C 59.375 11.300781 56.335938 5.835938 53.507812 2.585938 C 53.015625 2.019531 52.996094 1.179688 53.460938 0.589844 C 53.765625 0.207031 54.222656 0 54.6875 0 C 54.929688 0 55.179688 0.0585938 55.410156 0.179688 C 66.945312 6.207031 75 18.339844 75 29.6875 C 75 47.472656 57.113281 62.5 35.9375 62.5 Z M 35.9375 62.5 " fill-opacity="1" fill-rule="nonzero"/><g clip-path="url(#882e94e876)"><g clip-path="url(#1f5b0fad65)"><path fill="#004b8d" d="M 40.351562 39.601562 L 47.105469 39.601562 L 47.105469 46.125 L 40.351562 46.125 Z M 40.351562 39.601562 " fill-opacity="1" fill-rule="nonzero"/></g></g><g clip-path="url(#7669f74ffc)"><g clip-path="url(#b5618721fc)"><path fill="#004b8d" d="M 40.875 38.851562 L 47.324219 38.851562 L 47.324219 45.679688 L 40.875 45.679688 Z M 40.875 38.851562 " fill-opacity="1" fill-rule="nonzero"/></g></g><g clip-path="url(#c696c41506)"><g clip-path="url(#d96e44b532)"><path fill="#004b8d" d="M 33.449219 40.351562 L 40.273438 40.351562 L 40.273438 47.46875 L 33.449219 47.46875 Z M 33.449219 40.351562 " fill-opacity="1" fill-rule="nonzero"/></g></g><g clip-path="url(#f46d7ec1f5)"><g clip-path="url(#ba6d9d54b6)"><path fill="#004b8d" d="M 41.324219 39.300781 L 50.929688 39.300781 L 50.929688 47.550781 L 41.324219 47.550781 Z M 41.324219 39.300781 " fill-opacity="1" fill-rule="nonzero"/></g></g><g clip-path="url(#987a5c92ca)"><g clip-path="url(#39d4054095)"><path fill="#004b8d" d="M 42.675781 37.273438 L 49.503906 37.273438 L 49.503906 43.726562 L 42.675781 43.726562 Z M 42.675781 37.273438 " fill-opacity="1" fill-rule="nonzero"/></g></g></svg>