<svg width="536" height="383" viewBox="0 0 536 383" fill="none" xmlns="http://www.w3.org/2000/svg">
<path d="M249.651 347.297C245.645 344.933 242.044 342.718 238.335 340.675C233.705 338.125 232.447 338.326 228.657 341.925C224.397 345.971 220.358 350.237 215.899 354.078C201.378 366.587 183.801 373.424 164.865 377.508C152.864 380.096 140.736 381.994 128.371 382.251C118.409 382.458 108.425 383.286 98.4928 382.898C80.8161 382.206 63.5769 379.35 47.7936 371.142C29.9742 361.876 17.7645 347.938 9.58338 330.758C6.24457 323.746 3.59215 316.446 0.704335 309.249C0.257649 308.136 0.224205 306.878 0 305.688C2.7328 304.88 3.51306 306.538 4.30783 307.942C5.95879 310.857 7.61477 313.781 9.03478 316.798C11.7954 322.664 16.0081 327.584 21.3866 331.269C29.0979 336.552 37.1232 341.513 45.4229 345.94C53.3925 350.19 61.6653 354.103 70.1921 357.24C84.9985 362.687 100.368 366.023 116.471 365.755C122.114 365.661 127.795 366.645 133.413 366.352C142.371 365.885 151.29 364.836 159.617 361.228C174.287 354.873 185.462 344.892 194.145 332.291C194.777 331.373 195.322 330.373 195.721 329.347C198.089 323.263 196.476 319.314 189.889 317.214C181.729 314.612 175.631 309.825 170.708 303.43C169.336 301.648 167.896 299.911 166.485 298.155C163.777 294.786 161.31 291.214 158.312 288.088C149.908 279.324 149.824 270.158 155.867 260.276C158.287 256.318 161.23 253.225 165.696 251.233C172.301 248.288 173.067 245.377 168.339 240.221C156.245 227.032 151.465 211.513 151.587 194.508C151.677 181.875 151.938 169.223 152.834 156.623C153.532 146.809 154.48 136.993 157.282 127.361C158.953 121.614 159.343 115.466 159.679 109.468C160.252 99.232 159.933 88.9457 160.703 78.7279C162.028 61.1576 167.601 44.5644 175.873 28.8466C181.331 18.4764 189.983 10.4129 199.713 3.46144C203.672 0.632419 208.192 -0.856718 213.465 0.518771C223.61 3.16479 233.773 5.7939 244.036 7.98628C256.207 10.5862 268.484 12.7543 280.733 15.0265C283.696 15.5761 286.55 15.1101 289.154 13.4761C292.346 11.4727 295.683 11.0688 299.651 11.5626C307.376 12.5243 315.211 12.8085 323.012 13.1318C349.123 14.214 374.542 18.8826 399.458 26.0626C407.48 28.3743 415.443 30.9472 423.229 33.8756C431.891 37.1332 439.162 42.3486 444.969 49.2771C458.067 64.904 469.873 81.3054 478.087 99.7083C483.082 110.897 486.498 122.453 486.855 134.808C487.004 139.963 488.934 145.23 490.89 150.154C497.982 168.007 508.833 183.878 521.119 198.941C524.801 203.455 528.456 207.989 532.141 212.501C536.012 217.24 537.196 222.465 534.657 227.994C532.43 232.844 530.258 237.85 527.093 242.164C517.42 255.346 506.025 267.174 493.303 277.873C490.26 280.433 487.64 283.439 484.555 285.949C477.227 291.913 468.354 294.436 458.96 296.061C452.26 297.22 445.51 298.699 439.167 300.976C426.643 305.471 413.774 308.056 400.482 309.311C397.08 309.632 393.356 310.49 390.559 312.211C382.968 316.883 374.626 319.157 365.831 320.158C354.409 321.457 342.927 322.298 331.505 323.596C325.511 324.277 319.554 325.363 313.645 326.548C309.006 327.478 305.599 330.003 303.69 334.284C302.032 338.001 300.039 341.588 298.144 345.21C295.231 350.776 290.329 353.611 283.88 354.568C271.57 356.393 260.207 354.475 249.651 347.297ZM408.991 99.0679C408.506 95.2604 407.961 91.4585 407.551 87.6439C406.858 81.1918 401.806 77.5152 394.975 78.5088C392.664 78.845 390.331 79.0694 387.999 79.2565C380.205 79.882 372.87 78.1981 365.692 75.4805C362.446 74.2517 359.083 73.145 355.662 72.5153C351.913 71.8253 349.754 73.085 348.442 75.8487C347.223 78.4155 348.049 80.7302 351.081 82.9897C351.836 83.5526 352.678 84.1493 353.582 84.3811C365.577 87.4553 377.125 92.6638 390.103 91.1379C391.411 90.9841 392.781 91.2966 394.59 91.4262C395.384 94.4926 396.117 97.4837 396.937 100.454C399.024 108.013 402.633 114.896 408.002 120.855C410.411 123.528 413.262 123.706 415.833 122.047C418.278 120.468 419.332 117.469 418.104 114.73C417.433 113.233 416.2 111.967 415.348 110.53C413.265 107.019 411.257 103.47 408.991 99.0679ZM381.446 51.3035C384.355 41.1376 376.556 36.8218 367.698 37.4193C362.411 37.7759 358.071 40.2709 353.891 43.0327C350.163 45.496 349.07 48.1629 350.062 52.0018C350.846 55.0374 353.892 57.6712 357.682 57.9651C362.16 58.3122 366.674 58.2488 371.173 58.3552C376.038 58.4703 379.444 56.5485 381.446 51.3035ZM447.919 87.5521C444.111 88.6912 442.315 91.3752 441.706 94.8602C440.857 99.7155 439.764 104.57 439.476 109.46C439.321 112.076 440.243 114.928 441.386 117.385C442.907 120.656 446.613 121.948 449.697 120.559C453.504 118.845 456.896 116.301 457.789 112.334C458.868 107.533 459.533 102.566 459.57 97.665C459.62 91.0876 455.915 87.8663 447.919 87.5521ZM324.23 79.0467C322.677 73.0075 319.573 67.8029 314.594 63.6647C311.502 61.0942 308.124 60.958 305.687 63.1452C303.443 65.1583 303.597 67.9674 305.874 71.0947C307.73 73.6431 309.603 76.2239 311.025 78.9906C311.93 80.7518 311.896 82.915 312.511 84.8333C313.467 87.8098 315.685 89.3205 318.487 89.1576C321.13 89.004 323.52 87.0955 324.131 84.3461C324.444 82.9333 324.3 81.4313 324.23 79.0467ZM279.864 96.4702C283.678 101.672 288.176 106.133 294.782 108.186C297.692 109.09 301.343 107.626 302.757 105.167C304.285 102.507 303.588 100.169 300.724 98.0665C296.904 95.2622 293.141 92.3889 289.308 89.6008C285.918 87.1354 281.147 88.2337 279.732 91.8973C279.296 93.0258 279.585 94.3999 279.864 96.4702ZM269.028 116.974C268.101 116.697 267.186 116.384 266.247 116.151C263.119 115.376 261.074 116.829 259.485 119.126C257.796 121.568 258.556 123.993 260.65 125.48C264.967 128.547 269.583 131.262 274.213 133.91C275.251 134.504 276.867 134.399 278.196 134.316C280.871 134.151 283.506 131.965 283.939 129.638C284.393 127.2 283.291 125.495 281.04 124.198C277.234 122.004 273.533 119.649 269.028 116.974ZM418.584 149.542C418.193 149.519 417.8 149.453 417.414 149.478C413.691 149.719 411.361 151.077 410.678 153.585C409.921 156.364 411.718 158.042 413.899 159.429C417.934 161.996 421.938 164.618 426.084 167.019C429.314 168.889 431.986 168.54 434.009 166.389C436.38 163.868 436.333 161.622 433.378 158.634C429.493 154.705 424.986 151.52 418.584 149.542ZM398.898 178.224C402.226 181.231 405.3 184.552 408.965 187.139C411.611 189.007 414.826 188.021 416.738 185.732C418.59 183.515 418.799 180.957 416.578 178.754C412.973 175.178 409.042 171.887 405.187 168.538C403.283 166.885 401.222 167.38 399.277 168.545C396.14 170.424 395.913 172.896 398.898 178.224ZM398.659 213.458C401.408 209.667 401.584 207.622 399.17 205.244C396.628 202.74 394.013 200.298 391.368 197.888C388.691 195.45 385.32 195.034 382.987 196.753C380.322 198.717 379.795 201.997 382.038 205.092C383.778 207.492 385.848 209.706 387.95 211.848C390.694 214.644 393.992 215.752 398.659 213.458ZM238.597 160.106C240.978 165.525 249.48 169.536 255.318 167.92C258.123 167.144 260.14 165.564 260.534 162.644C260.918 159.798 259.026 158.087 256.717 157.049C254.289 155.957 251.597 155.314 248.96 154.704C243.523 153.446 241.589 154.37 238.597 160.106ZM371.142 224.084C370.14 222.965 369.255 221.725 368.111 220.752C366.093 219.036 363.824 218.242 361.167 219.71C358.514 221.176 357.482 223.216 358.464 226.264C359.852 230.57 362.388 234.274 366.268 236.987C368.582 238.606 371.185 238.307 373.346 236.708C375.479 235.13 376.543 232.974 375.149 230.423C374.084 228.473 372.859 226.599 371.142 224.084Z" fill="#399DDA" fill-opacity="0.8"/>
</svg>
