<svg width="520" height="592" viewBox="0 0 520 592" fill="none" xmlns="http://www.w3.org/2000/svg">
<path d="M349.934 116.559C352.599 125.598 355.031 134.21 357.57 142.791C359.369 148.875 358.615 154.849 356.297 160.87C351.017 174.588 340.994 184.849 328.036 192.964C318.347 199.032 307.984 203.693 296.694 206.394C294.205 206.99 291.83 208.05 289.356 208.732C279.65 211.405 269.926 214.012 260.208 216.644C252.477 215.05 245.59 219.119 238.275 220.236C228.55 221.721 218.743 222.659 208.954 223.532C206.019 223.794 203.281 224.27 200.409 225.013C190.659 227.538 180.777 229.545 170.972 231.866C163.455 233.645 156.02 235.796 148.475 237.43C135.515 240.237 122.432 242.148 109.225 241.581C99.158 241.15 89.484 239.104 80.3129 235.592C67.94 230.856 59.1505 222.281 51.5948 212.566C39.0911 196.488 37.1954 178.582 43.8475 159.308C48.2848 146.452 54.971 134.618 64.1562 123.895C76.4786 109.509 89.1859 95.454 105.089 84.1608C115.163 77.007 126.298 71.5963 137.792 66.8222C152.848 60.5683 168.803 57.2644 184.614 53.7772C202.885 49.7477 221.095 51.1926 238.906 54.7424C260.836 59.1129 282.183 65.1571 302.233 74.0776C319.641 81.8227 334.618 92.451 345.172 107.577C347.021 110.226 348.238 113.262 349.934 116.559Z" fill="#399DDA" fill-opacity="0.8"/>
<path d="M319.956 315.532C325.58 321.134 330.899 326.461 336.243 331.766C342.998 338.471 347.393 346.521 350.999 354.971C355.711 366.009 360.192 377.137 364.788 388.221C369.865 400.465 375.064 412.662 380.012 424.954C383.619 433.916 387.808 442.774 390.123 452.081C393.687 466.412 394.525 481.083 389.261 495.835C386.198 504.417 381.038 506.034 373.657 500.445C370.254 497.869 368.264 494.638 367.277 490.654C363.136 473.937 358.763 457.277 354.674 440.548C347.626 411.711 336.452 384.379 322.321 358.177C312.405 339.791 298.679 323.89 283.227 309.293C268.644 295.516 253.768 282 239.071 268.324C231.628 261.397 225.07 253.799 219.757 245.336C218.262 242.955 217.263 240.298 215.771 237.221C225.678 233.572 235.289 233.492 244.943 232.192C247.496 236.987 249.96 241.547 252.36 246.136C257.683 256.31 265.242 264.922 273.815 272.84C289.108 286.966 304.381 301.111 319.956 315.532Z" fill="#399DDA" fill-opacity="0.8"/>
<path d="M254.222 359.821C246.337 348.24 238.743 336.992 230.875 325.914C228.584 322.688 225.967 319.432 222.72 317.074C210.161 307.953 200.818 296.428 192.498 284.039C187.654 276.828 182.493 269.802 177.779 262.519C175.441 258.906 173.455 255.022 171.919 251.04C170.154 246.466 171.309 244.805 176.33 243.457C181.496 242.07 186.68 240.734 191.893 239.538C197.362 238.282 198.194 238.607 200.709 243.092C207.314 254.874 213.805 266.712 220.383 278.508C228.821 293.64 238.521 308.056 248.903 322.06C258.233 334.646 265.569 348.177 272.039 362.259C280.579 380.844 289.874 399.111 298.906 417.488C302.394 424.583 306.262 431.514 309.549 438.692C311.556 443.075 313.014 447.721 314.311 452.36C316.438 459.965 318.153 467.682 320.186 475.313C324.396 491.111 323.973 507.292 322.342 523.529C321.679 530.133 318.175 536.059 314.436 541.773C313.866 542.645 312.812 543.265 311.898 544.077C309.125 543.145 308.615 541.051 308.034 538.999C303.537 523.114 300.32 506.985 299.158 490.444C298.894 486.696 298.288 482.973 297.656 479.273C295.488 466.571 293.634 453.796 290.895 441.22C288.675 431.026 283.848 421.708 277.976 412.943C276.986 411.463 275.85 409.891 274.336 408.933C270.741 406.658 269.226 403.356 268.252 399.652C266.471 392.886 265.082 385.988 262.769 379.398C260.469 372.843 257.234 366.6 254.222 359.821Z" fill="#399DDA" fill-opacity="0.8"/>
<path d="M332.525 308.23C316.214 292.992 300.308 277.934 284.176 263.084C274.989 254.626 267.5 245.148 262.355 234.092C261.978 233.282 261.609 232.453 261.404 231.592C261.246 230.925 261.351 230.196 261.33 228.954C266.683 227.025 272.147 225.587 277.821 225.019C280.818 224.72 281.613 226.832 282.5 228.89C286.281 237.663 290.807 246.095 297.258 253.391C301.598 258.3 306.581 262.724 311.318 267.328C317.252 273.094 323.376 278.702 329.157 284.594C339.957 295.6 351.157 306.331 361.107 317.972C372.713 331.548 383.378 345.834 394.041 360.079C403.066 372.134 411.932 384.327 420.09 396.904C428.446 409.787 435.573 423.326 441.083 437.605C442.678 441.738 445.348 445.497 447.68 449.344C449.83 452.892 452.602 456.355 451.384 460.741C450.687 463.249 449.295 466.005 447.303 467.793C444.39 470.407 440.402 471.217 437.778 467.361C435.56 464.1 433.607 460.604 432.158 456.981C430.271 452.264 428.335 447.499 424.224 444.252C418.362 439.621 414.715 433.659 411.371 427.499C405.62 416.906 400.377 406.065 394.556 395.507C391.607 390.156 388.02 385.099 384.404 380.109C382.838 377.947 380.789 375.834 378.401 374.499C373.266 371.629 370.896 367.259 369.042 362.268C366.551 355.562 363.742 348.963 360.935 342.372C355.959 330.691 346.703 321.946 337.539 313.148C335.947 311.62 334.403 310.049 332.525 308.23Z" fill="#399DDA" fill-opacity="0.8"/>
<path d="M233.086 393.106C230.004 386.091 227.345 379.427 224.089 373.038C217.2 359.519 208.074 347.302 198.367 335.453C186.449 320.904 172.879 307.697 159.268 294.52C151.563 287.061 144.702 278.99 141.168 268.989C139.455 264.143 138.564 259.021 137.164 253.48C142.558 252.116 147.664 250.788 152.791 249.547C155.186 248.967 156.507 250.114 157.108 252.077C162.366 269.25 175.066 282.361 184.781 297.104C192.014 308.082 200.954 317.619 211.651 325.889C215.544 328.9 218.643 332.91 221.503 336.846C227.481 345.072 233.069 353.544 238.796 361.929C243.725 369.147 247.527 376.885 249.867 385.203C253.994 399.867 258.494 414.457 261.741 429.325C264.365 441.341 265.46 453.708 267.072 465.944C268.052 473.388 269.105 480.851 269.403 488.36C269.6 493.34 268.897 498.465 267.906 503.438C266.784 509.063 263.068 511.684 257.636 511.625C253.812 511.583 251.968 510.377 250.898 506.97C248.514 499.379 247.372 491.618 248.336 483.564C250.96 461.627 247.841 440.473 241.229 419.781C238.449 411.083 235.895 402.316 233.086 393.106Z" fill="#399DDA" fill-opacity="0.8"/>
<path d="M415.072 339.782C408.716 334.927 402.721 330.273 396.634 325.721C379.493 312.903 362.739 299.712 348.353 284.218C335.022 269.86 321.549 255.611 308.466 241.062C304.598 236.76 301.752 231.654 298.642 226.8C297.845 225.556 297.829 223.871 297.375 222.073C304.13 220.366 310.388 218.784 317.019 217.108C317.632 217.809 318.581 218.503 318.988 219.418C325.484 234.04 335.791 246.334 346.223 258.544C363.924 279.262 385.453 295.978 409.25 310.727C431.697 324.638 452.994 340.057 474.734 354.887C485.549 362.264 490.667 372.741 492.236 384.926C492.459 386.663 491.965 389.193 490.704 390.311C488.781 392.014 486.23 390.993 484.303 389.615C462.182 373.803 440.073 357.978 417.97 342.145C417.062 341.495 416.249 340.737 415.072 339.782Z" fill="#399DDA" fill-opacity="0.8"/>
<path d="M79.4124 315.369C80.8484 309.306 82.4572 303.654 83.3744 297.938C85.1298 287 86.5572 276.03 87.9799 265.064C88.4424 261.499 88.4662 257.904 88.693 254.285C94.4643 251.961 95.897 252.574 97.4678 257.604C100.125 266.112 100.49 274.827 99.6993 283.739C99.0929 290.574 99.3347 297.447 98.4912 304.261C97.202 314.674 95.3842 325.058 93.6439 335.439C90.5954 353.625 89.9187 371.703 92.6229 389.757C94.966 405.4 98.6503 420.706 103.288 435.782C105.176 441.918 107.893 447.802 110.098 453.847C112.159 459.496 112.57 465.404 111.685 471.397C111.151 475.013 109.148 475.833 106.062 473.819C104.67 472.911 103.412 471.755 102.361 470.516C94.8652 461.682 88.9174 451.979 86.1799 440.901C81.0256 420.042 75.9163 399.156 71.598 378.109C68.2061 361.576 69.6648 344.841 75.0135 328.304C76.3713 324.105 77.8499 319.935 79.4124 315.369Z" fill="#399DDA" fill-opacity="0.8"/>
<path d="M187.791 457.076C186.99 460.691 186.364 463.913 185.537 467.098C183.799 473.797 180.557 479.799 175.021 484.748C172.284 487.195 169.726 489.811 167.059 492.325C166.218 493.117 165.333 493.886 164.384 494.564C161.319 496.753 157.294 497.506 155.661 495.973C153.33 493.784 153.774 491.075 155.085 488.424C158.304 481.911 161.447 475.364 164.866 468.933C169.331 460.536 171.743 451.813 172.034 442.644C172.377 431.84 173.308 421.004 173.076 410.237C172.831 398.88 170.137 387.918 165.912 377.349C162.989 370.038 160.311 362.632 157.687 355.213C151.836 338.673 145.754 322.262 136.759 306.948C129.381 294.387 126.179 280.335 123.052 266.347C122.466 263.727 123.142 260.818 123.236 258.043C123.623 257.983 124.01 257.924 124.397 257.864C125.123 259.453 126.122 260.973 126.53 262.64C129.026 272.845 134.157 281.812 139.634 290.82C151.24 309.91 163.888 328.511 172.636 349.049C174.879 354.315 176.799 359.738 178.401 365.222C182.268 378.462 186.279 391.681 189.421 405.101C191.704 414.853 192.067 424.971 190.831 435.103C189.954 442.297 188.868 449.478 187.791 457.076Z" fill="#399DDA" fill-opacity="0.8"/>
<path d="M349.933 117.56C352.598 126.599 355.03 135.21 357.569 143.792C359.369 149.875 358.615 155.85 356.297 161.871C351.017 175.588 340.994 185.849 328.035 193.965C318.347 200.032 307.984 204.693 296.694 207.395C294.205 207.99 291.829 209.051 289.355 209.732C279.649 212.405 269.925 215.013 260.208 217.644C252.477 216.051 245.589 220.12 238.275 221.237C228.55 222.721 218.743 223.659 208.954 224.533C206.018 224.795 203.281 225.27 200.409 226.014C190.659 228.538 180.776 230.546 170.971 232.866C163.454 234.645 156.019 236.796 148.474 238.43C135.515 241.237 122.431 243.148 109.225 242.582C99.1575 242.15 89.4835 240.104 80.3124 236.593C67.9396 231.856 59.15 223.281 51.5943 213.566C39.0906 197.489 37.1949 179.582 43.847 160.309C48.2844 147.453 54.9706 135.619 64.1557 124.895C76.4781 110.51 89.1854 96.4545 105.088 85.1613C115.162 78.0075 126.298 72.5967 137.791 67.8227C152.847 61.5688 168.802 58.2649 184.614 54.7777C202.884 50.7482 221.094 52.1931 238.906 55.7429C260.836 60.1134 282.182 66.1576 302.233 75.0781C319.641 82.8232 334.617 93.4515 345.171 108.577C347.02 111.227 348.237 114.263 349.933 117.56Z" fill="#399DDA" fill-opacity="0.8"/>
</svg>
