<svg width="306" height="306" viewBox="0 0 306 306" fill="none" xmlns="http://www.w3.org/2000/svg">
<path d="M211.312 248.239C168.999 290.553 100.182 290.584 57.8364 248.335C15.8576 206.436 15.3954 138.081 56.8164 95.6397C90.6193 61.008 141.937 53.884 182.944 74.2678C184.586 75.0965 186.562 74.7778 187.869 73.4709L200.81 60.5458C202.802 58.5377 202.34 55.1749 199.885 53.8043C180.123 42.7917 157.779 36.9268 134.542 36.9268C98.6039 36.9268 64.8169 50.9197 39.4129 76.3396C13.9929 101.744 0 135.531 0 171.469C0 207.232 13.8654 240.876 39.0463 266.248C63.7172 291.094 97.2174 305.406 132.232 305.98C169.732 306.601 205.049 292.003 231.154 265.085C255.506 239.984 269.117 206.244 269.069 171.278C269.037 148.105 263.172 125.825 252.191 106.11C250.821 103.656 247.458 103.21 245.466 105.202L232.525 118.127C231.234 119.434 230.915 121.41 231.728 123.068C251.92 163.692 245.131 214.436 211.312 248.239Z" fill="white"/>
<path d="M77.3285 114.271C46.0755 145.524 45.8046 196.204 76.4838 227.808C107.641 259.89 159.342 260.511 191.232 229.179C213.513 207.265 220.381 175.613 211.839 147.691C210.899 144.6 207.026 143.643 204.747 145.922L190.164 160.505C189.224 161.445 188.778 162.784 188.953 164.107C191.137 180.331 186.084 197.352 173.797 209.895C152.616 231.521 117.57 231.856 95.9911 210.612C74.2685 189.224 74.1729 154.146 95.6882 132.615C108.279 120.04 125.491 114.845 141.906 117.044C143.229 117.219 144.552 116.789 145.508 115.849L160.091 101.266C162.354 98.9871 161.398 95.0984 158.338 94.1581C130.623 85.6794 99.2263 92.389 77.3285 114.271Z" fill="white"/>
<mask id="mask0_1871_55" style="mask-type:luminance" maskUnits="userSpaceOnUse" x="110" y="0" width="196" height="196">
<path d="M110.672 0H305.999V195.391H110.672V0Z" fill="white"/>
</mask>
<g mask="url(#mask0_1871_55)">
<path d="M278.658 33.7076C275.184 33.596 272.395 30.807 272.283 27.3327L271.502 3.20361C271.422 0.318969 267.916 -1.06758 265.876 0.972396L234.4 32.4326C229.428 37.4209 226.734 44.2262 226.957 51.2704C227.117 55.956 225.316 60.4981 222.001 63.8131L142.139 143.675C139.51 146.304 136.019 147.866 132.306 148.217C127.095 148.711 122.011 150.958 118.01 154.942C117.787 155.181 117.564 155.405 117.341 155.66C109.149 164.537 109.165 178.434 117.373 187.311C126.425 197.096 141.709 197.32 151.048 187.98C155.033 183.996 157.28 178.912 157.774 173.717C158.14 170.003 159.686 166.497 162.332 163.867L242.194 83.9897C245.508 80.6747 250.035 78.8897 254.72 79.0332C261.764 79.2563 268.586 76.5629 273.558 71.5905L305.018 40.1303C307.074 38.0744 305.688 34.5841 302.787 34.4885L278.658 33.7076Z" fill="white"/>
</g>
</svg>
