<svg width="311" height="320" viewBox="0 0 311 320" fill="none" xmlns="http://www.w3.org/2000/svg">
<path d="M116.112 130.265C117.218 130.029 120.933 131.549 127.081 139.008C131.62 144.513 135.116 150.399 135.192 150.528C136.57 152.865 139.56 153.632 141.872 152.239C144.184 150.845 144.941 147.82 143.564 145.483C143.407 145.217 139.678 138.915 134.642 132.787C126.846 123.302 120.121 119.327 114.082 120.624C108.38 121.851 94.6697 125.81 90.5472 136.028C89.0337 139.781 88.2816 145.857 93.2976 153.492C96.7488 158.746 102.324 161.636 109.422 161.85C109.472 161.852 109.522 161.852 109.571 161.852C112.194 161.852 114.359 159.741 114.438 157.071C114.519 154.35 112.404 152.079 109.713 151.997C103.901 151.823 102.029 148.974 101.415 148.037C98.2017 143.146 99.2319 140.59 99.5706 139.751C101.16 135.808 107.652 132.085 116.112 130.265Z" fill="white"/>
<path d="M232.327 127.596C230.966 123.231 228.311 119.404 225.212 116.157C225.217 116.142 225.22 116.127 225.223 116.112C225.416 115.078 229.801 90.5032 218.621 63.8275C206.713 35.4151 183.756 21.0093 150.385 21.0093C117.015 21.0093 94.0563 35.4151 82.1504 63.8275C70.9702 90.5032 75.3552 115.078 75.5479 116.112C75.5495 116.127 75.5557 116.142 75.5588 116.156C72.4603 119.404 69.8032 123.231 68.4435 127.594C66.6239 133.433 67.2704 139.309 70.3626 145.087C69.971 148.183 69.4473 154.646 70.6625 161.613C73.0089 175.061 80.5141 183.816 92.3672 186.927C92.4946 186.96 92.6251 186.989 92.7557 187.012L113.64 190.696V199.933C113.64 205.468 116.232 210.435 120.171 213.05L120.034 249.178L104.385 259.568C101.667 257.421 98.2533 256.138 94.5473 256.138C85.715 256.138 78.5283 263.406 78.5283 272.339C78.5283 281.272 85.715 288.54 94.5473 288.54C103.38 288.54 110.565 281.272 110.565 272.339C110.565 270.728 110.327 269.171 109.892 267.701L127.569 255.966C128.936 255.057 129.762 253.517 129.768 251.864L129.926 209.918C129.934 207.615 128.368 205.614 126.149 205.096C124.82 204.786 123.384 202.724 123.384 199.934V192.416L125.372 192.766C125.655 192.815 125.936 192.84 126.214 192.84C128.539 192.84 130.596 191.152 131.009 188.757C131.471 186.076 129.696 183.523 127.045 183.055L94.6328 177.339C75.4531 172.13 80.0184 146.132 80.2205 145.033C80.4504 143.815 80.2173 142.553 79.5678 141.5C77.2277 137.708 76.6279 134.136 77.7311 130.576C80.4675 121.752 93.0292 114.636 97.6426 112.635C100.12 111.57 101.271 108.676 100.219 106.173C99.1655 103.667 96.3047 102.501 93.8279 103.565C93.4549 103.726 89.3697 105.514 84.5232 108.749C83.9669 100.574 84.0927 84.4445 91.121 67.6749C101.501 42.9072 120.886 30.8667 150.385 30.8667C179.882 30.8667 199.267 42.9072 209.647 67.6749C216.675 84.4445 216.801 100.574 216.245 108.749C211.398 105.514 207.313 103.726 206.94 103.565C204.463 102.501 201.602 103.667 200.55 106.173C199.497 108.676 200.65 111.571 203.127 112.635C207.726 114.614 220.269 121.691 223.032 130.558C224.143 134.125 223.545 137.703 221.202 141.5C220.555 142.547 220.324 143.811 220.547 145.024C220.751 146.132 225.318 172.126 206.141 177.339L173.339 183.055C170.688 183.517 168.909 186.066 169.364 188.747C169.773 191.147 171.833 192.84 174.161 192.84C174.436 192.84 174.714 192.816 174.994 192.768L177.384 192.351V199.934C177.384 202.613 175.867 204.767 174.448 205.097C172.237 205.613 170.671 207.604 170.671 209.899V251.846C170.671 253.506 171.497 255.054 172.869 255.966L190.546 267.703C190.111 269.172 189.875 270.728 189.875 272.341C189.875 281.272 197.06 288.541 205.893 288.541C214.725 288.541 221.91 281.272 221.91 272.341C221.91 263.407 214.723 256.138 205.893 256.138C202.185 256.138 198.773 257.423 196.055 259.568L180.417 249.184V213.086C184.461 210.474 187.129 205.484 187.129 199.933V190.652L208.006 187.014C208.14 186.992 208.272 186.962 208.402 186.927C220.255 183.816 227.761 175.061 230.107 161.613C231.322 154.646 230.8 148.183 230.407 145.088C233.501 139.311 234.147 133.433 232.327 127.596ZM94.5473 278.684C91.0883 278.684 88.2743 275.838 88.2743 272.341C88.2743 268.842 91.0883 265.994 94.5473 265.994C98.0063 265.994 100.819 268.842 100.819 272.341C100.819 275.838 98.0063 278.684 94.5473 278.684ZM205.894 265.994C209.353 265.994 212.166 268.842 212.166 272.341C212.166 275.838 209.352 278.684 205.894 278.684C202.435 278.684 199.621 275.838 199.621 272.341C199.621 268.841 202.435 265.994 205.894 265.994Z" fill="white"/>
<path d="M191.055 151.998C188.364 152.08 186.249 154.351 186.33 157.071C186.408 159.741 188.574 161.852 191.197 161.852C191.246 161.852 191.296 161.851 191.344 161.849C198.444 161.635 204.019 158.745 207.47 153.491C212.486 145.856 211.734 139.78 210.221 136.027C206.098 125.811 192.388 121.852 186.686 120.624C180.647 119.323 173.919 123.301 166.109 132.783C161.062 138.911 157.323 145.211 157.165 145.477C155.785 147.813 156.539 150.836 158.848 152.234C161.155 153.629 164.148 152.869 165.529 150.535C165.565 150.475 169.086 144.55 173.663 139.011C179.825 131.549 183.545 130.021 184.656 130.265C193.114 132.085 199.608 135.808 201.197 139.75C201.536 140.591 202.566 143.146 199.353 148.037C198.739 148.974 196.867 151.822 191.055 151.998Z" fill="white"/>
<path d="M150.392 161.117C150.389 161.117 150.387 161.117 150.383 161.117C149.026 161.117 147.73 161.69 146.807 162.698L140.868 169.189C139.041 171.186 139.16 174.304 141.135 176.153C143.11 178.003 146.193 177.882 148.021 175.884L150.372 173.314L152.695 175.871C153.655 176.928 154.967 177.465 156.283 177.465C157.461 177.465 158.643 177.034 159.579 176.165C161.56 174.323 161.69 171.205 159.869 169.201L153.972 162.712C153.049 161.697 151.752 161.12 150.392 161.117Z" fill="white"/>
<path d="M155.256 288.367V207.579C155.256 204.859 153.074 202.652 150.383 202.652C147.693 202.652 145.511 204.859 145.511 207.579V288.366C139.053 290.456 134.365 296.582 134.365 303.799C134.365 312.731 141.55 320 150.383 320C159.215 320 166.4 312.731 166.4 303.799C166.4 296.584 161.712 290.457 155.256 288.367ZM150.383 310.144C146.925 310.144 144.11 307.296 144.11 303.799C144.11 300.301 146.925 297.454 150.383 297.454C153.842 297.454 156.656 300.301 156.656 303.799C156.656 307.296 153.842 310.144 150.383 310.144Z" fill="white"/>
<path d="M303.622 171.769C298.609 167.806 291.862 166.883 285.991 169.347L277.67 172.533L247.703 152.795C245.449 151.31 242.43 151.954 240.963 154.234C239.493 156.515 240.131 159.569 242.386 161.054L274.426 182.156C275.726 183.015 277.356 183.194 278.809 182.636L289.52 178.535C289.576 178.513 289.634 178.491 289.688 178.466C292.326 177.341 295.364 177.75 297.619 179.533C299.28 180.847 300.337 182.736 300.593 184.853C300.85 186.97 300.275 189.062 298.976 190.742L297.467 192.694C296.601 193.804 295.282 194.54 293.851 194.708C293.636 194.734 293.383 194.76 293.094 194.791C289.189 195.198 281.062 196.045 276.945 201.372C275.288 203.515 275.663 206.613 277.782 208.29C278.674 208.994 279.731 209.337 280.78 209.337C282.228 209.337 283.66 208.686 284.622 207.443C285.66 206.101 288.846 205.142 294.093 204.595C294.435 204.559 294.735 204.527 294.987 204.498C298.966 204.024 302.657 201.95 305.124 198.791C305.126 198.789 305.165 198.737 305.166 198.736L306.653 196.814C309.556 193.059 310.838 188.387 310.266 183.657C309.693 178.927 307.334 174.705 303.622 171.769Z" fill="white"/>
<path d="M19.9909 17.3318C22.1104 19.0071 25.1731 18.6284 26.8295 16.4846L28.7331 14.0234C30.4967 11.7414 33.0327 10.2907 35.8763 9.94025C38.7183 9.58663 41.5262 10.3772 43.7825 12.161C46.6261 14.4085 48.1535 17.9243 47.8661 21.5642L47.2461 29.4476C47.1047 31.2472 47.9484 32.9823 49.4448 33.9677L72.1114 48.8969C72.9318 49.4375 73.8549 49.6969 74.7654 49.6969C76.3582 49.6969 77.9198 48.9079 78.8537 47.4573C80.3221 45.1768 79.6835 42.1231 77.4288 40.6378L57.191 27.3071L57.581 22.3438C58.1264 15.3986 55.2113 8.68921 49.7851 4.39702C45.4778 0.991243 40.1199 -0.514404 34.6922 0.156693C29.2645 0.82779 24.4226 3.59705 21.0553 7.95368L19.1533 10.4133C17.4953 12.5571 17.8714 15.6548 19.9909 17.3318Z" fill="white"/>
<path d="M6.76803 60.4108C11.7793 64.3745 18.5279 65.2986 24.3984 62.8327L32.7195 59.6469L58.3369 76.5218C59.1574 77.0625 60.0804 77.3202 60.9925 77.3202C62.5837 77.3202 64.1453 76.5312 65.0792 75.0806C66.5492 72.8001 65.9106 69.748 63.6559 68.2628L35.9656 50.0237C34.6634 49.1656 33.035 48.988 31.5805 49.5443L20.8696 53.6464C20.8136 53.6684 20.7577 53.6904 20.7017 53.7139C18.0648 54.8392 15.0254 54.4306 12.7707 52.6468C9.34127 49.9357 8.73214 44.9064 11.4142 41.4377L12.0792 40.5765C12.9447 39.4685 14.2624 38.7345 15.6936 38.5632C15.9764 38.5302 16.6492 38.5129 17.2443 38.4972C21.011 38.3997 28.019 38.219 31.9457 33.141C33.6021 30.9972 33.2292 27.8995 31.1081 26.2225C28.9886 24.5456 25.9259 24.9259 24.2679 27.0697C23.174 28.4841 19.0002 28.5926 16.9957 28.6445C16.0758 28.668 15.2818 28.6885 14.5561 28.7749C10.5782 29.248 6.88612 31.3226 4.41855 34.4832C4.41078 34.4926 4.38436 34.5272 4.37659 34.5366L3.73639 35.3664C-2.2554 43.1163 -0.894195 54.3505 6.76803 60.4108Z" fill="white"/>
<path d="M289.682 211.12C287.113 210.305 284.378 211.749 283.573 214.345C282.902 216.502 281.665 218.147 281.659 218.155C279.894 220.439 277.358 221.889 274.514 222.24C271.672 222.592 268.864 221.803 266.608 220.019C263.766 217.77 262.239 214.256 262.524 210.616L263.144 202.732C263.286 200.933 262.442 199.198 260.946 198.212L239.034 183.78C236.78 182.295 233.76 182.939 232.292 185.221C230.824 187.501 231.461 190.554 233.717 192.039L253.201 204.873L252.81 209.835C252.264 216.781 255.179 223.491 260.605 227.783C264.242 230.658 268.628 232.179 273.172 232.179C274.009 232.179 274.853 232.127 275.7 232.022C281.126 231.351 285.97 228.581 289.323 224.242C289.559 223.94 291.668 221.171 292.869 217.299C293.677 214.704 292.249 211.938 289.682 211.12Z" fill="white"/>
<path d="M25.7683 207.444C26.7286 208.687 28.1629 209.336 29.6095 209.336C30.66 209.336 31.7166 208.995 32.6085 208.291C34.728 206.614 35.1025 203.516 33.4445 201.373C29.3283 196.046 21.2014 195.199 17.2965 194.792C17.0075 194.761 16.7527 194.736 16.5398 194.709C15.1086 194.539 13.7909 193.805 12.9006 192.666L11.415 190.743C8.73304 187.275 9.34216 182.246 12.7716 179.534C15.0263 177.751 18.0657 177.342 20.7026 178.467C20.7586 178.491 20.8145 178.513 20.8705 178.535L31.5814 182.637C33.0343 183.193 34.6628 183.016 35.9649 182.158L56.4436 168.668C58.6983 167.184 59.337 164.131 57.867 161.85C56.3986 159.568 53.3794 158.924 51.1262 160.409L32.7189 172.534L24.3978 169.347C18.5256 166.881 11.7802 167.805 6.76737 171.77C-0.894854 177.829 -2.25451 189.065 3.73573 196.815L5.22591 198.743C5.22902 198.748 5.27097 198.801 5.27408 198.806C7.73078 201.951 11.4213 204.027 15.4008 204.5C15.6525 204.53 15.954 204.561 16.2943 204.598C21.5433 205.143 24.7303 206.102 25.7683 207.444Z" fill="white"/>
<path d="M230.339 53.1782C231.251 53.1782 232.172 52.9189 232.993 52.3783L260.946 33.9663C262.442 32.9809 263.286 31.2473 263.145 29.4462L262.525 21.5644C262.239 17.9244 263.766 14.4102 266.608 12.1611C268.864 10.3773 271.672 9.58834 274.514 9.94039C277.356 10.2924 279.894 11.7415 281.659 14.0236L283.56 16.4848C285.218 18.6285 288.279 19.0088 290.4 17.3319C292.519 15.6549 292.894 12.5572 291.237 10.4135L289.335 7.95382C285.968 3.59719 281.125 0.827928 275.698 0.156831C270.274 -0.515838 264.913 0.989809 260.606 4.39559C255.179 8.68778 252.264 15.3988 252.81 22.3439L253.201 27.3056L227.676 44.1176C225.421 45.6028 224.782 48.6566 226.251 50.937C227.186 52.3893 228.746 53.1782 230.339 53.1782Z" fill="white"/>
<path d="M286.121 27.0697C284.463 24.926 281.402 24.5472 279.282 26.2226C277.163 27.898 276.787 30.9957 278.445 33.1395C282.37 38.2191 289.381 38.3998 293.146 38.4972C293.74 38.5114 294.412 38.5287 294.695 38.5632C296.126 38.733 297.446 39.4669 298.335 40.6064L298.976 41.4362C300.275 43.1163 300.849 45.2082 300.594 47.3252C300.337 49.4422 299.281 51.333 297.62 52.6453C295.365 54.4291 292.326 54.8393 289.689 53.7124C289.634 53.6889 289.577 53.6669 289.521 53.6449L278.81 49.5428C277.357 48.9865 275.727 49.1641 274.426 50.0222L237.438 74.386C235.181 75.8712 234.544 78.925 236.013 81.2039C236.947 82.6561 238.508 83.4435 240.101 83.4435C241.012 83.4435 241.935 83.1857 242.755 82.6451L277.672 59.647L285.994 62.8328C291.864 65.2987 298.611 64.3746 303.624 60.4108C307.336 57.475 309.695 53.2535 310.267 48.5228C310.84 43.7921 309.557 39.1196 306.654 35.3665L306.009 34.5304C306.004 34.5257 305.964 34.4722 305.961 34.4675C303.504 31.3226 299.814 29.2465 295.834 28.7734C295.109 28.6885 294.315 28.6665 293.395 28.6429C291.389 28.5911 287.215 28.4842 286.121 27.0697Z" fill="white"/>
<path d="M64.8983 188.034L49.4434 198.214C47.947 199.199 47.1032 200.933 47.2446 202.734L47.8646 210.617C48.1505 214.257 46.6246 217.772 43.781 220.021C41.5247 221.804 38.7184 222.593 35.8748 222.241C33.0327 221.889 30.4952 220.439 28.7362 218.164C28.7238 218.147 27.4869 216.503 26.8156 214.345C26.0107 211.749 23.2728 210.303 20.7073 211.122C18.1403 211.938 16.7138 214.704 17.5203 217.3C18.723 221.173 20.8316 223.942 21.0538 224.228C24.4211 228.583 29.2646 231.352 34.6907 232.025C35.5361 232.13 36.3798 232.18 37.2189 232.18C41.7609 232.18 46.1491 230.659 49.7837 227.785C55.2114 223.492 58.1249 216.783 57.5795 209.836L57.1895 204.874L70.2157 196.295C72.4704 194.81 73.1091 191.756 71.6406 189.475C70.1707 187.193 67.1515 186.549 64.8983 188.034Z" fill="white"/>
</svg>
