<svg width="293" height="299" viewBox="0 0 293 299" fill="none" xmlns="http://www.w3.org/2000/svg">
<mask id="mask0_1871_58" style="mask-type:luminance" maskUnits="userSpaceOnUse" x="0" y="0" width="293" height="299">
<path d="M0 0H293V298.034H0V0Z" fill="white"/>
</mask>
<g mask="url(#mask0_1871_58)">
<path d="M111.841 0.0161133C106.35 0.0161133 101.898 4.48411 101.898 9.97471C101.898 13.1684 103.456 15.9688 105.8 17.7937V224.03H3.06728C3.06728 224.03 60.5062 295.549 104.274 297.72C192.139 302.078 292.968 224.03 292.968 224.03H118.118V17.6049C120.337 15.78 121.784 13.0583 121.784 9.97471C121.784 4.46838 117.332 0.0161133 111.841 0.0161133ZM125.748 15.2293C140.521 91.028 151.251 163.57 125.748 207.117L271.493 207.306C244.182 143.275 201.956 79.2444 125.748 15.2293ZM98.4685 79.5748C84.7026 148.97 36.0896 172.553 0.078125 207.416L98.4685 207.306V79.5748Z" fill="white"/>
</g>
</svg>
