<svg width="91" height="90" viewBox="0 0 91 90" fill="none" xmlns="http://www.w3.org/2000/svg">
<ellipse cx="45.5" cy="45" rx="45.5" ry="45" fill="#FF6F00"/>
<path d="M58.0742 53.2812L55.9258 53.3301L55.4863 63.877L44.4512 64.8535L45.0371 53.5742L32 53.8672L35.6133 32.4316H44.8418L42.1562 47.373L45.3789 47.2754L46.3066 28.7695H56.9023L56.1699 46.8848L58.0742 46.7871V53.2812Z" fill="white"/>
<ellipse cx="45.5" cy="45" rx="45.5" ry="45" fill="#919191" fill-opacity="0.8"/>
<g clip-path="url(#clip0_1567_53)">
<mask id="mask0_1567_53" style="mask-type:luminance" maskUnits="userSpaceOnUse" x="25" y="16" width="42" height="57">
<path d="M25.625 16H66.225V73H25.625V16Z" fill="white"/>
</mask>
<g mask="url(#mask0_1567_53)">
<path d="M62.6393 67.8134C62.6393 68.2558 62.458 68.6506 62.1529 68.9534C61.8478 69.2503 61.443 69.4284 60.9899 69.4284H30.8601C30.407 69.4284 30.0052 69.2503 29.6971 68.9534C29.395 68.6536 29.2138 68.2587 29.2138 67.8134V44.1555C29.2138 43.7131 29.395 43.3183 29.6971 43.0184C30.0052 42.7186 30.407 42.5405 30.8601 42.5405H60.9899C61.443 42.5405 61.8448 42.7186 62.1529 43.0184C62.458 43.3183 62.6393 43.7131 62.6393 44.1555V67.8134ZM36.9108 22.6795C38.8774 20.7558 41.569 19.5712 44.5656 19.5712H47.2874C50.2841 19.5712 52.9786 20.7558 54.9422 22.6795C56.9027 24.6092 58.111 27.2514 58.111 30.1905V39.0195H33.742V30.1905C33.742 27.2514 34.9503 24.6092 36.9108 22.6795ZM61.6998 39.0759V30.1905C61.6998 22.3797 55.2503 16.0503 47.2874 16.0503H44.5656C36.6057 16.0503 30.1532 22.3797 30.1532 30.1905V39.073C27.5976 39.4173 25.631 41.5578 25.625 44.1555V67.8134C25.631 70.6486 27.9661 72.9434 30.8601 72.9494H60.9899C63.8808 72.9434 66.222 70.6515 66.228 67.8134V44.1555C66.222 41.5548 64.2554 39.4203 61.6998 39.0759Z" fill="black" fill-opacity="0.2"/>
</g>
<path d="M49.5127 52.7562C49.5127 50.8147 47.9086 49.2383 45.927 49.2383C43.9423 49.2383 42.3382 50.8147 42.3382 52.7562C42.3382 54.1902 43.2143 55.4192 44.4679 55.9684L41.9062 62.7312H49.9447L47.383 55.9684C48.6367 55.4192 49.5127 54.1902 49.5127 52.7562Z" fill="black" fill-opacity="0.2"/>
</g>
<defs>
<clipPath id="clip0_1567_53">
<rect width="58" height="57" fill="white" transform="translate(16 16)"/>
</clipPath>
</defs>
</svg>
