<svg width="91" height="90" viewBox="0 0 91 90" fill="none" xmlns="http://www.w3.org/2000/svg">
<ellipse cx="45.5" cy="45" rx="45.5" ry="45" fill="#FF6F00"/>
<path d="M57.5371 52.6953C57.5371 54.86 57.1872 56.7399 56.4873 58.335C55.8037 59.9137 54.8434 61.2321 53.6064 62.29C52.3695 63.3317 50.8883 64.113 49.1631 64.6338C47.4541 65.1383 45.5742 65.3906 43.5234 65.3906C42.5957 65.3906 41.6436 65.3011 40.667 65.1221C39.6904 64.943 38.722 64.6989 37.7617 64.3896C36.8014 64.0804 35.8656 63.7142 34.9541 63.291C34.0589 62.8678 33.2207 62.4121 32.4395 61.9238L33.3672 52.1094C33.9857 52.5326 34.6774 52.9395 35.4424 53.3301C36.2074 53.7044 36.9967 54.0462 37.8105 54.3555C38.6406 54.6484 39.4707 54.8844 40.3008 55.0635C41.1471 55.2425 41.9609 55.332 42.7422 55.332C43.1979 55.332 43.6618 55.2995 44.1338 55.2344C44.6221 55.153 45.0615 55.0146 45.4521 54.8193C45.8428 54.624 46.1602 54.3473 46.4043 53.9893C46.6647 53.6312 46.7949 53.1673 46.7949 52.5977C46.7949 52.2396 46.6322 51.9059 46.3066 51.5967C45.9811 51.2874 45.5905 51.027 45.1348 50.8154C44.679 50.5876 44.207 50.4167 43.7188 50.3027C43.2305 50.1725 42.8236 50.1074 42.498 50.1074C42.2702 50.1074 41.9935 50.1237 41.668 50.1562C41.3587 50.1725 41.0413 50.2051 40.7158 50.2539C40.3903 50.3027 40.0729 50.376 39.7637 50.4736C39.4707 50.555 39.2428 50.6608 39.0801 50.791L39.2266 43.8086C39.5033 43.8411 39.7637 43.8656 40.0078 43.8818C40.252 43.8981 40.5124 43.9062 40.7891 43.9062C41.3587 43.9062 41.9772 43.8574 42.6445 43.7598C43.3118 43.6458 43.9303 43.4587 44.5 43.1982C45.0697 42.9215 45.5417 42.5472 45.916 42.0752C46.3066 41.6032 46.502 40.9928 46.502 40.2441C46.502 39.707 46.3555 39.2757 46.0625 38.9502C45.7695 38.6084 45.4033 38.348 44.9639 38.1689C44.5407 37.9899 44.0768 37.8678 43.5723 37.8027C43.0677 37.7376 42.612 37.7051 42.2051 37.7051C40.8867 37.7051 39.5846 37.9329 38.2988 38.3887C37.0293 38.8444 35.9062 39.5117 34.9297 40.3906L32.8789 31.5039C34.3763 30.2832 36.0771 29.3555 37.9814 28.7207C39.902 28.0697 41.8307 27.7441 43.7676 27.7441C45.5417 27.7441 47.2344 28.0046 48.8457 28.5254C50.4733 29.0299 51.9056 29.7868 53.1426 30.7959C54.3796 31.7887 55.3643 33.0176 56.0967 34.4824C56.8291 35.9473 57.1953 37.64 57.1953 39.5605C57.1953 40.1139 57.1139 40.6755 56.9512 41.2451C56.7884 41.8148 56.5687 42.3682 56.292 42.9053C56.0153 43.4424 55.6898 43.9469 55.3154 44.4189C54.9411 44.8747 54.5423 45.2734 54.1191 45.6152C54.8027 45.9245 55.3643 46.3395 55.8037 46.8604C56.2432 47.3812 56.5931 47.959 56.8535 48.5938C57.1139 49.2285 57.293 49.904 57.3906 50.6201C57.4883 51.32 57.5371 52.0117 57.5371 52.6953Z" fill="white"/>
<ellipse cx="45.5" cy="45" rx="45.5" ry="45" fill="#919191" fill-opacity="0.8"/>
<g clip-path="url(#clip0_1567_52)">
<mask id="mask0_1567_52" style="mask-type:luminance" maskUnits="userSpaceOnUse" x="25" y="16" width="42" height="57">
<path d="M25.625 16H66.225V73H25.625V16Z" fill="white"/>
</mask>
<g mask="url(#mask0_1567_52)">
<path d="M62.6393 67.8134C62.6393 68.2558 62.458 68.6506 62.1529 68.9534C61.8478 69.2503 61.443 69.4284 60.9899 69.4284H30.8601C30.407 69.4284 30.0052 69.2503 29.6971 68.9534C29.395 68.6536 29.2138 68.2587 29.2138 67.8134V44.1555C29.2138 43.7131 29.395 43.3183 29.6971 43.0184C30.0052 42.7186 30.407 42.5405 30.8601 42.5405H60.9899C61.443 42.5405 61.8448 42.7186 62.1529 43.0184C62.458 43.3183 62.6393 43.7131 62.6393 44.1555V67.8134ZM36.9108 22.6795C38.8774 20.7558 41.569 19.5712 44.5656 19.5712H47.2874C50.2841 19.5712 52.9786 20.7558 54.9422 22.6795C56.9027 24.6092 58.111 27.2514 58.111 30.1905V39.0195H33.742V30.1905C33.742 27.2514 34.9503 24.6092 36.9108 22.6795ZM61.6998 39.0759V30.1905C61.6998 22.3797 55.2503 16.0503 47.2874 16.0503H44.5656C36.6057 16.0503 30.1532 22.3797 30.1532 30.1905V39.073C27.5976 39.4173 25.631 41.5578 25.625 44.1555V67.8134C25.631 70.6486 27.9661 72.9434 30.8601 72.9494H60.9899C63.8808 72.9434 66.222 70.6515 66.228 67.8134V44.1555C66.222 41.5548 64.2554 39.4203 61.6998 39.0759Z" fill="black" fill-opacity="0.2"/>
</g>
<path d="M49.5127 52.7562C49.5127 50.8147 47.9086 49.2383 45.927 49.2383C43.9423 49.2383 42.3382 50.8147 42.3382 52.7562C42.3382 54.1902 43.2143 55.4192 44.4679 55.9684L41.9062 62.7312H49.9447L47.383 55.9684C48.6367 55.4192 49.5127 54.1902 49.5127 52.7562Z" fill="black" fill-opacity="0.2"/>
</g>
<defs>
<clipPath id="clip0_1567_52">
<rect width="58" height="57" fill="white" transform="translate(16 16)"/>
</clipPath>
</defs>
</svg>
