<svg width="91" height="90" viewBox="0 0 91 90" fill="none" xmlns="http://www.w3.org/2000/svg">
<ellipse cx="45.5" cy="45" rx="45.5" ry="45" fill="#FF6F00"/>
<path d="M57.6094 42.002C57.6094 43.304 57.3734 44.5492 56.9014 45.7373C56.4294 46.9092 55.8027 48.016 55.0215 49.0576C54.2565 50.083 53.3776 51.0352 52.3848 51.9141C51.4082 52.7767 50.4154 53.5579 49.4062 54.2578H57.1211L56.5352 64.4141L33.6836 63.6328V54.7461C34.5462 54.4531 35.4495 54.1032 36.3936 53.6963C37.3538 53.2731 38.2897 52.793 39.2012 52.2559C40.1289 51.7188 40.9997 51.1165 41.8135 50.4492C42.6436 49.7819 43.3678 49.0576 43.9863 48.2764C44.6211 47.4788 45.1175 46.6162 45.4756 45.6885C45.8499 44.7607 46.0371 43.7598 46.0371 42.6855C46.0371 42.0671 45.9232 41.5218 45.6953 41.0498C45.4837 40.5778 45.1826 40.1872 44.792 39.8779C44.4014 39.5524 43.9456 39.3164 43.4248 39.1699C42.9202 39.0072 42.375 38.9258 41.7891 38.9258C41.3008 38.9258 40.8044 38.9827 40.2998 39.0967C39.7952 39.1943 39.2988 39.3408 38.8105 39.5361C38.3223 39.7314 37.8584 39.9756 37.4189 40.2686C36.9958 40.5452 36.6133 40.8626 36.2715 41.2207L34.123 31.6504C34.7253 31.0482 35.417 30.5436 36.1982 30.1367C36.9795 29.7298 37.8014 29.4043 38.6641 29.1602C39.5267 28.8997 40.4056 28.7126 41.3008 28.5986C42.196 28.4847 43.0749 28.4277 43.9375 28.4277C45.8581 28.4277 47.6484 28.7777 49.3086 29.4775C50.9688 30.1611 52.4092 31.1133 53.6299 32.334C54.8669 33.5384 55.8353 34.9707 56.5352 36.6309C57.2513 38.291 57.6094 40.0814 57.6094 42.002Z" fill="white"/>
<ellipse cx="45.5" cy="45" rx="45.5" ry="45" fill="#919191" fill-opacity="0.8"/>
<g clip-path="url(#clip0_1567_51)">
<mask id="mask0_1567_51" style="mask-type:luminance" maskUnits="userSpaceOnUse" x="25" y="16" width="42" height="57">
<path d="M25.625 16H66.225V73H25.625V16Z" fill="white"/>
</mask>
<g mask="url(#mask0_1567_51)">
<path d="M62.6393 67.8134C62.6393 68.2558 62.458 68.6506 62.1529 68.9534C61.8478 69.2503 61.443 69.4284 60.9899 69.4284H30.8601C30.407 69.4284 30.0052 69.2503 29.6971 68.9534C29.395 68.6536 29.2138 68.2587 29.2138 67.8134V44.1555C29.2138 43.7131 29.395 43.3183 29.6971 43.0184C30.0052 42.7186 30.407 42.5405 30.8601 42.5405H60.9899C61.443 42.5405 61.8448 42.7186 62.1529 43.0184C62.458 43.3183 62.6393 43.7131 62.6393 44.1555V67.8134ZM36.9108 22.6795C38.8774 20.7558 41.569 19.5712 44.5656 19.5712H47.2874C50.2841 19.5712 52.9786 20.7558 54.9422 22.6795C56.9027 24.6092 58.111 27.2514 58.111 30.1905V39.0195H33.742V30.1905C33.742 27.2514 34.9503 24.6092 36.9108 22.6795ZM61.6998 39.0759V30.1905C61.6998 22.3797 55.2503 16.0503 47.2874 16.0503H44.5656C36.6057 16.0503 30.1532 22.3797 30.1532 30.1905V39.073C27.5976 39.4173 25.631 41.5578 25.625 44.1555V67.8134C25.631 70.6486 27.9661 72.9434 30.8601 72.9494H60.9899C63.8808 72.9434 66.222 70.6515 66.228 67.8134V44.1555C66.222 41.5548 64.2554 39.4203 61.6998 39.0759Z" fill="black" fill-opacity="0.2"/>
</g>
<path d="M49.5127 52.7562C49.5127 50.8147 47.9086 49.2383 45.927 49.2383C43.9423 49.2383 42.3382 50.8147 42.3382 52.7562C42.3382 54.1902 43.2143 55.4192 44.4679 55.9684L41.9062 62.7312H49.9447L47.383 55.9684C48.6367 55.4192 49.5127 54.1902 49.5127 52.7562Z" fill="black" fill-opacity="0.2"/>
</g>
<defs>
<clipPath id="clip0_1567_51">
<rect width="58" height="57" fill="white" transform="translate(16 16)"/>
</clipPath>
</defs>
</svg>
