<svg width="58" height="57" viewBox="0 0 58 57" fill="none" xmlns="http://www.w3.org/2000/svg">
<g clip-path="url(#clip0_1345_15)">
<mask id="mask0_1345_15" style="mask-type:luminance" maskUnits="userSpaceOnUse" x="9" y="0" width="42" height="57">
<path d="M9.625 0H50.225V57H9.625V0Z" fill="white"/>
</mask>
<g mask="url(#mask0_1345_15)">
<path d="M46.6393 51.8134C46.6393 52.2558 46.458 52.6506 46.1529 52.9534C45.8478 53.2503 45.443 53.4284 44.9899 53.4284H14.8601C14.407 53.4284 14.0052 53.2503 13.6971 52.9534C13.395 52.6536 13.2138 52.2587 13.2138 51.8134V28.1555C13.2138 27.7131 13.395 27.3183 13.6971 27.0184C14.0052 26.7186 14.407 26.5405 14.8601 26.5405H44.9899C45.443 26.5405 45.8448 26.7186 46.1529 27.0184C46.458 27.3183 46.6393 27.7131 46.6393 28.1555V51.8134ZM20.9108 6.67951C22.8774 4.75576 25.569 3.57123 28.5656 3.57123H31.2874C34.2841 3.57123 36.9786 4.75576 38.9422 6.67951C40.9027 8.6092 42.111 11.2514 42.111 14.1905V23.0195H17.742V14.1905C17.742 11.2514 18.9503 8.6092 20.9108 6.67951ZM45.6998 23.0759V14.1905C45.6998 6.37967 39.2503 0.050293 31.2874 0.050293H28.5656C20.6057 0.050293 14.1532 6.37967 14.1532 14.1905V23.073C11.5976 23.4173 9.63104 25.5578 9.625 28.1555V51.8134C9.63104 54.6486 11.9661 56.9434 14.8601 56.9494H44.9899C47.8808 56.9434 50.222 54.6515 50.228 51.8134V28.1555C50.222 25.5548 48.2554 23.4203 45.6998 23.0759Z" fill="black" fill-opacity="0.2"/>
</g>
<path d="M33.5127 36.7562C33.5127 34.8147 31.9086 33.2383 29.927 33.2383C27.9423 33.2383 26.3382 34.8147 26.3382 36.7562C26.3382 38.1902 27.2143 39.4192 28.4679 39.9684L25.9062 46.7312H33.9447L31.383 39.9684C32.6367 39.4192 33.5127 38.1902 33.5127 36.7562Z" fill="black" fill-opacity="0.2"/>
</g>
<defs>
<clipPath id="clip0_1345_15">
<rect width="58" height="57" fill="white"/>
</clipPath>
</defs>
</svg>
