<svg width="294" height="346" viewBox="0 0 294 346" fill="none" xmlns="http://www.w3.org/2000/svg">
<mask id="mask0_1063_56" style="mask-type:luminance" maskUnits="userSpaceOnUse" x="0" y="222" width="294" height="124">
<path d="M0 222.482H294V346H0V222.482Z" fill="white"/>
</mask>
<g mask="url(#mask0_1063_56)">
<path d="M268.893 222.46C267.737 222.478 266.58 222.578 265.428 222.76C262.358 223.237 259.338 224.3 256.555 225.992L186.025 267.936C184.398 267.078 182.404 266.13 179.77 264.908C176.75 263.501 173.588 262.069 171.804 261.291C162.207 257.1 131.601 244.909 108.376 235.073C98.4378 230.864 87.8185 228.713 77.1878 228.616C66.5533 228.52 55.9035 230.478 45.8853 234.51L4.9205 250.977C4.52621 251.125 4.15105 251.31 3.79504 251.532C3.43902 251.755 3.1098 252.006 2.80355 252.291C2.50113 252.576 2.22933 252.887 1.99199 253.224C1.75082 253.561 1.54793 253.917 1.38332 254.294C1.21871 254.668 1.09238 255.057 1.00816 255.457C0.923942 255.856 0.878005 256.26 0.878005 256.671C0.878005 257.078 0.916286 257.482 1.0005 257.885C1.0809 258.285 1.2034 258.674 1.368 259.051C1.52879 259.425 1.73168 259.784 1.96519 260.125C2.20254 260.462 2.47433 260.773 2.77675 261.062C3.07535 261.347 3.40457 261.602 3.76058 261.824C4.11277 262.05 4.48793 262.235 4.88222 262.387C5.27269 262.539 5.67847 262.65 6.09574 262.724C6.51301 262.798 6.93027 262.831 7.35519 262.82C7.77629 262.813 8.19738 262.765 8.60699 262.676C9.02043 262.591 9.42238 262.461 9.80902 262.298L50.7776 245.827C67.6099 239.056 86.5591 239.234 103.261 246.305C126.712 256.238 157.816 268.647 166.567 272.464C168.14 273.153 171.314 274.593 174.261 275.963C177.209 277.332 180.31 278.85 180.566 278.995C183.403 280.583 185.283 283.434 185.283 286.862C185.283 292.019 181.095 296.061 175.751 296.061C174.993 296.061 174.277 295.98 173.592 295.821C173.588 295.821 173.584 295.821 173.58 295.821C173.419 295.784 168.393 294.421 162.299 292.696C156.204 290.967 148.464 288.75 140.838 286.562C125.594 282.186 110.856 277.929 110.856 277.929C110.454 277.81 110.048 277.732 109.631 277.695C109.218 277.658 108.801 277.658 108.387 277.699C107.97 277.74 107.564 277.817 107.166 277.936C106.764 278.054 106.381 278.21 106.014 278.399C105.646 278.591 105.302 278.817 104.98 279.072C104.658 279.328 104.368 279.613 104.103 279.924C103.839 280.239 103.61 280.572 103.414 280.927C103.219 281.283 103.058 281.653 102.94 282.042C102.821 282.427 102.741 282.819 102.702 283.219C102.66 283.622 102.664 284.022 102.706 284.422C102.748 284.826 102.829 285.218 102.951 285.603C103.074 285.988 103.234 286.358 103.433 286.71C103.633 287.065 103.866 287.399 104.13 287.709C104.398 288.02 104.693 288.302 105.014 288.557C105.34 288.813 105.684 289.031 106.056 289.22C106.423 289.409 106.806 289.561 107.208 289.675C107.208 289.675 121.954 293.944 137.217 298.323C144.846 300.515 152.602 302.736 158.723 304.469C164.837 306.202 168.73 307.316 170.636 307.749C172.294 308.134 174.005 308.327 175.751 308.327C187.958 308.327 197.992 298.642 197.992 286.862C197.992 283.23 197.008 279.817 195.335 276.814L263.284 236.402C263.304 236.391 263.323 236.376 263.346 236.365C268.663 233.129 275.508 234.625 278.857 239.756C282.115 244.735 280.752 251.144 275.73 254.487C275.649 254.539 275.573 254.59 275.496 254.642L175.268 327.933C168.424 332.938 159.458 334.286 151.365 331.513L77.3486 306.194C60.2331 299.379 40.6484 301.674 25.7187 312.243L3.58066 327.922C3.22847 328.155 2.90691 328.418 2.61215 328.714C2.31738 329.01 2.05324 329.329 1.82738 329.677C1.59769 330.021 1.40629 330.387 1.25316 330.769C1.10386 331.154 0.992849 331.546 0.920114 331.95C0.851209 332.357 0.820583 332.764 0.835896 333.175C0.851208 333.582 0.904801 333.99 1.00433 334.389C1.10386 334.786 1.24168 335.174 1.4216 335.545C1.59769 335.918 1.81207 336.27 2.06472 336.6C2.31738 336.929 2.60066 337.233 2.91457 337.51C3.22847 337.784 3.56918 338.029 3.93668 338.24C4.30035 338.447 4.68316 338.621 5.08511 338.758C5.48707 338.891 5.89668 338.988 6.31777 339.043C6.73886 339.102 7.16379 339.117 7.58871 339.091C8.01363 339.065 8.4309 338.999 8.8405 338.891C9.25011 338.784 9.64441 338.64 10.0272 338.454C10.4062 338.273 10.7661 338.055 11.0991 337.803L33.241 322.135C44.6067 314.087 59.4636 312.347 72.4946 317.537C72.5979 317.574 72.7013 317.611 72.8046 317.645L147.12 343.071C159.232 347.217 172.711 345.2 182.947 337.707V337.718L283.175 264.427L282.942 264.582C293.462 257.578 296.428 243.651 289.607 233.214C285.001 226.166 276.993 222.341 268.893 222.46Z" fill="white"/>
</g>
<path d="M175.444 163.782L181.249 188.958C181.319 189.256 181.369 189.555 181.404 189.857C181.439 190.159 181.454 190.462 181.454 190.768C181.454 191.07 181.435 191.372 181.4 191.674C181.361 191.977 181.311 192.279 181.237 192.574C181.168 192.872 181.078 193.163 180.974 193.45C180.869 193.734 180.749 194.018 180.61 194.29C180.474 194.562 180.319 194.827 180.152 195.085C179.982 195.342 179.8 195.592 179.602 195.827C179.404 196.066 179.195 196.294 178.97 196.506C178.75 196.723 178.513 196.924 178.265 197.115C178.017 197.301 177.762 197.477 177.494 197.641C177.227 197.801 176.952 197.947 176.665 198.077C176.382 198.212 176.091 198.327 175.793 198.428C175.495 198.529 175.193 198.611 174.883 198.678C174.576 198.745 174.266 198.798 173.953 198.831C173.639 198.865 173.321 198.88 173.007 198.88H156.57C155.938 198.88 155.314 198.812 154.698 198.678C154.082 198.544 153.485 198.342 152.916 198.081C152.346 197.816 151.815 197.495 151.319 197.115C150.823 196.738 150.378 196.309 149.983 195.835C149.587 195.357 149.25 194.846 148.975 194.297C148.7 193.749 148.491 193.182 148.347 192.585C148.204 191.991 148.13 191.391 148.127 190.783C148.123 190.174 148.192 189.57 148.328 188.977L154.133 163.805C153.334 163.23 152.594 162.596 151.905 161.902C151.219 161.204 150.599 160.458 150.041 159.663C149.483 158.868 148.998 158.032 148.588 157.159C148.177 156.282 147.844 155.383 147.588 154.454C147.336 153.525 147.162 152.584 147.073 151.629C146.983 150.67 146.976 149.715 147.053 148.76C147.127 147.801 147.286 146.857 147.53 145.924C147.77 144.995 148.088 144.088 148.487 143.207C148.886 142.331 149.359 141.487 149.905 140.685C150.451 139.883 151.064 139.129 151.742 138.424C152.416 137.719 153.152 137.073 153.939 136.487C154.729 135.905 155.562 135.386 156.446 134.935C157.325 134.483 158.236 134.107 159.182 133.804C160.127 133.502 161.092 133.278 162.076 133.133C163.06 132.983 164.052 132.92 165.048 132.931C166.044 132.946 167.032 133.039 168.012 133.215C168.861 133.36 169.69 133.569 170.508 133.834C171.325 134.099 172.116 134.416 172.883 134.793C173.654 135.17 174.387 135.595 175.092 136.077C175.797 136.554 176.46 137.08 177.083 137.651C177.707 138.226 178.285 138.838 178.816 139.491C179.35 140.144 179.831 140.831 180.257 141.551C180.687 142.271 181.059 143.017 181.373 143.79C181.687 144.562 181.946 145.349 182.14 146.159C182.338 146.965 182.473 147.786 182.543 148.61C182.617 149.439 182.628 150.267 182.578 151.096C182.524 151.924 182.411 152.745 182.237 153.555C182.059 154.368 181.822 155.163 181.528 155.943C181.233 156.722 180.881 157.48 180.47 158.208C180.059 158.939 179.598 159.637 179.083 160.301C178.568 160.965 178.006 161.592 177.397 162.178C176.785 162.767 176.134 163.308 175.444 163.801V163.782ZM174.933 148.364C174.743 147.372 174.406 146.431 173.922 145.54C173.441 144.648 172.833 143.845 172.096 143.129C171.364 142.413 170.539 141.816 169.617 141.342C168.698 140.864 167.726 140.528 166.703 140.331C166.071 140.226 165.432 140.17 164.788 140.166C163.583 140.163 162.413 140.36 161.278 140.76C160.143 141.155 159.116 141.73 158.193 142.48C157.872 142.741 157.562 143.021 157.275 143.316C156.984 143.614 156.717 143.928 156.469 144.256C156.221 144.584 155.993 144.928 155.787 145.282C155.586 145.64 155.404 146.006 155.245 146.383C155.09 146.763 154.954 147.148 154.849 147.543C154.741 147.935 154.656 148.334 154.601 148.737C154.543 149.14 154.512 149.547 154.508 149.954C154.505 150.36 154.528 150.767 154.574 151.17C154.621 151.573 154.694 151.976 154.795 152.372C154.892 152.767 155.016 153.155 155.163 153.536C155.314 153.916 155.485 154.286 155.683 154.648C155.88 155.006 156.097 155.353 156.341 155.689C156.582 156.025 156.841 156.342 157.124 156.644C157.407 156.946 157.709 157.234 158.027 157.499C158.345 157.767 158.678 158.014 159.03 158.241C159.379 158.469 159.743 158.674 160.119 158.857C160.491 159.043 160.817 159.278 161.107 159.566C161.394 159.857 161.627 160.181 161.801 160.543C161.979 160.905 162.088 161.286 162.134 161.685C162.177 162.081 162.157 162.476 162.064 162.868L155.671 190.533C155.601 190.812 155.663 191.062 155.853 191.286C156.035 191.51 156.275 191.618 156.57 191.615H173.007C173.302 191.618 173.542 191.51 173.724 191.286C173.914 191.062 173.976 190.812 173.906 190.533L167.513 162.868C167.423 162.476 167.4 162.081 167.443 161.685C167.489 161.286 167.602 160.905 167.776 160.543C167.95 160.181 168.183 159.857 168.47 159.566C168.76 159.278 169.086 159.043 169.458 158.857C169.946 158.625 170.411 158.353 170.857 158.047C171.298 157.741 171.713 157.402 172.1 157.028C172.488 156.659 172.84 156.26 173.162 155.834C173.484 155.409 173.767 154.961 174.011 154.491C174.259 154.021 174.464 153.536 174.627 153.032C174.793 152.532 174.914 152.021 174.995 151.499C175.072 150.98 175.107 150.454 175.1 149.928C175.092 149.402 175.041 148.879 174.945 148.364H174.933Z" fill="white"/>
<mask id="mask1_1063_56" style="mask-type:luminance" maskUnits="userSpaceOnUse" x="97" y="0" width="143" height="231">
<path d="M97.3809 0H239.481V230.934H97.3809V0Z" fill="white"/>
</mask>
<g mask="url(#mask1_1063_56)">
<path d="M194.549 31.3939C193.779 31.0422 192.995 30.7276 192.191 30.4499C191.391 30.1759 190.575 29.9353 189.748 29.7354C188.925 29.5392 188.091 29.3763 187.249 29.2578C186.406 29.1356 185.56 29.0579 184.71 29.0172C183.857 28.9765 183.007 28.9765 182.157 29.0172C181.307 29.0579 180.461 29.1393 179.619 29.2615C178.777 29.3837 177.942 29.5429 177.119 29.7428C176.292 29.9427 175.481 30.1833 174.677 30.461C173.877 30.7387 173.092 31.0533 172.323 31.405C171.553 31.7567 170.803 32.1418 170.072 32.5675C169.341 32.9895 168.632 33.4486 167.951 33.9373C167.266 34.426 166.607 34.948 165.976 35.5033C165.344 36.0549 164.743 36.6361 164.173 37.247C163.598 37.8541 163.059 38.4909 162.553 39.1536C162.044 39.8125 161.569 40.4974 161.133 41.2045C160.693 41.9079 160.291 42.6336 159.927 43.3777L144.06 75.886C143.853 76.3117 143.57 76.6819 143.21 77.0003C142.854 77.3187 142.444 77.5593 141.989 77.7222C141.533 77.8851 141.062 77.9591 140.576 77.9443C140.09 77.9295 139.627 77.8259 139.183 77.6334L118.817 68.8223C118.591 68.7261 118.377 68.6076 118.174 68.4706C117.971 68.3299 117.787 68.1745 117.615 68.0005C117.446 67.8265 117.297 67.6377 117.167 67.434C117.033 67.2304 116.926 67.0157 116.838 66.7899C116.754 66.564 116.689 66.3345 116.65 66.0976C116.612 65.8606 116.597 65.6237 116.608 65.3831C116.62 65.1424 116.654 64.9092 116.711 64.676C116.773 64.4427 116.853 64.2169 116.96 64.0022L133.05 31.0644C133.831 29.4688 134.688 27.9139 135.63 26.3961C136.568 24.8819 137.579 23.4159 138.666 21.9943C139.753 20.5764 140.913 19.214 142.138 17.9034C143.363 16.5929 144.653 15.3453 146.004 14.1606C147.356 12.9722 148.768 11.8542 150.234 10.8028C151.701 9.74766 153.216 8.7666 154.782 7.85958C156.348 6.95257 157.956 6.11959 159.606 5.36436C161.256 4.60913 162.94 3.93164 164.659 3.3393C166.378 2.74326 168.123 2.22867 169.896 1.79922C171.664 1.36977 173.452 1.02548 175.259 0.766331C177.066 0.507182 178.88 0.333183 180.702 0.248035C182.525 0.159184 184.351 0.159184 186.173 0.248035C187.995 0.333183 189.81 0.507182 191.616 0.766331C193.423 1.02548 195.211 1.36977 196.983 1.79922C198.752 2.22867 200.498 2.73956 202.216 3.3356C203.935 3.92794 205.62 4.60543 207.273 5.36066C208.923 6.11589 210.531 6.94516 212.097 7.85588C213.663 8.7629 215.179 9.74396 216.645 10.7954C218.111 11.8468 219.52 12.9648 220.875 14.1532C222.226 15.3379 223.516 16.5855 224.741 17.896C225.97 19.2029 227.126 20.5689 228.213 21.9869C229.3 23.4048 230.315 24.8745 231.253 26.3887C232.191 27.9028 233.052 29.4577 233.833 31.057C234.614 32.6527 235.311 34.2853 235.927 35.9475C236.543 37.6098 237.072 39.298 237.516 41.012C237.96 42.7261 238.316 44.455 238.584 46.2061C238.852 47.9535 239.028 49.7083 239.12 51.4742C239.208 53.2364 239.208 55.0023 239.12 56.7645C239.032 58.5304 238.852 60.2852 238.584 62.0326C238.316 63.78 237.96 65.5126 237.516 67.2267C237.075 68.9408 236.543 70.629 235.931 72.2912C235.314 73.9572 234.618 75.5861 233.837 77.1817L219.891 105.732C220.756 106.058 221.594 106.443 222.402 106.891C223.206 107.339 223.976 107.843 224.703 108.398C225.434 108.957 226.115 109.564 226.747 110.223C227.383 110.878 227.964 111.578 228.489 112.318C229.017 113.063 229.48 113.836 229.886 114.647C230.292 115.454 230.633 116.287 230.912 117.146C231.188 118.005 231.394 118.879 231.536 119.767C231.678 120.659 231.75 121.552 231.75 122.451V212.346C231.75 212.935 231.72 213.523 231.662 214.108C231.601 214.693 231.509 215.278 231.391 215.852C231.272 216.429 231.123 217 230.947 217.562C230.77 218.129 230.564 218.68 230.33 219.224C230.101 219.769 229.84 220.298 229.553 220.82C229.266 221.338 228.952 221.842 228.615 222.331C228.275 222.819 227.915 223.293 227.528 223.748C227.141 224.204 226.736 224.637 226.303 225.055C225.874 225.47 225.423 225.866 224.952 226.24C224.485 226.614 223.995 226.962 223.489 227.291C222.984 227.617 222.463 227.921 221.927 228.198C221.392 228.476 220.84 228.728 220.278 228.954C219.719 229.179 219.144 229.376 218.563 229.546C217.981 229.72 217.391 229.861 216.798 229.979C216.201 230.094 215.6 230.179 214.995 230.238C214.386 230.298 213.781 230.327 213.173 230.327H116.558C115.95 230.327 115.345 230.298 114.74 230.238C114.131 230.179 113.53 230.094 112.937 229.979C112.34 229.861 111.75 229.72 111.168 229.546C110.586 229.376 110.012 229.179 109.453 228.954C108.891 228.728 108.339 228.476 107.803 228.198C107.268 227.921 106.747 227.617 106.242 227.291C105.736 226.962 105.246 226.614 104.779 226.24C104.308 225.866 103.857 225.47 103.428 225.055C102.999 224.637 102.59 224.204 102.203 223.748C101.816 223.293 101.456 222.819 101.116 222.331C100.779 221.842 100.465 221.338 100.178 220.82C99.8907 220.298 99.6342 219.769 99.4007 219.224C99.1672 218.68 98.9605 218.129 98.7844 217.562C98.6083 217 98.459 216.429 98.3403 215.852C98.2216 215.278 98.1298 214.693 98.0723 214.108C98.0111 213.523 97.9805 212.935 97.9805 212.346V122.451C97.9805 121.863 98.0111 121.274 98.0723 120.689C98.1298 120.104 98.2216 119.523 98.3403 118.945C98.459 118.368 98.6083 117.798 98.7844 117.235C98.9605 116.672 99.1672 116.117 99.4007 115.573C99.6342 115.032 99.8907 114.499 100.178 113.981C100.465 113.462 100.779 112.955 101.116 112.467C101.456 111.978 101.816 111.504 102.203 111.052C102.59 110.597 102.999 110.16 103.428 109.746C103.857 109.327 104.308 108.935 104.779 108.561C105.246 108.187 105.736 107.835 106.242 107.509C106.747 107.18 107.268 106.88 107.803 106.602C108.339 106.325 108.891 106.073 109.453 105.847C110.012 105.621 110.586 105.421 111.168 105.251C111.75 105.081 112.34 104.936 112.937 104.822C113.53 104.707 114.131 104.618 114.74 104.559C115.345 104.503 115.95 104.474 116.558 104.47H187.643L206.967 64.9166C207.331 64.1725 207.652 63.4098 207.94 62.6324C208.223 61.8586 208.468 61.0701 208.675 60.2704C208.881 59.4708 209.042 58.66 209.168 57.8456C209.291 57.0311 209.371 56.2129 209.413 55.3873C209.452 54.5655 209.452 53.7399 209.41 52.918C209.367 52.0962 209.283 51.278 209.157 50.4598C209.031 49.6454 208.862 48.8383 208.655 48.0386C208.449 47.239 208.2 46.4541 207.913 45.6767C207.626 44.903 207.296 44.1403 206.933 43.3962C206.569 42.6521 206.167 41.9265 205.727 41.2194C205.29 40.5122 204.816 39.8274 204.31 39.1647C203.801 38.5057 203.262 37.8689 202.691 37.2581C202.117 36.6472 201.516 36.066 200.884 35.5107C200.253 34.9591 199.598 34.4371 198.913 33.9447C198.228 33.4523 197.523 32.997 196.792 32.5712C196.061 32.1492 195.311 31.7604 194.541 31.4087L194.549 31.3939ZM105.411 122.451V212.346C105.411 213.057 105.484 213.756 105.625 214.452C105.767 215.148 105.981 215.822 106.261 216.474C106.54 217.129 106.885 217.751 107.29 218.34C107.696 218.928 108.159 219.476 108.676 219.976C109.193 220.476 109.756 220.924 110.364 221.316C110.973 221.709 111.616 222.042 112.294 222.312C112.968 222.586 113.664 222.79 114.384 222.927C115.104 223.067 115.827 223.134 116.558 223.134H213.173C213.904 223.134 214.631 223.067 215.347 222.927C216.067 222.79 216.763 222.586 217.437 222.312C218.115 222.042 218.758 221.709 219.366 221.316C219.975 220.924 220.538 220.476 221.055 219.976C221.571 219.476 222.035 218.928 222.44 218.34C222.85 217.751 223.191 217.129 223.47 216.474C223.754 215.822 223.964 215.148 224.106 214.452C224.247 213.756 224.32 213.057 224.32 212.346V122.451C224.32 121.744 224.247 121.041 224.106 120.345C223.964 119.652 223.754 118.979 223.47 118.323C223.191 117.668 222.85 117.046 222.44 116.457C222.035 115.869 221.571 115.325 221.055 114.825C220.538 114.321 219.975 113.873 219.366 113.481C218.758 113.089 218.115 112.755 217.437 112.485C216.763 112.215 216.067 112.008 215.347 111.871C214.631 111.734 213.904 111.663 213.173 111.663H116.558C115.827 111.663 115.104 111.734 114.384 111.871C113.664 112.008 112.968 112.215 112.294 112.485C111.616 112.755 110.973 113.089 110.364 113.481C109.756 113.873 109.193 114.321 108.676 114.825C108.159 115.325 107.696 115.869 107.29 116.457C106.885 117.046 106.54 117.668 106.261 118.323C105.981 118.979 105.767 119.652 105.625 120.345C105.484 121.041 105.411 121.744 105.411 122.451ZM214.914 43.2333C215.665 45.2324 216.201 47.2834 216.53 49.3862C216.859 51.489 216.97 53.5992 216.863 55.7242C216.76 57.8456 216.442 59.941 215.91 62.003C215.374 64.0651 214.639 66.0568 213.697 67.9782L195.866 104.47H212.284L227.115 74.109C227.758 72.7281 228.332 71.3213 228.833 69.8885C229.339 68.4558 229.767 67.0009 230.124 65.5274C230.483 64.054 230.763 62.5658 230.973 61.0664C231.18 59.5633 231.31 58.0566 231.368 56.5461C231.425 55.0319 231.406 53.5215 231.31 52.0073C231.215 50.4969 231.042 48.9938 230.797 47.4981C230.548 46.0062 230.227 44.5253 229.833 43.0593C229.438 41.5933 228.971 40.1531 228.431 38.7315C227.892 37.3099 227.283 35.9179 226.602 34.5555C225.92 33.1895 225.174 31.8641 224.362 30.5684C223.551 29.2763 222.674 28.025 221.736 26.8107C220.794 25.6001 219.799 24.4377 218.742 23.3196C217.686 22.2016 216.58 21.1391 215.416 20.1247C214.252 19.1103 213.042 18.1552 211.783 17.2556C210.524 16.3559 209.226 15.5193 207.882 14.7418C206.538 13.9644 205.16 13.2536 203.748 12.6057C202.331 11.9578 200.888 11.3803 199.414 10.8657C197.944 10.3548 196.447 9.91426 194.932 9.54405C193.416 9.17384 191.884 8.87396 190.338 8.64443C188.791 8.4186 187.237 8.26312 185.675 8.18537C184.109 8.10392 182.548 8.09652 180.986 8.16316C179.424 8.2261 177.866 8.36678 176.319 8.5778C174.769 8.79252 173.234 9.07758 171.714 9.43298C170.194 9.78839 168.694 10.2178 167.216 10.7139C165.738 11.21 164.291 11.7764 162.867 12.4095C161.447 13.0425 160.061 13.7422 158.71 14.5086C157.362 15.2712 156.053 16.0968 154.786 16.9853C153.515 17.8701 152.298 18.8141 151.122 19.8174C149.951 20.8207 148.829 21.8758 147.765 22.9827C146.697 24.0897 145.687 25.2447 144.737 26.4442C143.784 27.6474 142.896 28.8913 142.069 30.1759C141.246 31.4606 140.484 32.7822 139.791 34.1409L125.321 63.7541L138.899 69.6331L153.213 40.3049C153.917 38.8648 154.725 37.4876 155.64 36.1623C156.551 34.8406 157.561 33.593 158.668 32.412C159.77 31.2347 160.957 30.1426 162.228 29.1319C163.499 28.125 164.842 27.2105 166.251 26.3924C167.66 25.5742 169.126 24.8634 170.646 24.2526C172.162 23.6454 173.72 23.1493 175.316 22.7606C176.909 22.3756 178.524 22.1053 180.159 21.9498C181.797 21.7943 183.436 21.7536 185.078 21.8314C186.72 21.9091 188.347 22.1053 189.959 22.4126C191.57 22.7236 193.151 23.1456 194.698 23.6824C196.245 24.2192 197.745 24.8597 199.196 25.6112C200.647 26.3591 202.029 27.2068 203.35 28.1546C204.67 29.1023 205.914 30.1389 207.078 31.2644C208.238 32.3861 209.31 33.5893 210.29 34.8665C211.27 36.1438 212.147 37.4802 212.924 38.8833C213.701 40.2864 214.363 41.7376 214.918 43.2333H214.914Z" fill="white"/>
</g>
<path d="M109.564 50.9355V32.536C109.564 32.0472 109.655 31.5773 109.843 31.1264C110.027 30.6755 110.291 30.2777 110.633 29.9329C110.976 29.5881 111.371 29.3191 111.819 29.1334C112.266 28.9478 112.733 28.853 113.215 28.853C113.7 28.853 114.167 28.9478 114.615 29.1334C115.062 29.3191 115.458 29.5881 115.8 29.9329C116.143 30.2777 116.406 30.6755 116.59 31.1264C116.775 31.5773 116.869 32.0472 116.869 32.536V50.9355C116.869 51.4243 116.775 51.8941 116.59 52.345C116.406 52.7959 116.143 53.1937 115.8 53.5385C115.458 53.8833 115.062 54.1486 114.615 54.3342C114.167 54.5237 113.7 54.6146 113.215 54.6146C112.733 54.6146 112.266 54.5237 111.819 54.3342C111.371 54.1486 110.976 53.8833 110.633 53.5385C110.291 53.1937 110.027 52.7959 109.843 52.345C109.655 51.8941 109.564 51.4243 109.564 50.9355Z" fill="white"/>
<path d="M89.2754 37.0764L103.885 51.5075C104.058 51.6709 104.213 51.8528 104.352 52.0497C104.491 52.2465 104.608 52.4582 104.702 52.6773C104.8 52.8964 104.871 53.1229 104.92 53.3569C104.969 53.5945 104.995 53.8285 104.999 54.0699C104.999 54.3075 104.98 54.5452 104.931 54.7829C104.886 55.0168 104.818 55.2434 104.728 55.4662C104.634 55.689 104.521 55.897 104.386 56.0975C104.254 56.298 104.1 56.48 103.93 56.6508C103.757 56.8217 103.569 56.9702 103.37 57.1039C103.167 57.2376 102.952 57.349 102.73 57.4381C102.504 57.531 102.275 57.5978 102.034 57.6424C101.797 57.6869 101.556 57.7092 101.315 57.7055C101.071 57.7055 100.834 57.6795 100.597 57.6312C100.356 57.5792 100.127 57.5087 99.9045 57.4158C99.6825 57.3193 99.4718 57.2042 99.2724 57.0705C99.073 56.9331 98.8886 56.7771 98.7193 56.6063L84.1095 42.1789C83.7784 41.8372 83.5225 41.4473 83.3457 41.0091C83.1688 40.5709 83.0823 40.1141 83.0861 39.6425C83.0898 39.1671 83.1839 38.7141 83.3682 38.2759C83.5564 37.8414 83.816 37.4552 84.1546 37.1209C84.4932 36.7867 84.8845 36.5305 85.3248 36.3448C85.765 36.1628 86.2278 36.07 86.7056 36.0663C87.1834 36.0626 87.6462 36.148 88.0902 36.3225C88.5342 36.4971 88.9293 36.7496 89.2754 37.0764Z" fill="white"/>
<mask id="mask2_1063_56" style="mask-type:luminance" maskUnits="userSpaceOnUse" x="75" y="60" width="24" height="10">
<path d="M75.707 60.6548H98.3657V69.1845H75.707V60.6548Z" fill="white"/>
</mask>
<g mask="url(#mask2_1063_56)">
<path d="M97.9805 64.9163C97.9805 65.3939 97.8848 65.8529 97.6972 66.2935C97.5096 66.734 97.2378 67.1227 96.8895 67.4596C96.5411 67.7965 96.1391 68.0557 95.6836 68.2408C95.228 68.4222 94.7572 68.5147 94.2634 68.5147H79.3988C78.9049 68.5147 78.4341 68.4222 77.9785 68.2408C77.523 68.0557 77.121 67.7965 76.7727 67.4596C76.4243 67.1227 76.1563 66.734 75.9649 66.2935C75.7773 65.8529 75.6855 65.3939 75.6816 64.9163C75.6855 64.4387 75.7773 63.9834 75.9649 63.5428C76.1563 63.1023 76.4243 62.7098 76.7727 62.3729C77.121 62.036 77.523 61.7769 77.9785 61.5955C78.4341 61.4141 78.9049 61.3215 79.3988 61.3215H94.2634C94.7572 61.3215 95.228 61.4141 95.6836 61.5955C96.1391 61.7769 96.5411 62.036 96.8895 62.3729C97.2378 62.7098 97.5058 63.1023 97.6972 63.5428C97.8848 63.9834 97.9805 64.4387 97.9805 64.9163Z" fill="white"/>
</g>
</svg>
