<svg width="392" height="556" viewBox="0 0 392 556" fill="none" xmlns="http://www.w3.org/2000/svg">
<g clip-path="url(#clip0_448_4574)">
<path d="M294.1 479.925L343.033 476.839L339.945 428.329L291.011 431.415L290.044 431.394C290.135 445.831 289.966 463.56 289.845 479.866L294.1 479.925Z" fill="#DB885B"/>
<path d="M323.735 331.968L283.131 334.53C285.202 352.745 286.777 369.682 287.758 382.916L334.327 379.978C331.526 365.467 327.845 348.827 323.735 331.968Z" fill="#DB885B"/>
<mask id="mask0_448_4574" style="mask-type:luminance" maskUnits="userSpaceOnUse" x="282" y="472" width="68" height="58">
<path d="M345.947 472.752L282.608 476.747L285.965 529.472L349.304 525.477L345.947 472.752Z" fill="white"/>
</mask>
<g mask="url(#mask0_448_4574)">
<path d="M289.237 520.175C289.198 521.296 289.404 522.375 289.859 523.439C290.283 524.477 290.921 525.392 291.771 526.158C292.594 526.952 293.541 527.52 294.615 527.917C295.689 528.313 296.803 528.461 297.93 528.39L337.956 525.865C339.056 525.796 340.087 525.513 341.05 525.042C342.014 524.572 342.858 523.945 343.579 523.136C344.3 522.326 344.822 521.419 345.17 520.387C345.52 519.382 345.674 518.335 345.605 517.247L343.032 476.84L294.099 479.926L289.844 479.867C289.67 496.204 289.385 511.238 289.237 520.175Z" fill="#C47952"/>
</g>
<path d="M291.01 431.415L339.944 428.329L338.916 412.177C337.979 401.37 336.467 390.627 334.326 379.978L287.757 382.915C288.633 394.081 289.179 402.646 289.466 407.16C289.797 412.354 289.962 421.025 290.043 431.394L291.01 431.415Z" fill="#C47952"/>
<path d="M311.602 284.028L276.386 286.25C279.121 302.321 281.307 318.892 283.131 334.529L323.735 331.968C319.83 315.725 315.604 299.201 311.602 284.028Z" fill="#C47952"/>
<path d="M296.239 227.856C280.468 198.656 266.104 165.954 264.381 141.492C264.156 163.975 260.136 185.797 252.345 206.928C262.992 222.418 270.751 253.243 276.385 286.25L311.601 284.029C305.137 259.674 299.313 238.856 296.249 228.02C296.139 228.026 296.134 227.945 296.239 227.856Z" fill="#E6B269"/>
<path d="M264.263 140.926C199.635 153.275 209.404 306.719 209.404 306.719C226.317 274.529 240.622 241.275 252.346 206.927C260.137 185.796 264.157 163.975 264.382 141.492L264.346 140.921L264.263 140.926Z" fill="#5D802B"/>
<path d="M296.239 227.856C296.161 227.942 296.167 228.024 296.249 228.019C309.496 252.273 324.047 275.762 339.874 298.489C339.874 298.489 330.105 145.045 264.427 140.915L264.344 140.92L264.381 141.491C266.104 165.954 280.47 198.683 296.239 227.856Z" fill="#5D802B"/>
<path d="M186.409 202.65C187.93 238.673 195.603 273.353 209.403 306.718C209.403 306.718 199.633 153.274 264.262 140.926C258.88 141.374 253.547 142.148 248.294 143.298C224.748 148.032 183.835 162.216 186.409 202.65Z" fill="#6CAB46"/>
<path d="M280.568 141.262C275.185 140.81 269.822 140.684 264.427 140.915C330.105 145.045 339.875 298.489 339.875 298.489C349.305 263.659 352.518 228.292 349.485 192.364C346.911 151.93 304.499 143.002 280.568 141.262Z" fill="#6CAB46"/>
<path d="M212.983 105.857C248.58 110.491 260.266 131.022 263.352 138.308C253.448 111.085 238.543 78.9911 202.128 63.6788C151.65 42.51 95.6092 62.2889 95.6092 62.2889C95.6092 62.2889 147.852 66.5289 212.896 105.78C212.899 105.835 212.928 105.86 212.983 105.857Z" fill="#538F2C"/>
<path d="M264.972 138.206C267.31 129.84 277.825 104.688 320.839 97.4976C379.922 49.6251 421.758 41.7172 421.758 41.7172C421.758 41.7172 363.657 29.1377 316.268 56.4794C282.087 76.2446 271.372 109.982 264.972 138.206Z" fill="#538F2C"/>
<mask id="mask1_448_4574" style="mask-type:luminance" maskUnits="userSpaceOnUse" x="92" y="27" width="177" height="126">
<path d="M261.092 27.8262L92.1883 38.4797L99.4683 152.822L268.372 142.168L261.092 27.8262Z" fill="white"/>
</mask>
<g mask="url(#mask1_448_4574)">
<path d="M142.997 34.9477C142.997 34.9477 110.561 40.0786 95.6078 62.2893C95.6078 62.2893 151.649 42.5104 202.127 63.6791C238.541 78.9915 253.447 111.086 263.35 138.308C263.505 138.571 263.634 138.864 263.735 139.158C263.844 139.56 264.035 139.958 264.143 140.36C264.236 140.518 264.246 140.681 264.334 140.758L264.308 140.35C263.603 131.876 253.901 37.5897 171.141 33.5001C168.679 33.4097 166.225 33.4553 163.78 33.6368L142.997 34.9477Z" fill="#7BC24F"/>
</g>
<mask id="mask2_448_4574" style="mask-type:luminance" maskUnits="userSpaceOnUse" x="254" y="17" width="177" height="126">
<path d="M422.957 17.6172L254.054 28.2707L261.334 142.613L430.237 131.959L422.957 17.6172Z" fill="white"/>
</mask>
<g mask="url(#mask2_448_4574)">
<path d="M343.179 22.6495C261.574 37.1337 263.933 131.856 264.31 140.378L264.335 140.758C264.429 140.507 264.494 140.23 264.532 139.954L264.933 138.455C264.9 138.375 264.923 138.292 264.973 138.206C271.373 109.983 282.089 76.2727 316.269 56.4803C363.66 29.1658 421.759 41.7181 421.759 41.7181C404.103 21.4822 371.281 20.5494 371.281 20.5494L350.498 21.8602C348.051 22.0146 345.612 22.2776 343.179 22.6495Z" fill="#7BC24F"/>
</g>
<mask id="mask3_448_4574" style="mask-type:luminance" maskUnits="userSpaceOnUse" x="83" y="121" width="192" height="124">
<path d="M267.041 121.285L83.7049 132.849L90.7962 244.227L274.132 232.663L267.041 121.285Z" fill="white"/>
</mask>
<g mask="url(#mask3_448_4574)">
<path d="M198.079 128.857C124.706 133.485 90.6283 241.153 90.6283 241.153C90.6283 241.153 150.203 148.121 248.043 141.95L248.294 143.299C253.548 142.148 258.881 141.375 264.262 140.927L264.345 140.921C264.339 140.84 264.308 140.787 264.252 140.763C262.983 139.042 251.576 125.483 198.079 128.857Z" fill="#4F9A44"/>
</g>
<mask id="mask4_448_4574" style="mask-type:luminance" maskUnits="userSpaceOnUse" x="260" y="110" width="190" height="124">
<path d="M442.625 110.21L260.004 121.729L267.095 233.107L449.716 221.588L442.625 110.21Z" fill="white"/>
</mask>
<g mask="url(#mask4_448_4574)">
<path d="M328.55 120.626C275.053 124.001 265.429 138.886 264.416 140.752C264.363 140.783 264.339 140.839 264.344 140.92L264.399 140.917C269.794 140.686 275.184 140.81 280.54 141.264L280.619 139.894C378.486 133.721 449.355 218.525 449.355 218.525C449.355 218.525 401.923 115.998 328.55 120.626Z" fill="#4F9A44"/>
</g>
<mask id="mask5_448_4574" style="mask-type:luminance" maskUnits="userSpaceOnUse" x="81" y="93" width="194" height="152">
<path d="M265.27 93.4404L81.9334 105.004L90.7975 244.227L274.134 232.663L265.27 93.4404Z" fill="white"/>
</mask>
<g mask="url(#mask5_448_4574)">
<path d="M198.081 128.856C251.578 125.482 262.985 139.04 264.254 140.762C264.243 140.599 264.156 140.523 264.145 140.36C264.037 139.957 263.846 139.56 263.737 139.157C263.636 138.863 263.507 138.571 263.352 138.307C260.266 131.022 248.581 110.491 212.984 105.856C212.929 105.86 212.9 105.834 212.896 105.78C204.744 104.765 196.588 104.543 188.372 105.116C114.999 109.744 87.5417 192.642 90.6303 241.152C90.6303 241.152 124.708 133.484 198.081 128.856Z" fill="#7BC24F"/>
</g>
<mask id="mask6_448_4574" style="mask-type:luminance" maskUnits="userSpaceOnUse" x="258" y="82" width="192" height="152">
<path d="M440.854 82.3652L258.232 93.884L267.096 233.107L449.718 221.588L440.854 82.3652Z" fill="white"/>
</mask>
<g mask="url(#mask6_448_4574)">
<path d="M264.39 140.754C265.43 138.887 275.026 124.003 328.524 120.628C401.897 116.001 449.357 218.526 449.357 218.526C446.268 170.015 408.517 91.2303 335.144 95.8583C330.333 96.1617 325.565 96.7082 320.841 97.4976C277.827 104.688 267.311 129.84 264.973 138.206C264.922 138.263 264.899 138.347 264.906 138.455L264.503 139.928C264.464 140.176 264.484 140.502 264.39 140.754Z" fill="#7BC24F"/>
</g>
<path d="M323.641 429.357L339.943 428.329L343.032 476.839L326.73 477.868L323.641 429.357Z" fill="#92563A"/>
<path d="M320.04 372.771C318.764 359.228 316.448 345.833 313.096 332.64L323.708 331.97C327.79 348.831 331.471 365.471 334.3 379.98L320.499 380.851L320.04 372.771Z" fill="#92563A"/>
<mask id="mask7_448_4574" style="mask-type:luminance" maskUnits="userSpaceOnUse" x="324" y="472" width="26" height="55">
<path d="M345.947 472.752L324.834 474.084L328.191 526.809L349.304 525.477L345.947 472.752Z" fill="white"/>
</mask>
<g mask="url(#mask7_448_4574)">
<path d="M343.033 476.84L345.606 517.247C345.675 518.335 345.521 519.382 345.171 520.387C344.823 521.419 344.301 522.325 343.579 523.135C342.858 523.945 342.015 524.572 341.051 525.042C340.087 525.512 339.057 525.796 337.957 525.865L329.82 526.378L326.731 477.868L343.033 476.84Z" fill="#6F3529"/>
</g>
<path d="M320.553 380.847L334.326 379.978C336.467 390.627 337.979 401.37 338.916 412.177L339.944 428.329L323.642 429.357L320.553 380.847Z" fill="#6F3529"/>
<path d="M300.056 284.757L311.602 284.028C315.604 299.201 319.83 315.725 323.735 331.968L313.151 332.636C309.281 316.499 304.499 299.492 300.056 284.757Z" fill="#6F3529"/>
<path d="M295.288 269.278C294.353 266.306 293.017 263.524 291.251 260.932C289.513 258.339 287.434 256.04 285.016 254.036C282.599 252.059 279.956 250.424 277.061 249.187C274.167 247.95 271.163 247.156 268.048 246.78C264.942 232.67 259.708 219.404 252.347 206.955C260.137 185.824 264.158 164.002 264.381 141.492C266.106 165.982 280.47 198.683 296.24 227.884C296.163 227.97 296.168 228.052 296.251 228.047C299.314 238.883 305.139 259.701 311.602 284.056L300.056 284.784C298.406 279.237 296.775 273.989 295.288 269.278Z" fill="#BF9259"/>
<mask id="mask8_448_4574" style="mask-type:luminance" maskUnits="userSpaceOnUse" x="193" y="188" width="20" height="58">
<path d="M208.49 188.316L193.7 189.249L197.305 245.863L212.095 244.93L208.49 188.316Z" fill="white"/>
</mask>
<g mask="url(#mask8_448_4574)">
<mask id="mask9_448_4574" style="mask-type:luminance" maskUnits="userSpaceOnUse" x="196" y="188" width="14" height="58">
<path d="M202.805 188.757C196.309 228.481 195.606 242.148 198.446 245.136C199.556 246.103 203.235 245.353 203.235 245.353C203.202 244.836 198.378 244.076 198.345 243.559C198.345 243.559 202.13 244.904 203.657 243.743C208.148 239.282 211.189 195.572 207.695 190.551C206.489 188.525 202.805 188.757 202.805 188.757Z" fill="white"/>
</mask>
<g mask="url(#mask9_448_4574)">
<path d="M227.344 166.242L172.445 169.705L178.698 267.922L233.597 264.459L227.344 166.242Z" fill="#6CAC46"/>
</g>
</g>
<mask id="mask10_448_4574" style="mask-type:luminance" maskUnits="userSpaceOnUse" x="193" y="192" width="18" height="43">
<path d="M207.49 192.557L193.332 193.45L195.966 234.809L210.124 233.916L207.49 192.557Z" fill="white"/>
</mask>
<g mask="url(#mask10_448_4574)">
<mask id="mask11_448_4574" style="mask-type:luminance" maskUnits="userSpaceOnUse" x="195" y="193" width="13" height="42">
<path d="M201.999 193.012C195.42 222.776 194.975 232.25 196.64 233.701C197.745 234.15 201.853 232.335 201.82 231.818C201.82 231.818 196.575 232.668 196.608 233.185C196.64 233.701 199.93 235.077 201.429 233.918C205.497 231.04 209.825 199.317 206.888 194.806C205.743 193.295 201.999 193.012 201.999 193.012Z" fill="white"/>
</mask>
<g mask="url(#mask11_448_4574)">
<path d="M226.539 170.497L171.64 173.96L176.92 256.895L231.819 253.432L226.539 170.497Z" fill="#6CAC46"/>
</g>
</g>
<mask id="mask12_448_4574" style="mask-type:luminance" maskUnits="userSpaceOnUse" x="196" y="181" width="17" height="51">
<path d="M209.424 181.323L196.173 182.159L199.316 231.512L212.566 230.677L209.424 181.323Z" fill="white"/>
</mask>
<g mask="url(#mask12_448_4574)">
<mask id="mask13_448_4574" style="mask-type:luminance" maskUnits="userSpaceOnUse" x="198" y="181" width="12" height="51">
<path d="M205.012 181.82C194.821 213.368 199.696 231.407 200.74 231.341C201.785 231.275 200.09 204.654 202.748 196.105C203.982 190.785 210.101 186.741 209.385 184.165C208.762 182.621 205.012 181.82 205.012 181.82Z" fill="white"/>
</mask>
<g mask="url(#mask13_448_4574)">
<path d="M229.002 159.34L171.491 162.967L177.308 254.332L234.819 250.705L229.002 159.34Z" fill="#6CAC46"/>
</g>
</g>
<mask id="mask14_448_4574" style="mask-type:luminance" maskUnits="userSpaceOnUse" x="196" y="194" width="17" height="49">
<path d="M209.301 194.572L196.05 195.408L199.07 242.831L212.32 241.995L209.301 194.572Z" fill="white"/>
</mask>
<g mask="url(#mask14_448_4574)">
<mask id="mask15_448_4574" style="mask-type:luminance" maskUnits="userSpaceOnUse" x="198" y="194" width="12" height="49">
<path d="M204.248 194.973C197.503 222.126 197.554 239.405 200.36 241.848C201.961 242.293 205.572 240.482 205.539 239.966C205.539 239.966 200.294 240.815 200.327 241.332C200.36 241.848 204.144 243.193 205.123 242.094C208.145 239.283 202.416 216.056 203.999 207.547C204.746 202.804 210.247 197.734 209.102 196.223C208.481 194.706 204.248 194.973 204.248 194.973Z" fill="white"/>
</mask>
<g mask="url(#mask15_448_4574)">
<path d="M228.787 172.458L174.96 175.853L180.64 265.07L234.467 261.675L228.787 172.458Z" fill="#6CAC46"/>
</g>
</g>
<mask id="mask16_448_4574" style="mask-type:luminance" maskUnits="userSpaceOnUse" x="195" y="188" width="23" height="49">
<path d="M214.379 188.9L195.328 190.102L198.302 236.818L217.353 235.616L214.379 188.9Z" fill="white"/>
</mask>
<g mask="url(#mask16_448_4574)">
<mask id="mask17_448_4574" style="mask-type:luminance" maskUnits="userSpaceOnUse" x="198" y="189" width="17" height="48">
<path d="M209.195 189.418C198.933 219.414 196.542 232.151 198.858 235.144C199.996 236.11 203.712 236.394 203.68 235.878L198.79 234.084C198.79 234.084 202.153 237.039 203.19 236.427C207.814 234.061 216.532 196.272 214.083 191.185C212.939 189.701 209.195 189.418 209.195 189.418Z" fill="white"/>
</mask>
<g mask="url(#mask17_448_4574)">
<path d="M233.734 166.903L173.557 170.699L179.182 259.046L239.359 255.25L233.734 166.903Z" fill="#6CAC46"/>
</g>
</g>
<mask id="mask18_448_4574" style="mask-type:luminance" maskUnits="userSpaceOnUse" x="192" y="187" width="19" height="48">
<path d="M207.41 187.839L192.84 188.758L195.757 234.576L210.327 233.657L207.41 187.839Z" fill="white"/>
</mask>
<g mask="url(#mask18_448_4574)">
<mask id="mask19_448_4574" style="mask-type:luminance" maskUnits="userSpaceOnUse" x="195" y="188" width="13" height="47">
<path d="M201.7 188.309C195.254 220.166 194.385 231.223 196.641 233.702C197.78 234.695 201.43 233.919 201.43 233.919C201.397 233.402 196.575 232.669 196.542 232.152C196.542 232.152 200.385 233.984 201.919 233.369C205.953 229.975 209.982 193.547 206.521 189.042C205.378 187.558 201.7 188.309 201.7 188.309Z" fill="white"/>
</mask>
<g mask="url(#mask19_448_4574)">
<path d="M226.238 165.794L171.339 169.257L176.89 256.434L231.789 252.971L226.238 165.794Z" fill="#6CAC46"/>
</g>
</g>
<mask id="mask20_448_4574" style="mask-type:luminance" maskUnits="userSpaceOnUse" x="195" y="167" width="25" height="60">
<path d="M216.176 167.274L195.008 168.61L198.685 226.365L219.853 225.03L216.176 167.274Z" fill="white"/>
</mask>
<g mask="url(#mask20_448_4574)">
<mask id="mask21_448_4574" style="mask-type:luminance" maskUnits="userSpaceOnUse" x="198" y="167" width="19" height="59">
<path d="M210.992 167.792C199.636 205.747 196.882 220.582 199.232 224.119C200.376 225.603 203.57 225.92 203.57 225.92C203.537 225.404 199.165 223.058 199.165 223.058C199.687 223.026 203.015 225.437 204.576 224.819C209.655 221.359 218.986 176.734 215.914 170.103C214.771 168.619 210.992 167.792 210.992 167.792Z" fill="white"/>
</mask>
<g mask="url(#mask21_448_4574)">
<path d="M235.531 145.277L173.265 149.205L179.579 248.374L241.845 244.446L235.531 145.277Z" fill="#6CAC46"/>
</g>
</g>
<mask id="mask22_448_4574" style="mask-type:luminance" maskUnits="userSpaceOnUse" x="191" y="179" width="24" height="51">
<path d="M211.279 179.24L191.431 180.492L194.565 229.71L214.413 228.458L211.279 179.24Z" fill="white"/>
</mask>
<g mask="url(#mask22_448_4574)">
<mask id="mask23_448_4574" style="mask-type:luminance" maskUnits="userSpaceOnUse" x="194" y="179" width="18" height="51">
<path d="M206.446 179.627C194.945 207.08 192.847 223.975 195.197 227.513C196.341 228.997 199.564 229.339 199.564 229.339C200.052 228.763 195.13 226.452 195.13 226.452C195.652 226.419 198.98 228.83 200.509 227.696C203.57 225.92 200.324 208.324 202.464 200.326C204.671 193.362 212.09 185.031 211.368 181.937C210.745 180.393 206.446 179.627 206.446 179.627Z" fill="white"/>
</mask>
<g mask="url(#mask23_448_4574)">
<path d="M230.984 157.111L169.762 160.973L175.547 251.821L236.769 247.96L230.984 157.111Z" fill="#6CAC46"/>
</g>
</g>
</g>
<defs>
<clipPath id="clip0_448_4574">
<rect width="528.872" height="523.142" fill="white" transform="matrix(-0.998017 0.0629494 0.0635403 0.997979 527.824 0)"/>
</clipPath>
</defs>
</svg>
