<svg width="100" height="86" viewBox="0 0 100 86" fill="none" xmlns="http://www.w3.org/2000/svg">
<mask id="mask0_1828_24" style="mask-type:luminance" maskUnits="userSpaceOnUse" x="0" y="0" width="100" height="86">
<path d="M0 0H100V86H0V0Z" fill="white"/>
</mask>
<g mask="url(#mask0_1828_24)">
<path d="M99.9935 42.9896C99.9935 66.7292 77.6133 86 50.0091 86C39.8737 86 30.431 83.3854 22.5404 78.9115C20.6289 80.25 17.8737 81.8854 14.3112 83.1094C11.1497 84.1927 8.45182 84.6198 6.29036 84.7865C7.56641 83.7344 9.0612 82.1719 10.5508 79.9688C12.4518 77.1615 13.3633 74.4792 13.8268 72.6563C5.26953 64.9427 0.00390625 54.5 0.00390625 42.9896C0.00390625 19.25 22.3841 0 50.0091 0C77.6133 0 99.9935 19.25 99.9935 42.9896Z" fill="#68B4E7"/>
</g>
<path d="M28.7242 39.875C29.1044 41.0469 28.4638 42.3073 27.2971 42.6927L24.1044 43.7344L26.0784 46.4635C26.8023 47.4635 26.5784 48.8594 25.5888 49.5885C25.193 49.875 24.7346 50.0104 24.2815 50.0104C23.594 50.0104 22.9169 49.6927 22.4846 49.0938L20.5107 46.3594L18.5367 49.0938C18.1044 49.6927 17.4273 50.0104 16.7398 50.0104C16.2867 50.0104 15.8284 49.875 15.4326 49.5885C14.443 48.8594 14.219 47.4635 14.943 46.4635L16.9169 43.7344L13.7242 42.6927C12.5576 42.3073 11.9169 41.0469 12.2971 39.875C12.6773 38.6979 13.9326 38.0573 15.0992 38.4375L18.2867 39.4792V36.1042C18.2867 34.8698 19.2815 33.8698 20.5107 33.8698C21.7398 33.8698 22.7346 34.8698 22.7346 36.1042V39.4792L25.9273 38.4375C27.094 38.0573 28.344 38.6979 28.7242 39.875ZM54.7346 40.0313C54.7346 41.2656 53.7399 42.2656 52.5107 42.2656H50.1513L49.693 44.776H51.4221C52.6461 44.776 53.6409 45.7813 53.6409 47.0156C53.6409 48.25 52.6461 49.25 51.4221 49.25H48.8753L48.6826 50.276C48.4898 51.3542 47.5523 52.1094 46.5003 52.1094C46.3701 52.1094 46.2346 52.0937 46.0992 52.0729C44.8909 51.849 44.094 50.6823 44.3128 49.4688L44.3544 49.25H41.3857L41.1982 50.276C41.0003 51.3542 40.068 52.1094 39.0159 52.1094C38.8857 52.1094 38.7451 52.0937 38.6096 52.0729C37.4013 51.849 36.6044 50.6823 36.8284 49.4688L36.8701 49.25H35.4221C34.193 49.25 33.2034 48.25 33.2034 47.0156C33.2034 45.7813 34.193 44.776 35.4221 44.776H37.6878L38.1461 42.2656H36.5159C35.2867 42.2656 34.2971 41.2656 34.2971 40.0313C34.2971 38.7969 35.2867 37.7969 36.5159 37.7969H38.9638L39.1565 36.7656C39.3805 35.5573 40.5263 34.75 41.7451 34.974C42.9534 35.1979 43.7503 36.3646 43.5263 37.5781L43.4846 37.7969H46.4482L46.6409 36.7656C46.8596 35.5573 48.0211 34.75 49.2242 34.974C50.4326 35.1979 51.2294 36.3646 51.0107 37.5781L50.969 37.7969H52.5107C53.7399 37.7969 54.7346 38.7969 54.7346 40.0313ZM42.6669 42.2656L42.2086 44.776H45.1721L45.6305 42.2656H42.6669ZM63.2451 44.9219C62.0003 44.9219 61.0263 45.9271 61.0263 47.1563C61.0263 48.3854 62.0003 49.3906 63.2451 49.3906C64.469 49.3906 65.469 48.3854 65.469 47.1563C65.469 45.9271 64.469 44.9219 63.2451 44.9219ZM63.2451 37.099C62.0003 37.099 61.0263 38.1042 61.0263 39.3333C61.0263 40.5625 62.0003 41.5677 63.2451 41.5677C64.469 41.5677 65.469 40.5625 65.469 39.3333C65.469 38.1042 64.469 37.099 63.2451 37.099ZM72.1982 37.1719L73.0003 44.1719C73.2659 46.7656 77.1617 46.7917 77.443 44.1719L78.2503 37.1719C78.5784 32.6719 71.8701 32.6771 72.1982 37.1719ZM75.2242 47.7604C74.0055 47.7604 73.0003 48.7656 73.0003 49.9948C73.0003 51.224 74.0055 52.2344 75.2242 52.2344C76.4482 52.2344 77.4482 51.224 77.4482 49.9948C77.4482 48.7656 76.4482 47.7604 75.2242 47.7604ZM81.8544 37.1719L82.6565 44.1719C82.9273 46.7656 86.8232 46.7917 87.1044 44.1719L87.9065 37.1719C88.2346 32.6719 81.5263 32.6771 81.8544 37.1719ZM84.8701 47.7604C83.6461 47.7604 82.6461 48.7448 82.6461 49.9948C82.6461 51.224 83.6461 52.2344 84.8701 52.2344C86.1149 52.2344 87.094 51.224 87.094 49.9948C87.094 48.7448 86.1149 47.7604 84.8701 47.7604Z" fill="#F6F0E0"/>
</svg>
