<svg width="41" height="45" viewBox="0 0 41 45" fill="none" xmlns="http://www.w3.org/2000/svg">
<path opacity="0.5" fill-rule="evenodd" clip-rule="evenodd" d="M0 22.22C0 9.94824 9.16768 0 20.4766 0C31.7855 0 40.9532 9.94824 40.9532 22.22C40.9532 34.4918 31.7855 44.44 20.4766 44.44C9.16768 44.44 0 34.4918 0 22.22Z" fill="#1F2937"/>
<path fill-rule="evenodd" clip-rule="evenodd" d="M31.3983 22.2024C31.3983 23.0038 31.3231 23.8042 31.1754 24.5843C31.0314 25.3459 30.8181 26.0936 30.5387 26.8084C30.2657 27.5105 29.9271 28.1871 29.5314 28.8181C29.1416 29.4451 28.6925 30.0334 28.1993 30.5696C27.7049 31.1035 27.161 31.5894 26.5835 32.0142C26.0001 32.4406 25.3756 32.8075 24.7282 33.1051C24.0686 33.4068 23.3779 33.6379 22.6767 33.7939C21.9568 33.9546 21.2166 34.0366 20.477 34.0366C19.7368 34.0366 18.9966 33.9546 18.2778 33.7939C17.5755 33.6379 16.8849 33.4068 16.2258 33.1051C15.5784 32.8075 14.9534 32.4406 14.37 32.0142C13.7924 31.5894 13.2485 31.1035 12.7552 30.5696C12.2614 30.0334 11.8124 29.4451 11.422 28.8181C11.0285 28.1871 10.6893 27.5105 10.4152 26.8084C10.1358 26.0936 9.92194 25.3459 9.77742 24.5843C9.63132 23.8042 9.55664 23.0038 9.55664 22.2024C9.55664 21.4004 9.63127 20.5983 9.77746 19.8199C9.92198 19.0583 10.1358 18.3094 10.4153 17.5958C10.6893 16.8932 11.0285 16.216 11.4221 15.5849C11.8124 14.9574 12.2615 14.3703 12.7553 13.8335C13.2486 13.2995 13.7925 12.8148 14.37 12.3906C14.9534 11.9624 15.5784 11.5955 16.2258 11.2973C16.8849 10.9951 17.5755 10.7634 18.2778 10.6086C18.9967 10.4491 19.7369 10.3682 20.477 10.3682C21.2167 10.3682 21.9568 10.4491 22.6767 10.6086C23.378 10.7634 24.0686 10.9951 24.7283 11.2973C25.3756 11.5955 26.0001 11.9624 26.5835 12.3906C27.161 12.8148 27.705 13.2995 28.1993 13.8335C28.6926 14.3703 29.1416 14.9574 29.5314 15.5849C29.9271 16.216 30.2657 16.8932 30.5387 17.5958C30.8181 18.3094 31.0314 19.0583 31.1754 19.8199C31.3231 20.5983 31.3983 21.4004 31.3983 22.2024ZM16.4977 13.0615C13.8969 14.3923 11.9558 16.9891 11.3505 20.1187C11.5964 20.121 15.4829 20.1742 19.9607 18.885C18.3465 15.7773 16.6219 13.2412 16.4977 13.0615ZM20.7334 20.4412C15.9313 21.999 11.3233 21.8869 11.158 21.88C11.1553 21.9886 11.1505 22.0937 11.1505 22.2024C11.1505 24.7986 12.0544 27.1654 13.5401 28.9551C13.5369 28.9498 16.0892 24.0434 21.1222 22.2798C21.2438 22.2359 21.3675 22.1966 21.4901 22.1585C21.2561 21.5841 21.0006 21.0086 20.7334 20.4412ZM26.6363 14.6176C24.9943 13.0488 22.8383 12.0971 20.477 12.0971C19.7192 12.0971 18.9838 12.1965 18.2793 12.3802C18.419 12.5837 20.1709 15.1019 21.7659 18.2753C25.2849 16.8458 26.6133 14.6546 26.6363 14.6176ZM22.1259 23.8331C22.1051 23.8405 22.0843 23.847 22.064 23.855C16.5613 25.9337 14.7643 30.1228 14.7448 30.1685C16.3282 31.5027 18.3141 32.3077 20.477 32.3077C21.7686 32.3077 22.9988 32.0227 24.1181 31.5068C23.98 30.6239 23.4382 27.5289 22.1259 23.8331ZM25.6886 30.5834C27.7828 29.0522 29.27 26.6206 29.6849 23.8041C29.493 23.7371 26.8837 22.842 23.8733 23.365C25.0966 27.0077 25.5937 29.9744 25.6886 30.5834ZM22.4837 19.7812C22.7002 20.2632 22.9098 20.7537 23.1034 21.2466C23.1722 21.4235 23.2394 21.5968 23.3049 21.7702C26.5088 21.3333 29.6653 22.0683 29.8002 22.0983C29.7789 19.7026 28.988 17.5039 27.6794 15.7826C27.6618 15.8097 26.166 18.1517 22.4837 19.7812Z" fill="white"/>
</svg>
