<svg width="185" height="24" viewBox="0 0 185 24" fill="none" xmlns="http://www.w3.org/2000/svg">
<path d="M0.380938 19V2.248H11.4929V5.2H3.98094V9.04H10.7009V11.992H3.98094V19H0.380938ZM24.5396 19C23.8036 19 23.2116 18.816 22.7636 18.448C22.3156 18.064 22.0516 17.52 21.9716 16.816H21.8516C21.6276 17.632 21.1796 18.248 20.5076 18.664C19.8516 19.08 19.0436 19.288 18.0836 19.288C16.8836 19.288 15.9156 18.968 15.1796 18.328C14.4596 17.672 14.0996 16.76 14.0996 15.592C14.0996 14.296 14.5716 13.336 15.5156 12.712C16.4596 12.088 17.8436 11.776 19.6676 11.776H21.6596V11.152C21.6596 10.416 21.4836 9.864 21.1316 9.496C20.7956 9.112 20.2196 8.92 19.4036 8.92C18.6516 8.92 18.0436 9.064 17.5796 9.352C17.1156 9.64 16.7156 10.016 16.3796 10.48L14.4356 8.752C14.8516 8.048 15.4996 7.472 16.3796 7.024C17.2756 6.56 18.4196 6.328 19.8116 6.328C21.5076 6.328 22.8276 6.72 23.7716 7.504C24.7316 8.272 25.2116 9.44 25.2116 11.008V16.432H26.5796V19H24.5396ZM19.4276 16.96C20.0516 16.96 20.5796 16.808 21.0116 16.504C21.4436 16.2 21.6596 15.76 21.6596 15.184V13.696H19.7636C18.3076 13.696 17.5796 14.184 17.5796 15.16V15.64C17.5796 16.072 17.7476 16.4 18.0836 16.624C18.4196 16.848 18.8676 16.96 19.4276 16.96ZM27.9622 19V6.616H30.8182V8.44H30.9862C31.1782 7.864 31.4502 7.368 31.8022 6.952C32.1702 6.536 32.6822 6.328 33.3382 6.328C34.5382 6.328 35.2742 7.032 35.5462 8.44H35.6902C35.7862 8.152 35.9062 7.88 36.0502 7.624C36.1942 7.368 36.3702 7.144 36.5782 6.952C36.7862 6.76 37.0342 6.608 37.3222 6.496C37.6102 6.384 37.9462 6.328 38.3302 6.328C40.0582 6.328 40.9222 7.6 40.9222 10.144V19H38.0662V10.504C38.0662 9.928 37.9622 9.528 37.7542 9.304C37.5622 9.064 37.3062 8.944 36.9862 8.944C36.6822 8.944 36.4182 9.048 36.1942 9.256C35.9862 9.448 35.8822 9.752 35.8822 10.168V19H33.0022V10.504C33.0022 9.928 32.9062 9.528 32.7142 9.304C32.5382 9.064 32.2902 8.944 31.9702 8.944C31.6502 8.944 31.3782 9.048 31.1542 9.256C30.9302 9.448 30.8182 9.752 30.8182 10.168V19H27.9622ZM49.6008 5.032C48.8008 5.032 48.2408 4.872 47.9208 4.552C47.6168 4.216 47.4648 3.816 47.4648 3.352V2.656C47.4648 2.176 47.6168 1.776 47.9208 1.456C48.2408 1.136 48.8008 0.975999 49.6008 0.975999C50.4008 0.975999 50.9528 1.136 51.2568 1.456C51.5768 1.776 51.7368 2.176 51.7368 2.656V3.352C51.7368 3.816 51.5768 4.216 51.2568 4.552C50.9528 4.872 50.4008 5.032 49.6008 5.032ZM43.8888 16.24H47.8248V9.376H43.8888V6.616H51.3768V16.24H55.0248V19H43.8888V16.24ZM57.6554 16.24H61.4474V4H57.6554V1.24H64.9994V16.24H68.7914V19H57.6554V16.24ZM80.7341 6.616H84.3581L78.5261 20.992C78.1581 21.904 77.6701 22.6 77.0621 23.08C76.4541 23.56 75.6221 23.8 74.5661 23.8H72.1181V21.04H75.0941L75.8621 18.928L70.8701 6.616H74.6861L76.4861 11.824L77.6141 15.424H77.8061L78.8861 11.824L80.7341 6.616Z" fill="white"/>
<path d="M106.131 19.288C104.723 19.288 103.499 19.056 102.459 18.592C101.419 18.128 100.579 17.496 99.9393 16.696L102.027 14.392C102.635 15.064 103.299 15.56 104.019 15.88C104.755 16.2 105.499 16.36 106.251 16.36C107.115 16.36 107.771 16.168 108.219 15.784C108.667 15.4 108.891 14.848 108.891 14.128C108.891 13.536 108.715 13.088 108.363 12.784C108.027 12.48 107.451 12.264 106.635 12.136L104.883 11.848C103.379 11.592 102.291 11.04 101.619 10.192C100.947 9.328 100.611 8.28 100.611 7.048C100.611 5.432 101.139 4.184 102.195 3.304C103.251 2.408 104.731 1.96 106.635 1.96C107.931 1.96 109.059 2.16 110.019 2.56C110.979 2.96 111.755 3.504 112.347 4.192L110.307 6.472C109.859 5.976 109.331 5.592 108.723 5.32C108.115 5.032 107.427 4.888 106.659 4.888C105.043 4.888 104.235 5.552 104.235 6.88C104.235 7.456 104.411 7.888 104.763 8.176C105.131 8.464 105.723 8.68 106.539 8.824L108.291 9.136C109.651 9.376 110.699 9.888 111.435 10.672C112.171 11.456 112.539 12.512 112.539 13.84C112.539 14.624 112.403 15.352 112.131 16.024C111.859 16.68 111.451 17.256 110.907 17.752C110.363 18.232 109.691 18.608 108.891 18.88C108.107 19.152 107.187 19.288 106.131 19.288ZM115.146 1.24H118.698V8.872H118.842C118.986 8.52 119.162 8.192 119.37 7.888C119.578 7.584 119.826 7.32 120.114 7.096C120.418 6.856 120.762 6.672 121.146 6.544C121.546 6.4 121.994 6.328 122.49 6.328C123.082 6.328 123.626 6.432 124.122 6.64C124.618 6.832 125.042 7.128 125.394 7.528C125.746 7.928 126.018 8.416 126.21 8.992C126.418 9.568 126.522 10.232 126.522 10.984V19H122.97V11.464C122.97 9.864 122.274 9.064 120.882 9.064C120.61 9.064 120.338 9.104 120.066 9.184C119.81 9.248 119.578 9.36 119.37 9.52C119.162 9.664 118.994 9.848 118.866 10.072C118.754 10.296 118.698 10.56 118.698 10.864V19H115.146V1.24ZM135.945 5.032C135.145 5.032 134.585 4.872 134.265 4.552C133.961 4.216 133.809 3.816 133.809 3.352V2.656C133.809 2.176 133.961 1.776 134.265 1.456C134.585 1.136 135.145 0.975999 135.945 0.975999C136.745 0.975999 137.297 1.136 137.601 1.456C137.921 1.776 138.081 2.176 138.081 2.656V3.352C138.081 3.816 137.921 4.216 137.601 4.552C137.297 4.872 136.745 5.032 135.945 5.032ZM130.233 16.24H134.169V9.376H130.233V6.616H137.721V16.24H141.369V19H130.233V16.24ZM149.903 19.288C147.823 19.288 146.247 18.712 145.175 17.56C144.103 16.408 143.567 14.84 143.567 12.856C143.567 11.848 143.703 10.944 143.975 10.144C144.263 9.328 144.663 8.64 145.175 8.08C145.703 7.504 146.335 7.072 147.071 6.784C147.823 6.48 148.663 6.328 149.591 6.328C150.519 6.328 151.351 6.48 152.087 6.784C152.823 7.072 153.447 7.488 153.959 8.032C154.471 8.576 154.863 9.24 155.135 10.024C155.423 10.792 155.567 11.656 155.567 12.616V13.672H147.095V13.888C147.095 14.688 147.343 15.336 147.839 15.832C148.335 16.312 149.063 16.552 150.023 16.552C150.759 16.552 151.391 16.416 151.919 16.144C152.447 15.856 152.903 15.48 153.287 15.016L155.207 17.104C154.727 17.696 154.055 18.208 153.191 18.64C152.327 19.072 151.231 19.288 149.903 19.288ZM149.615 8.872C148.847 8.872 148.231 9.112 147.767 9.592C147.319 10.056 147.095 10.688 147.095 11.488V11.68H152.087V11.488C152.087 10.672 151.863 10.032 151.415 9.568C150.983 9.104 150.383 8.872 149.615 8.872ZM158.39 16.24H162.182V4H158.39V1.24H165.734V16.24H169.526V19H158.39V16.24ZM180.58 16.744H180.412C180.092 17.496 179.644 18.112 179.068 18.592C178.508 19.056 177.732 19.288 176.74 19.288C176.052 19.288 175.42 19.16 174.844 18.904C174.284 18.648 173.796 18.256 173.38 17.728C172.98 17.2 172.66 16.528 172.42 15.712C172.196 14.896 172.084 13.928 172.084 12.808C172.084 11.688 172.196 10.72 172.42 9.904C172.66 9.088 172.98 8.416 173.38 7.888C173.796 7.36 174.284 6.968 174.844 6.712C175.42 6.456 176.052 6.328 176.74 6.328C177.236 6.328 177.676 6.392 178.06 6.52C178.444 6.648 178.78 6.824 179.068 7.048C179.372 7.272 179.628 7.544 179.836 7.864C180.06 8.168 180.252 8.504 180.412 8.872H180.58V1.24H184.132V19H180.58V16.744ZM178.276 16.528C178.9 16.528 179.436 16.376 179.884 16.072C180.348 15.768 180.58 15.288 180.58 14.632V10.984C180.58 10.328 180.348 9.848 179.884 9.544C179.436 9.24 178.9 9.088 178.276 9.088C177.476 9.088 176.86 9.336 176.428 9.832C175.996 10.312 175.78 10.984 175.78 11.848V13.768C175.78 14.632 175.996 15.312 176.428 15.808C176.86 16.288 177.476 16.528 178.276 16.528Z" fill="#FF6F00"/>
</svg>
