<svg width="3250" height="1026" viewBox="0 0 3250 1026" fill="none" xmlns="http://www.w3.org/2000/svg">
<mask id="mask0_29_29" style="mask-type:luminance" maskUnits="userSpaceOnUse" x="0" y="125" width="3250" height="901">
<path d="M0 125.613H3250V1025.25H0V125.613Z" fill="white"/>
</mask>
<g mask="url(#mask0_29_29)">
<path d="M3246.85 169.768C3246.85 145.293 3234.46 125.531 3219.43 126.247C2976.2 137.603 2967.08 299.726 2706.23 299.726C2435.91 299.726 2435.91 125.613 2165.6 125.613C1895.29 125.613 1895.29 299.726 1624.98 299.726C1354.67 299.726 1354.67 125.613 1084.37 125.613C814.057 125.613 814.057 299.726 543.766 299.726C282.919 299.726 273.779 137.603 30.5703 126.247C15.5391 125.531 3.14844 145.293 3.14844 169.768V981.732C3.14844 1005.77 15.1159 1025.25 29.8763 1025.25H3220.12C3234.88 1025.25 3246.85 1005.77 3246.85 981.732V169.768Z" fill="#2991E1"/>
</g>
<path d="M1646.89 304.644C1642.47 305.358 1638.54 306.129 1634.58 306.507C1631.62 306.789 1628.62 306.563 1624.51 306.563C1625.47 304.313 1625.92 302.775 1626.73 301.436C1630.75 294.78 1634.87 288.182 1638.94 281.553C1640.66 278.747 1642.45 275.971 1644 273.077C1644.99 271.227 1645.91 269.247 1646.33 267.223C1650.69 246.261 1655 225.289 1659.19 204.294C1660.13 199.584 1660.83 194.792 1661.13 190.009C1662.44 169.628 1664.88 149.385 1668.19 129.217C1669.15 123.344 1669.15 117.327 1669.64 111.379C1670 106.971 1670.58 102.574 1670.77 98.161C1670.93 94.606 1672.88 92.52 1675.88 90.9141C1683.57 86.7986 1692.14 85.5674 1700.57 83.9337C1713.69 81.3902 1726.46 82.174 1738.72 87.888C1745.21 90.9116 1751.92 93.4938 1758.49 96.3724C1765.48 99.4359 1770.01 104.657 1772.19 111.678C1777.99 130.379 1779.08 149.134 1772.83 167.995C1769.18 179.011 1766.07 190.2 1762.14 201.12C1756.72 216.172 1747.32 229.306 1739.29 243.084C1733.88 252.347 1728.51 261.716 1720.19 268.918C1715.75 272.762 1710.79 276.096 1705.86 279.376C1693.22 287.789 1678.92 292.984 1664.79 298.471C1659.07 300.692 1653.19 302.523 1646.89 304.644ZM1744.29 98.7304C1728.77 92.4603 1712.54 90.8503 1695.96 92.3885C1690.04 92.9377 1683.98 93.661 1678.94 97.3815C1673.33 101.524 1672.78 107.616 1677.89 112.176C1679.77 113.86 1682 115.266 1684.25 116.489C1697.74 123.809 1712.44 127.338 1727.69 128.973C1731.25 129.354 1735 129.647 1738.46 128.989C1743.93 127.948 1749.22 126.021 1754.61 124.56C1759.85 123.139 1762.88 119.665 1763.55 114.724C1764.19 109.975 1761.2 106.667 1757.08 104.509C1753.22 102.481 1749.15 100.809 1744.29 98.7304Z" fill="#238DCE"/>
<path d="M1560.46 241.326C1561.81 249.432 1562.95 257.047 1564.26 264.634C1566.02 274.838 1570.65 284.076 1574.96 293.417C1575.77 295.179 1576.53 296.966 1577.23 298.773C1578.96 303.284 1575.79 307.019 1570.73 306.344C1569.37 306.161 1567.94 305.726 1566.77 305.046C1551.83 296.384 1536.53 288.226 1522.11 278.809C1501.81 265.542 1488.37 246.575 1478.22 225.428C1470.12 208.565 1464.5 190.877 1460.76 172.647C1460.57 171.703 1460.26 170.777 1460.12 169.828C1459.12 162.794 1460.01 161.071 1466.72 157.983C1479.8 151.963 1493.32 146.971 1507.72 145.003C1514.6 144.061 1521.73 144.438 1528.72 144.696C1532.71 144.843 1535.66 147.442 1538.16 150.36C1543.6 156.72 1547.37 163.919 1549.71 171.803C1552.23 180.346 1553.59 189.041 1554.36 197.939C1555.33 209.228 1557.57 220.415 1559.22 231.651C1559.67 234.697 1559.95 237.765 1560.46 241.326ZM1529.7 163.199C1529.13 156.17 1524.34 151.783 1516.85 151.413C1506.95 150.925 1497.33 152.479 1487.85 155.123C1484.1 156.17 1480.97 158.103 1478.4 160.955C1472.42 167.568 1475.16 176.622 1483.86 179.278C1488.79 180.785 1493.34 179.3 1497.89 177.997C1505.93 175.69 1513.9 173.141 1521.9 170.703C1525.5 169.608 1528.49 167.868 1529.7 163.199Z" fill="#238DCE"/>
<path d="M1624.65 10.3265C1638.01 2.49312 1651.65 4.36554 1665.24 7.8621C1667.46 8.43224 1669.63 10.6305 1670.98 12.6073C1676.27 20.3595 1678.65 29.2392 1679.45 38.2839C1680.37 48.6412 1680.1 59.0918 1680.54 69.4943C1680.69 72.9108 1679.41 74.9674 1676.06 76.036C1674.16 76.6407 1672.37 77.5442 1670.52 78.2963C1661.23 82.0779 1656.48 88.7211 1656.34 98.5209C1656.23 106.418 1656.03 114.328 1655.42 122.2C1654.83 129.875 1653.67 137.508 1652.78 145.161C1651.95 152.236 1651.19 159.317 1650.32 166.386C1650.1 168.172 1649.55 169.921 1649.01 172.371C1645.62 170.21 1643.09 168.358 1640.33 166.902C1637.71 165.518 1634.95 164.088 1632.08 163.508C1627.92 162.672 1625.76 160.376 1624.99 156.665C1623.82 151.008 1622.54 145.352 1621.79 139.636C1619.92 125.308 1618 110.999 1617.61 96.5063C1617.37 87.4999 1615.71 78.5301 1614.73 69.5393C1614.54 67.8172 1614.5 66.074 1614.5 64.3404C1614.48 51.9683 1614.93 39.5759 1614.33 27.2314C1613.93 19.1919 1616.79 13.8185 1624.65 10.3265ZM1636.6 11.7292C1633.5 13.0031 1629.99 13.7475 1627.39 15.6532C1620.46 20.7367 1621.98 28.9107 1630.11 32.0052C1638.22 35.0929 1646.24 34.328 1654.06 31.1546C1658.06 29.5343 1660.51 26.3282 1660.64 22.1638C1660.77 17.9978 1658.5 14.7414 1654.6 12.8883C1652.67 11.9733 1650.47 11.2412 1648.35 11.1191C1644.77 10.9127 1641.16 11.2567 1636.6 11.7292Z" fill="#238DCE"/>
<path d="M1535.86 60.5557C1547.18 56.8246 1558.29 54.3253 1569.88 55.1619C1577.65 55.7229 1585.42 56.5108 1593.13 57.6305C1597.55 58.273 1600.9 60.5537 1601.34 65.5135C1601.86 71.4404 1602.68 77.3426 1603.27 83.2645C1605.44 104.892 1607.51 126.529 1609.73 148.15C1610.2 152.715 1611.18 157.231 1612.03 162.409C1609.76 162.927 1607.74 163.609 1605.67 163.818C1599.9 164.398 1594.01 164.297 1588.36 165.381C1582.75 166.459 1577.33 168.565 1571.89 170.401C1569.86 171.088 1568.01 172.285 1565.37 173.602C1564.35 171.455 1563.28 169.688 1562.65 167.787C1559.11 157.198 1554.22 147.368 1546.11 139.229C1545.16 138.269 1544.15 137.101 1543.82 135.867C1542.16 129.708 1537.69 125.221 1534.41 120.006C1531.39 115.226 1530.12 109.297 1528.79 103.718C1527.81 99.6465 1527.8 95.3265 1527.68 91.1091C1527.52 84.9327 1527.56 78.7477 1527.67 72.5689C1527.76 67.1681 1529.71 62.768 1535.86 60.5557ZM1584.8 63.8713C1575.97 60.4834 1566.88 60.4716 1557.75 62.2109C1551.55 63.3909 1546.15 66.4515 1541.22 70.1164C1536.9 73.3264 1537.08 78.8459 1541.57 81.869C1543.29 83.0259 1545.55 83.8204 1547.64 84.0139C1554.56 84.6547 1561.5 85.3592 1568.45 83.9699C1575.12 82.6382 1581.9 81.6221 1587.34 77.2525C1591.85 73.6304 1592.01 70.002 1588.02 65.985C1587.34 65.3027 1586.44 64.8245 1584.8 63.8713Z" fill="#238DCE"/>
<path d="M1747.26 303.626C1739.07 304.718 1731.36 306.007 1723.61 306.467C1715.8 306.931 1707.93 306.631 1700.09 306.531C1697.77 306.502 1695.46 306.018 1693.41 305.774C1692.58 302.706 1694.67 302.168 1696.12 301.31C1703.3 297.056 1710.5 292.835 1717.74 288.657C1726.32 283.697 1733.28 277.099 1738.85 269.161C1752.02 250.383 1763.56 230.698 1772.79 209.858C1776.23 202.089 1778.39 193.784 1780.93 185.664C1783.05 178.921 1783.81 178.196 1790.88 178.099C1808.11 177.863 1821.2 189.421 1823.25 206.011C1825.19 221.64 1822.68 236.31 1814.89 250.167C1812.6 254.244 1810.44 258.402 1808.44 262.619C1802.25 275.676 1792.13 285.12 1778.86 291.163C1768.73 295.772 1758.12 299.397 1747.26 303.626ZM1805.39 187.332C1801.66 183.336 1797.07 181.691 1791.48 182.279C1787.56 182.691 1785.03 184.666 1784.34 188.217C1782.96 195.38 1783.37 202.488 1788.33 208.392C1793.75 214.84 1800.5 217.18 1809.16 213.943C1816.56 211.175 1818.45 206.356 1814.4 199.881C1811.83 195.767 1808.81 191.908 1805.39 187.332Z" fill="#238DCE"/>
<path d="M1628.28 175.732C1631.51 177.381 1634.43 178.72 1636.99 180.532C1640.4 182.948 1642.04 186.266 1641.95 190.537C1641.77 199.61 1642.71 208.767 1641.75 217.748C1639.35 240.332 1633.7 262.194 1622.55 282.4C1618.68 289.413 1613.99 296.052 1605.86 299.278C1603.11 300.369 1600.19 301.068 1596.78 302.122C1595.07 299.906 1593.13 297.947 1591.84 295.65C1581.69 277.586 1576.32 258.209 1574.21 237.808C1573.19 227.866 1570.89 218.044 1569.19 208.167C1568.82 206.077 1568.79 203.887 1568.09 201.908C1567.04 198.905 1568.29 196.857 1570.02 194.516C1571.45 192.577 1572.58 190.145 1572.89 187.813C1573.3 184.803 1574.48 182.483 1577.23 181.375C1581.44 179.679 1585.74 177.767 1590.19 177.124C1597.49 176.067 1604.96 176.068 1612.34 175.402C1617.52 174.933 1622.67 173.995 1628.28 175.732ZM1598.19 207.106C1603.2 206.995 1608.24 207.14 1613.23 206.718C1623.75 205.827 1629.49 205.154 1628.96 190.095C1628.94 189.516 1628.96 188.933 1628.89 188.359C1628.34 183.469 1625.43 180.521 1620.23 180.513C1613.24 180.503 1606.2 180.639 1599.26 181.365C1589.53 182.382 1585.24 186.797 1583.77 196.159C1582.81 202.264 1586.54 206.79 1592.83 207.094C1594.23 207.162 1595.64 207.106 1598.19 207.106Z" fill="#238DCE"/>
<path d="M1461.18 116.337C1456.18 103.473 1455.59 90.3072 1453.66 77.3544C1452.05 66.5197 1453.38 55.7978 1454.22 45.0721C1454.56 40.7526 1456.12 36.3934 1457.85 32.3363C1459.86 27.5936 1464.14 25.098 1469.25 23.6857C1476.76 21.6103 1484.42 22.6896 1492.01 22.2566C1503.14 21.6218 1511.06 26.6708 1516.24 35.48C1518.74 39.7254 1519.72 44.8555 1520.96 49.6872C1521.25 50.816 1520 52.5051 1519.1 53.6877C1515.17 58.8617 1513.33 64.7226 1513.04 70.9985C1512.26 87.4433 1512.41 103.826 1517.75 119.732C1518.97 123.351 1520.21 126.961 1521.63 131.145C1516.88 131.47 1512.75 131.762 1508.61 132.035C1497.88 132.744 1487.96 136.603 1477.8 139.486C1476.83 139.758 1475.9 140.133 1474.94 140.386C1471.28 141.341 1470.47 140.951 1469.11 137.413C1466.49 130.544 1463.9 123.658 1461.18 116.337ZM1472.92 26.9938C1472.36 27.1854 1471.77 27.3341 1471.23 27.5751C1467.16 29.3852 1463.94 32.2019 1463.91 36.6361C1463.89 40.9801 1466.71 44.1962 1470.8 46.0497C1473.86 47.4404 1477.06 48.5671 1480.25 49.6993C1488.51 52.6382 1495.16 50.7702 1500.35 44.1294C1504.55 38.7441 1503.88 33.6272 1498.23 29.6608C1496.65 28.5534 1494.75 27.6758 1492.86 27.208C1486.6 25.6581 1480.26 25.4037 1472.92 26.9938Z" fill="#238DCE"/>
<path d="M1828.89 93.1593C1828.49 106.864 1826.12 119.759 1823.69 132.648C1821.64 143.493 1818.84 154.124 1814.23 164.255C1813.59 165.651 1812.87 167.012 1812.24 168.287C1805.41 166.967 1798.82 165.596 1792.2 164.461C1789.25 163.956 1788.32 163.008 1788.77 159.846C1789.74 152.987 1790.21 146.044 1790.54 139.12C1791.18 125.74 1787.32 113.123 1782.6 100.781C1780.24 94.6014 1775.31 90.2304 1769.18 87.2297C1765.78 85.564 1762.42 83.7978 1758.93 82.3245C1755.66 80.9408 1754.58 78.8804 1755.14 75.4527C1756.55 66.8979 1757.71 58.3053 1758.86 49.7146C1759.5 44.919 1762.22 41.8404 1767 40.7785C1772.84 39.4808 1778.73 38.1549 1784.67 37.5941C1790.59 37.0365 1796.59 37.3903 1802.56 37.3867C1806.8 37.3841 1810.53 38.8817 1813.3 41.874C1817.43 46.3287 1821.44 50.9065 1825.12 55.7078C1827.76 59.1648 1828.97 63.2385 1828.9 67.6854C1828.77 75.987 1828.89 84.2924 1828.89 93.1593ZM1812.77 65.5527C1816.57 59.1435 1815.35 54.2986 1808.94 50.6605C1807.74 49.9816 1806.46 49.3111 1805.12 49.0164C1798.14 47.4753 1791.18 45.7453 1784.11 44.6927C1778.34 43.8332 1774.21 46.4321 1772.62 50.8662C1770.9 55.6643 1772.61 61.4563 1777.17 64.1142C1788.37 70.6479 1800.12 70.7907 1812.77 65.5527Z" fill="#238DCE"/>
<path d="M1746.52 7.81613C1752.79 11.4583 1758.42 15.0248 1760.6 21.9358C1762.17 26.9047 1762.29 27.3277 1757.52 29.4841C1750.77 32.5443 1747.04 37.775 1745.9 44.6467C1745.09 49.5712 1745.01 54.6038 1744.39 59.564C1743.79 64.4287 1744.21 69.5557 1741.03 74.1892C1738.57 73.5623 1736.24 73.1184 1734.01 72.3725C1724.07 69.0393 1713.95 69.3426 1703.75 70.8561C1703.16 70.9442 1702.55 70.9774 1701.96 71.0322C1695.68 71.607 1694.84 71.0567 1694.99 64.9933C1695.39 49.6862 1693.74 34.6513 1689.65 19.8253C1688.98 17.4096 1689.81 14.5744 1690.14 11.9562C1690.33 10.4507 1691.01 9.00901 1691.31 7.50873C1692.16 3.23461 1694.24 0.889076 1698.82 0.69044C1709.21 0.239206 1719.72 -1.00084 1729.94 1.61776C1735.49 3.04171 1740.74 5.5781 1746.52 7.81613ZM1717.59 27.215C1722.86 28.2855 1728.08 29.742 1733.4 30.3229C1739.27 30.9632 1743.12 27.9047 1744.87 22.2669C1746.18 18.0328 1744.24 14.1396 1739.36 11.3738C1738.33 10.7903 1737.23 10.2611 1736.09 9.93372C1729.38 8.0067 1722.69 5.97707 1715.9 4.35413C1713.44 3.76707 1710.64 3.80949 1708.13 4.25513C1700.85 5.54942 1696.48 12.1026 1702.32 18.863C1703.56 20.2962 1705.24 21.5017 1706.95 22.4041C1710.11 24.0697 1713.44 25.4334 1717.59 27.215Z" fill="#238DCE"/>
<path d="M577.842 305.397C574.264 305.928 571.091 306.5 567.885 306.78C565.499 306.99 563.069 306.822 559.743 306.822C560.52 305.151 560.888 304.01 561.541 303.015C564.791 298.074 568.122 293.175 571.41 288.254C572.803 286.17 574.252 284.109 575.506 281.961C576.307 280.587 577.049 279.117 577.39 277.615C580.916 262.052 584.399 246.481 587.783 230.894C588.542 227.397 589.108 223.84 589.356 220.288C590.414 205.157 592.389 190.128 595.061 175.154C595.839 170.794 595.841 166.326 596.233 161.91C596.523 158.638 596.995 155.374 597.15 152.097C597.275 149.458 598.857 147.909 601.283 146.717C607.498 143.661 614.43 142.747 621.242 141.534C631.849 139.646 642.172 140.228 652.089 144.47C657.337 146.715 662.763 148.632 668.071 150.769C673.72 153.044 677.384 156.92 679.145 162.133C683.836 176.017 684.722 189.941 679.666 203.945C676.713 212.123 674.197 220.43 671.02 228.537C666.641 239.712 659.043 249.464 652.543 259.693C648.174 266.57 643.835 273.526 637.103 278.873C633.511 281.727 629.506 284.203 625.522 286.637C615.299 292.883 603.737 296.741 592.315 300.814C587.69 302.464 582.931 303.822 577.842 305.397ZM656.587 152.52C644.04 147.865 630.92 146.669 617.514 147.811C612.729 148.219 607.825 148.756 603.752 151.518C599.216 154.594 598.769 159.117 602.902 162.502C604.428 163.752 606.225 164.797 608.046 165.704C618.952 171.139 630.841 173.759 643.171 174.973C646.049 175.256 649.082 175.473 651.879 174.985C656.302 174.212 660.573 172.781 664.931 171.696C669.167 170.642 671.621 168.062 672.16 164.394C672.678 160.868 670.259 158.412 666.934 156.81C663.81 155.304 660.523 154.063 656.587 152.52Z" fill="#238DCE"/>
<path d="M507.957 258.387C509.054 264.405 509.97 270.059 511.03 275.692C512.454 283.267 516.198 290.126 519.681 297.061C520.338 298.369 520.954 299.696 521.516 301.038C522.917 304.387 520.357 307.16 516.268 306.658C515.165 306.523 514.009 306.2 513.06 305.695C500.98 299.264 488.609 293.207 476.958 286.216C460.542 276.366 449.672 262.284 441.466 246.584C434.923 234.064 430.376 220.932 427.351 207.397C427.195 206.697 426.947 206.009 426.838 205.304C426.03 200.082 426.749 198.803 432.173 196.51C442.749 192.04 453.678 188.334 465.316 186.873C470.883 186.174 476.644 186.454 482.302 186.646C485.524 186.755 487.911 188.684 489.929 190.851C494.326 195.572 497.381 200.918 499.266 206.771C501.308 213.114 502.407 219.568 503.028 226.175C503.815 234.556 505.626 242.862 506.959 251.204C507.32 253.466 507.55 255.743 507.957 258.387ZM483.093 200.382C482.626 195.164 478.76 191.907 472.701 191.633C464.694 191.27 456.916 192.424 449.258 194.387C446.223 195.164 443.696 196.599 441.611 198.717C436.779 203.626 438.993 210.348 446.026 212.32C450.016 213.439 453.693 212.337 457.368 211.369C463.873 209.657 470.316 207.764 476.788 205.954C479.697 205.141 482.111 203.849 483.093 200.382Z" fill="#238DCE"/>
<path d="M559.859 86.8849C570.664 81.0691 581.69 82.4593 592.68 85.0552C594.472 85.4785 596.224 87.1106 597.316 88.5782C601.596 94.3337 603.516 100.926 604.165 107.641C604.907 115.331 604.692 123.09 605.05 130.813C605.167 133.35 604.135 134.877 601.424 135.67C599.89 136.119 598.44 136.79 596.946 137.348C589.433 140.156 585.594 145.088 585.482 152.363C585.391 158.227 585.23 164.099 584.74 169.944C584.263 175.642 583.321 181.309 582.6 186.991C581.933 192.243 581.32 197.501 580.614 202.749C580.436 204.075 579.995 205.374 579.551 207.192C576.814 205.588 574.767 204.213 572.537 203.132C570.418 202.105 568.189 201.043 565.863 200.613C562.502 199.991 560.758 198.287 560.135 195.531C559.185 191.332 558.149 187.132 557.547 182.889C556.038 172.251 554.48 161.628 554.169 150.868C553.976 144.181 552.629 137.522 551.836 130.847C551.684 129.568 551.651 128.274 551.649 126.987C551.633 117.801 552.002 108.601 551.512 99.4357C551.192 93.4668 553.502 89.4775 559.859 86.8849ZM569.523 87.9263C567.018 88.8721 564.174 89.4248 562.075 90.8396C556.475 94.6138 557.699 100.682 564.273 102.98C570.832 105.272 577.314 104.704 583.64 102.348C586.87 101.145 588.848 98.7651 588.957 95.6733C589.065 92.5803 587.23 90.1627 584.073 88.7868C582.515 88.1075 580.738 87.564 579.025 87.4733C576.129 87.3201 573.207 87.5755 569.523 87.9263Z" fill="#238DCE"/>
<path d="M488.077 124.177C497.228 121.407 506.205 119.552 515.576 120.173C521.86 120.589 528.144 121.174 534.373 122.006C537.947 122.483 540.661 124.176 541.014 127.858C541.437 132.259 542.098 136.641 542.577 141.037C544.325 157.094 546 173.158 547.8 189.211C548.18 192.6 548.972 195.953 549.658 199.797C547.821 200.182 546.188 200.688 544.513 200.843C539.851 201.274 535.09 201.198 530.521 202.004C525.98 202.804 521.6 204.367 517.203 205.731C515.558 206.24 514.063 207.129 511.929 208.107C511.105 206.513 510.242 205.201 509.729 203.79C506.873 195.928 502.919 188.63 496.363 182.587C495.59 181.875 494.774 181.007 494.505 180.091C493.166 175.519 489.554 172.187 486.897 168.315C484.462 164.766 483.434 160.364 482.355 156.223C481.567 153.2 481.555 149.992 481.462 146.861C481.327 142.276 481.361 137.684 481.449 133.096C481.525 129.087 483.097 125.82 488.077 124.177ZM527.642 126.639C520.503 124.124 513.149 124.115 505.767 125.406C500.759 126.282 496.393 128.555 492.407 131.276C488.915 133.659 489.06 137.757 492.692 140.001C494.082 140.86 495.91 141.45 497.6 141.594C503.195 142.069 508.804 142.592 514.426 141.561C519.814 140.572 525.295 139.818 529.695 136.574C533.342 133.885 533.468 131.191 530.244 128.208C529.696 127.702 528.968 127.347 527.642 126.639Z" fill="#238DCE"/>
<path d="M658.992 304.641C652.369 305.452 646.14 306.409 639.868 306.751C633.553 307.095 627.195 306.872 620.857 306.798C618.983 306.776 617.114 306.417 615.454 306.236C614.779 303.958 616.471 303.559 617.642 302.922C623.449 299.763 629.275 296.629 635.121 293.527C642.06 289.845 647.686 284.947 652.189 279.053C662.84 265.111 672.173 250.497 679.631 235.025C682.412 229.256 684.163 223.091 686.218 217.062C687.925 212.056 688.544 211.518 694.261 211.446C708.188 211.271 718.772 219.852 720.433 232.168C721.999 243.772 719.973 254.664 713.67 264.951C711.816 267.978 710.074 271.066 708.457 274.196C703.451 283.89 695.273 290.902 684.54 295.388C676.352 298.81 667.772 301.501 658.992 304.641ZM705.989 218.3C702.973 215.334 699.262 214.112 694.742 214.549C691.572 214.854 689.532 216.321 688.975 218.958C687.853 224.275 688.186 229.553 692.197 233.936C696.579 238.723 702.041 240.461 709.038 238.057C715.02 236.002 716.552 232.424 713.276 227.617C711.195 224.563 708.757 221.698 705.989 218.3Z" fill="#238DCE"/>
<path d="M562.797 209.688C565.41 210.912 567.77 211.906 569.837 213.252C572.59 215.045 573.919 217.508 573.849 220.68C573.702 227.416 574.46 234.214 573.687 240.882C571.743 257.649 567.18 273.88 558.162 288.882C555.032 294.089 551.241 299.018 544.665 301.413C542.441 302.223 540.083 302.742 537.328 303.524C535.941 301.879 534.374 300.424 533.331 298.719C525.126 285.308 520.785 270.922 519.081 255.775C518.25 248.394 516.398 241.102 515.016 233.769C514.723 232.217 514.694 230.591 514.132 229.122C513.28 226.892 514.293 225.372 515.688 223.634C516.843 222.194 517.759 220.389 518.014 218.657C518.344 216.423 519.297 214.7 521.522 213.878C524.927 212.619 528.403 211.199 531.997 210.721C537.904 209.937 543.94 209.938 549.904 209.443C554.097 209.095 558.262 208.399 562.797 209.688ZM538.466 232.981C542.52 232.899 546.593 233.007 550.624 232.693C559.136 232.031 563.776 231.532 563.341 220.352C563.325 219.922 563.343 219.489 563.291 219.063C562.842 215.432 560.488 213.243 556.289 213.238C550.635 213.23 544.947 213.331 539.333 213.87C531.468 214.625 527.993 217.903 526.804 224.854C526.029 229.386 529.049 232.747 534.13 232.973C535.263 233.023 536.402 232.981 538.466 232.981Z" fill="#238DCE"/>
<path d="M427.695 165.592C423.653 156.041 423.177 146.266 421.615 136.649C420.308 128.605 421.387 120.645 422.067 112.682C422.341 109.475 423.602 106.238 424.998 103.226C426.629 99.7052 430.082 97.8524 434.216 96.8038C440.29 95.263 446.484 96.0643 452.619 95.7429C461.615 95.2715 468.017 99.0201 472.211 105.56C474.232 108.712 475.026 112.521 476.028 116.108C476.262 116.946 475.248 118.2 474.522 119.078C471.346 122.92 469.86 127.271 469.619 131.931C468.988 144.14 469.115 156.303 473.432 168.112C474.414 170.799 475.418 173.479 476.568 176.586C472.729 176.827 469.386 177.043 466.043 177.246C457.362 177.772 449.348 180.638 441.127 182.778C440.349 182.98 439.596 183.258 438.814 183.446C435.858 184.155 435.202 183.866 434.108 181.239C431.982 176.139 429.896 171.027 427.695 165.592ZM437.187 99.2599C436.729 99.4021 436.255 99.5125 435.817 99.6915C432.529 101.035 429.923 103.127 429.902 106.419C429.881 109.644 432.166 112.032 435.468 113.408C437.946 114.44 440.534 115.277 443.107 116.117C449.788 118.299 455.163 116.912 459.358 111.982C462.76 107.984 462.215 104.185 457.646 101.24C456.37 100.418 454.835 99.7662 453.307 99.4189C448.246 98.2682 443.116 98.0793 437.187 99.2599Z" fill="#238DCE"/>
<path d="M724.988 148.384C724.668 158.558 722.753 168.132 720.787 177.701C719.133 185.753 716.861 193.646 713.134 201.168C712.621 202.204 712.04 203.215 711.532 204.161C706.005 203.181 700.682 202.163 695.324 201.32C692.94 200.945 692.186 200.242 692.55 197.894C693.339 192.801 693.72 187.647 693.988 182.507C694.505 172.572 691.38 163.205 687.566 154.042C685.656 149.454 681.67 146.209 676.716 143.981C673.967 142.744 671.252 141.433 668.431 140.339C665.78 139.312 664.913 137.782 665.367 135.238C666.501 128.886 667.44 122.507 668.372 116.129C668.892 112.568 671.086 110.283 674.95 109.494C679.673 108.531 684.435 107.546 689.242 107.13C694.022 106.716 698.879 106.979 703.702 106.976C707.132 106.974 710.144 108.086 712.385 110.308C715.721 113.615 718.97 117.014 721.942 120.578C724.081 123.145 725.056 126.169 724.998 129.471C724.89 135.634 724.992 141.8 724.988 148.384ZM711.961 127.887C715.033 123.129 714.042 119.532 708.86 116.831C707.893 116.327 706.854 115.829 705.775 115.61C700.13 114.466 694.501 113.182 688.788 112.4C684.122 111.762 680.783 113.692 679.499 116.984C678.109 120.546 679.488 124.846 683.172 126.819C692.228 131.67 701.731 131.776 711.961 127.887Z" fill="#238DCE"/>
<path d="M658.392 85.0217C663.459 87.7258 668.014 90.3737 669.781 95.5047C671.051 99.1937 671.142 99.5078 667.291 101.109C661.826 103.381 658.813 107.264 657.894 112.366C657.236 116.022 657.171 119.759 656.672 123.441C656.183 127.053 656.53 130.859 653.957 134.299C651.97 133.834 650.082 133.504 648.282 132.951C640.24 130.476 632.058 130.701 623.813 131.825C623.334 131.89 622.847 131.915 622.363 131.956C617.285 132.382 616.607 131.974 616.734 127.472C617.055 116.108 615.724 104.945 612.414 93.9378C611.875 92.1442 612.542 90.0393 612.811 88.0954C612.965 86.9777 613.516 85.9074 613.756 84.7935C614.44 81.6202 616.127 79.8788 619.825 79.7314C628.225 79.3963 636.724 78.4757 644.986 80.4198C649.478 81.477 653.722 83.3601 658.392 85.0217ZM635.004 99.4241C639.261 100.219 643.481 101.3 647.785 101.732C652.529 102.207 655.644 99.9362 657.059 95.7505C658.122 92.607 656.551 89.7165 652.605 87.6631C651.772 87.2298 650.88 86.8369 649.958 86.5939C644.533 85.1632 639.127 83.6563 633.636 82.4514C631.65 82.0156 629.388 82.047 627.358 82.3779C621.465 83.3388 617.933 88.2042 622.658 93.2233C623.66 94.2874 625.02 95.1824 626.403 95.8523C628.955 97.089 631.647 98.1014 635.004 99.4241Z" fill="#238DCE"/>
</svg>
