<svg width="1904" height="606" viewBox="0 0 1904 606" fill="none" xmlns="http://www.w3.org/2000/svg">
<path d="M2971.79 30.854C2971.79 13.7514 2959.51 -0.0577816 2944.6 0.442973C2703.4 8.37797 2694.35 121.664 2435.68 121.664C2167.61 121.664 2167.61 0 1899.55 0C1631.5 0 1631.5 121.664 1363.44 121.664C1095.38 121.664 1095.38 0 827.328 0C559.272 0 559.272 121.664 291.233 121.664C32.5605 121.664 23.4961 8.37797 -217.686 0.442973C-232.592 -0.0577816 -244.879 13.7514 -244.879 30.854V598.226C-244.879 615.02 -233.011 628.637 -218.374 628.637H2945.29C2959.93 628.637 2971.79 615.02 2971.79 598.226V30.854Z" fill="#1E88E5"/>
</svg>
