<svg width="42" height="42" viewBox="0 0 42 42" fill="none" xmlns="http://www.w3.org/2000/svg">
<g clip-path="url(#clip0_1029_93)">
<mask id="mask0_1029_93" style="mask-type:luminance" maskUnits="userSpaceOnUse" x="0" y="0" width="42" height="42">
<path d="M42 0H0V42H42V0Z" fill="white"/>
</mask>
<g mask="url(#mask0_1029_93)">
<path d="M15.1497 33.7698C14.8577 33.8242 14.7302 33.9612 14.7667 34.1798C14.8032 34.3985 14.9672 34.4715 15.2588 34.3985C15.5508 34.3256 15.6783 34.1978 15.6416 34.0156C15.6054 33.8153 15.4414 33.7331 15.1497 33.7698ZM13.591 33.9887C13.2993 33.9887 13.1535 34.0884 13.1535 34.2893C13.1535 34.5263 13.3086 34.6263 13.6183 34.5899C13.9101 34.5899 14.056 34.4896 14.056 34.2893C14.056 34.0527 13.9009 33.952 13.591 33.9887ZM11.4583 33.9061C11.3855 34.1067 11.5041 34.2431 11.8137 34.3163C12.0871 34.4253 12.2603 34.3707 12.3331 34.1522C12.3879 33.9519 12.2694 33.8064 11.9777 33.7147C11.7042 33.642 11.5311 33.705 11.4583 33.9061Z" fill="black"/>
<path d="M39.6894 2.31034C38.1489 0.770208 36.2946 0 34.1248 0H7.87495C5.70588 0 3.85085 0.770208 2.31034 2.31034C0.770208 3.85075 0 5.70578 0 7.87495V34.1253C0 36.2945 0.770208 38.1494 2.31034 39.6895C3.85075 41.2299 5.70588 42.0001 7.87495 42.0001H13.9999C14.4006 42.0001 14.7017 41.9863 14.9021 41.9595C15.1024 41.9319 15.3029 41.8134 15.5035 41.6035C15.7042 41.394 15.8042 41.0886 15.8042 40.6878C15.8042 40.6333 15.7994 40.0129 15.7904 38.8281C15.7812 37.6429 15.7766 36.7042 15.7766 36.0114L15.1477 36.1208C14.7467 36.1937 14.2408 36.2258 13.6301 36.2165C13.0196 36.2074 12.386 36.1438 11.7298 36.0252C11.0733 35.9066 10.4629 35.6332 9.89772 35.2052C9.33282 34.7764 8.9318 34.2161 8.69476 33.5235L8.42125 32.8941C8.23899 32.4753 7.95205 32.0103 7.56005 31.5003C7.16805 30.9896 6.77164 30.6432 6.37064 30.4609L6.17919 30.3242C6.05172 30.2331 5.93325 30.1232 5.82378 29.9958C5.7145 29.868 5.63252 29.7402 5.57784 29.6129C5.52314 29.4851 5.56855 29.3803 5.7145 29.298C5.86046 29.2161 6.12451 29.1755 6.50751 29.1755L7.05418 29.2574C7.41888 29.3302 7.86978 29.5487 8.40781 29.9135C8.9455 30.2781 9.38751 30.7519 9.73392 31.3351C10.1534 32.0827 10.6588 32.652 11.2515 33.0439C11.8438 33.4364 12.4409 33.6323 13.0424 33.6323C13.6439 33.6323 14.1633 33.5867 14.601 33.4959C15.0382 33.4045 15.4484 33.2675 15.8314 33.0852C15.9955 31.8641 16.4422 30.9247 17.1711 30.2686C16.1321 30.1591 15.198 29.9952 14.3683 29.7762C13.539 29.5573 12.6822 29.2021 11.7982 28.7098C10.9139 28.2174 10.1802 27.6072 9.59683 26.8776C9.01362 26.148 8.5349 25.191 8.16151 24.0065C7.78789 22.8213 7.60104 21.4539 7.60104 19.9046C7.60104 17.6991 8.32135 15.8211 9.76139 14.2719C9.08679 12.613 9.15046 10.7539 9.95266 8.69383C10.4814 8.5297 11.2653 8.65284 12.3042 9.06301C13.3434 9.47352 14.1043 9.82447 14.5875 10.1158C15.0708 10.4071 15.458 10.6535 15.7498 10.8541C17.4454 10.3802 19.1953 10.1433 20.9998 10.1433C22.8042 10.1433 24.5545 10.3802 26.2502 10.8541L27.2893 10.1979C28.0005 9.76021 28.8389 9.35928 29.8051 8.9948C30.7713 8.63033 31.5094 8.52995 32.02 8.69408C32.8401 10.7542 32.9134 12.6134 32.2383 14.272C33.6784 15.8216 34.3988 17.6994 34.3988 19.9049C34.3988 21.4545 34.212 22.8265 33.8384 24.0202C33.4651 25.2142 32.9823 26.1715 32.3893 26.8916C31.7971 27.6117 31.0587 28.2174 30.1747 28.7099C29.2906 29.2019 28.4338 29.5578 27.6042 29.7761C26.7747 29.9951 25.8406 30.1595 24.8015 30.2691C25.7489 31.0891 26.2227 32.3829 26.2227 34.1515V40.6868C26.2227 40.9969 26.2679 41.2474 26.3591 41.4388C26.4508 41.6301 26.5964 41.7619 26.7968 41.8354C26.9982 41.9082 27.1751 41.9536 27.3304 41.9718C27.4857 41.99 27.7087 41.9992 28.0003 41.9992H34.1253C36.2944 41.9992 38.1495 41.229 39.6892 39.6886C41.2297 38.1482 41.9999 36.293 41.9999 34.124V7.87495C41.9998 5.70578 41.2295 3.85047 39.6894 2.31034Z" fill="black"/>
<path d="M8.31159 30.5702C8.18412 30.661 8.20232 30.8069 8.36638 31.0075C8.54888 31.1896 8.69462 31.217 8.80407 31.0893C8.9315 30.9986 8.91335 30.8526 8.74897 30.6517C8.56685 30.4879 8.42103 30.4604 8.31159 30.5702ZM7.4095 29.8866C7.35492 30.0144 7.4187 30.1239 7.60095 30.2147C7.74663 30.3061 7.86548 30.2882 7.95637 30.1603C8.01096 30.0325 7.94718 29.923 7.76492 29.8315C7.58266 29.7768 7.46419 29.7952 7.4095 29.8866ZM9.15947 31.6368C8.99525 31.7275 8.99525 31.8921 9.15947 32.1288C9.32353 32.3661 9.47817 32.4297 9.62425 32.3201C9.78838 32.1924 9.78838 32.0191 9.62425 31.8003C9.47859 31.564 9.32353 31.5086 9.15947 31.6368ZM10.1167 32.8668C9.9526 33.013 9.98881 33.1854 10.2261 33.3866C10.4446 33.6049 10.6269 33.6324 10.7728 33.4679C10.9188 33.3224 10.8822 33.1494 10.6634 32.9489C10.4449 32.7305 10.2626 32.7029 10.1167 32.8668Z" fill="black"/>
</g>
</g>
<defs>
<clipPath id="clip0_1029_93">
<rect width="42" height="42" fill="white"/>
</clipPath>
</defs>
</svg>
