<svg width="42" height="42" viewBox="0 0 42 42" fill="none" xmlns="http://www.w3.org/2000/svg">
<g clip-path="url(#clip0_1029_147)">
<mask id="mask0_1029_147" style="mask-type:luminance" maskUnits="userSpaceOnUse" x="0" y="0" width="42" height="42">
<path d="M42 0H0V42H42V0Z" fill="white"/>
</mask>
<g mask="url(#mask0_1029_147)">
<path d="M36.2727 0H5.72727C2.56418 0 0 2.56418 0 5.72727V36.2727C0 39.4358 2.56418 42 5.72727 42H36.2727C39.4358 42 42 39.4358 42 36.2727V5.72727C42 2.56418 39.4358 0 36.2727 0Z" fill="#0077B5"/>
<path d="M15.1298 11.4546C15.1298 12.1625 14.9199 12.8546 14.5265 13.4433C14.1332 14.0319 13.5742 14.4907 12.9201 14.7617C12.266 15.0326 11.5463 15.1035 10.8519 14.9653C10.1576 14.8272 9.51976 14.4863 9.01912 13.9857C8.51848 13.485 8.1776 12.8472 8.03948 12.1529C7.90137 11.4585 7.97226 10.7388 8.24318 10.0847C8.51412 9.4306 8.97292 8.87158 9.5616 8.47829C10.1502 8.08493 10.8423 7.875 11.5502 7.875C12.4996 7.875 13.4101 8.25213 14.0814 8.9234C14.7526 9.59473 15.1298 10.5052 15.1298 11.4546ZM14.3184 17.4204V33.2349C14.3191 33.3515 14.2966 33.4672 14.2524 33.5751C14.2082 33.6832 14.1431 33.7813 14.0608 33.864C13.9786 33.9468 13.8807 34.0124 13.773 34.0571C13.6652 34.102 13.5497 34.125 13.4331 34.125H9.66021C9.54362 34.1253 9.42803 34.1026 9.32018 34.0581C9.21232 34.0135 9.1143 33.9482 9.03181 33.8657C8.94932 33.7832 8.88397 33.6852 8.83945 33.5774C8.79493 33.4695 8.77225 33.354 8.7725 33.2373V17.4204C8.7725 17.1851 8.86608 16.9592 9.03256 16.7928C9.19905 16.6263 9.42484 16.5327 9.66021 16.5327H13.4331C13.6681 16.5334 13.8933 16.6271 14.0593 16.7936C14.2252 16.96 14.3184 17.1854 14.3184 17.4204ZM34.0394 25.6534V33.3089C34.0396 33.4161 34.0188 33.5224 33.9779 33.6216C33.937 33.7207 33.8768 33.8108 33.801 33.8867C33.7251 33.9625 33.6351 34.0226 33.5359 34.0635C33.4367 34.1044 33.3305 34.1253 33.2232 34.125H29.1664C29.0591 34.1253 28.9528 34.1044 28.8537 34.0635C28.7545 34.0226 28.6645 33.9625 28.5886 33.8867C28.5128 33.8108 28.4526 33.7207 28.4117 33.6216C28.3708 33.5224 28.35 33.4161 28.3502 33.3089V25.8896C28.3502 24.7824 28.6748 21.0406 25.4556 21.0406C22.9619 21.0406 22.4536 23.6011 22.3533 24.7514V33.3089C22.3534 33.5233 22.269 33.7291 22.1185 33.8818C21.9681 34.0345 21.7635 34.1219 21.5491 34.125H17.6307C17.5236 34.125 17.4176 34.1039 17.3187 34.0628C17.2199 34.0218 17.1301 33.9616 17.0545 33.8859C16.9789 33.81 16.919 33.72 16.8782 33.621C16.8374 33.522 16.8167 33.416 16.8169 33.3089V17.3513C16.8167 17.2442 16.8374 17.1381 16.8782 17.0391C16.919 16.9401 16.9789 16.8501 17.0545 16.7743C17.1301 16.6984 17.2199 16.6383 17.3187 16.5973C17.4176 16.5562 17.5236 16.5351 17.6307 16.5351H21.5491C21.7655 16.5351 21.9732 16.6211 22.1262 16.7741C22.2793 16.9272 22.3652 17.1348 22.3652 17.3513V18.7306C23.2911 17.3417 24.6633 16.2702 27.5914 16.2702C34.0775 16.2702 34.0394 22.3268 34.0394 25.6534Z" fill="white"/>
</g>
</g>
<defs>
<clipPath id="clip0_1029_147">
<rect width="42" height="42" fill="white"/>
</clipPath>
</defs>
</svg>
