<svg width="41" height="45" viewBox="0 0 41 45" fill="none" xmlns="http://www.w3.org/2000/svg">
<path opacity="0.5" fill-rule="evenodd" clip-rule="evenodd" d="M0 22.22C0 9.94824 9.16768 0 20.4766 0C31.7855 0 40.9532 9.94824 40.9532 22.22C40.9532 34.4918 31.7855 44.44 20.4766 44.44C9.16768 44.44 0 34.4918 0 22.22Z" fill="#1F2937"/>
<path fill-rule="evenodd" clip-rule="evenodd" d="M20.4785 10.3682C17.5126 10.3682 17.1403 10.3822 15.9754 10.4398C14.8128 10.4975 14.0192 10.6973 13.3248 10.9903C12.6065 11.293 11.9972 11.6979 11.3902 12.3569C10.7827 13.0156 10.4096 13.6768 10.1298 14.4559C9.85901 15.2097 9.67472 16.0711 9.62239 17.3322C9.57029 18.5963 9.55664 19.0005 9.55664 22.219C9.55664 25.4374 9.56984 25.8401 9.62262 27.1042C9.67609 28.3658 9.86015 29.227 10.13 29.9805C10.4092 30.7599 10.7823 31.4211 11.3895 32.0798C11.9963 32.739 12.6056 33.1449 13.3235 33.4476C14.0183 33.7406 14.8121 33.9404 15.9745 33.9982C17.1394 34.0557 17.5114 34.0697 20.4771 34.0697C23.4433 34.0697 23.8144 34.0557 24.9793 33.9982C26.1419 33.9404 26.9364 33.7406 27.6313 33.4476C28.3493 33.1449 28.9577 32.739 29.5645 32.0798C30.172 31.4211 30.5451 30.7599 30.825 29.9807C31.0934 29.227 31.2777 28.3656 31.3323 27.1044C31.3847 25.8404 31.3983 25.4374 31.3983 22.219C31.3983 19.0005 31.3847 18.5966 31.3323 17.3325C31.2777 16.0709 31.0934 15.2097 30.825 14.4562C30.5451 13.6768 30.172 13.0156 29.5645 12.3569C28.957 11.6977 28.3496 11.2928 27.6306 10.9903C26.9344 10.6973 26.1403 10.4975 24.9777 10.4398C23.8128 10.3822 23.442 10.3682 20.4751 10.3682H20.4785ZM19.4988 12.5037C19.7895 12.5032 20.114 12.5037 20.4785 12.5037C23.3944 12.5037 23.74 12.5151 24.8914 12.5719C25.9562 12.6247 26.5341 12.8178 26.9191 12.98C27.4287 13.1948 27.7921 13.4516 28.1741 13.8663C28.5563 14.2811 28.7929 14.6761 28.9913 15.2292C29.1408 15.6464 29.319 16.2735 29.3674 17.429C29.4198 18.6783 29.4311 19.0535 29.4311 22.2162C29.4311 25.3789 29.4198 25.7542 29.3674 27.0034C29.3187 28.1589 29.1408 28.786 28.9913 29.2032C28.7934 29.7563 28.5563 30.1501 28.1741 30.5646C27.7919 30.9794 27.429 31.2361 26.9191 31.4509C26.5346 31.6139 25.9562 31.8065 24.8914 31.8593C23.7402 31.9161 23.3944 31.9284 20.4785 31.9284C17.5623 31.9284 17.2167 31.9161 16.0655 31.8593C15.0007 31.806 14.4228 31.6129 14.0376 31.4507C13.528 31.2359 13.1639 30.9791 12.7817 30.5644C12.3995 30.1496 12.1628 29.7555 11.9644 29.2023C11.815 28.785 11.6368 28.1579 11.5883 27.0024C11.536 25.7532 11.5256 25.3779 11.5256 22.2132C11.5256 19.0486 11.536 18.6753 11.5883 17.426C11.637 16.2706 11.815 15.6435 11.9644 15.2257C12.1624 14.6727 12.3995 14.2777 12.7817 13.8629C13.1639 13.4481 13.528 13.1913 14.0376 12.976C14.4226 12.8131 15.0007 12.6205 16.0655 12.5674C17.0729 12.5181 17.4634 12.5032 19.4988 12.5008V12.5037ZM26.308 14.4715C25.5845 14.4715 24.9975 15.1077 24.9975 15.8931C24.9975 16.6782 25.5845 17.3152 26.308 17.3152C27.0315 17.3152 27.6185 16.6782 27.6185 15.8931C27.6185 15.108 27.0315 14.4715 26.308 14.4715ZM20.4785 16.133C17.3813 16.133 14.8702 18.858 14.8702 22.2189C14.8702 25.5799 17.3813 28.3036 20.4785 28.3036C23.5758 28.3036 26.086 25.5799 26.086 22.2189C26.086 18.858 23.5758 16.133 20.4785 16.133ZM20.4785 18.2687C22.4888 18.2687 24.1188 20.0371 24.1188 22.2189C24.1188 24.4005 22.4888 26.1692 20.4785 26.1692C18.4679 26.1692 16.8382 24.4005 16.8382 22.2189C16.8382 20.0371 18.4679 18.2687 20.4785 18.2687Z" fill="white"/>
</svg>
