<svg width="348" height="273" viewBox="0 0 348 273" fill="none" xmlns="http://www.w3.org/2000/svg">
<path d="M106.381 261.377C93.345 258.873 80.4059 257.179 67.4408 255.841C57.3275 254.797 47.1855 253.874 37.0024 253.51C25.5208 253.099 14.0423 252.618 2.55229 252.579C0.547482 252.573 -0.0220674 251.651 0.00106472 249.893C0.0395891 246.965 0.00270692 244.036 0.00263901 241.107C0.0013837 185.461 0.000953427 129.815 5.81687e-07 74.169C-6.31503e-05 70.2922 -0.00131872 70.2922 3.85616 70.2894C10.8398 70.2843 10.8185 70.2843 10.8413 63.4235C10.8621 57.1642 10.1686 57.917 16.3832 57.8608C18.9076 57.8379 21.4372 57.8072 23.9559 57.94C25.8036 58.0374 26.7207 57.462 26.7172 55.5199C26.7121 52.6803 26.9186 49.8395 26.8858 47.0009C26.8652 45.2257 27.5763 44.5114 29.349 44.5429C41.3537 44.7568 53.3283 45.1791 65.2635 46.7575C76.5773 48.2537 87.7695 50.2435 98.7698 53.2275C116.393 58.0082 133.317 64.4484 148.779 74.2732C149.363 74.6448 149.976 74.9755 150.591 75.2963C150.722 75.3645 150.921 75.3062 151.3 75.3062C151.497 68.0008 153.556 61.2709 158.477 55.6542C162.41 51.1654 166.388 46.7051 170.542 42.4178C180.99 31.6335 192.219 21.7367 204.984 13.6623C215.265 7.15945 226.108 2.06012 238.379 0.404671C255.757 -1.93985 272.29 6.02766 281.259 21.0696C284.473 26.4608 286.269 32.3796 288.491 38.1712C291.175 45.1646 296.466 49.8565 304.076 51.1842C314.769 53.0499 325.03 55.9098 333.314 63.2322C344.162 72.8204 348.782 84.9906 347.654 99.3069C346.411 115.089 339.895 129.004 331.943 142.389C324.465 154.977 315.568 166.547 305.842 177.5C304.718 178.766 304.662 180.108 304.708 181.571C305.39 203.44 304.911 225.315 305.058 247.187C305.1 253.537 304.915 252.449 299.725 252.563C280.586 252.985 261.467 253.57 242.392 255.452C218.291 257.83 194.432 261.445 170.986 267.53C165.349 268.994 159.743 270.563 154.288 272.61C153.281 272.987 152.358 273.173 151.27 272.785C136.745 267.603 121.72 264.326 106.381 261.377ZM34.4861 192.687C34.491 201.902 34.5533 211.119 34.4613 220.334C34.4375 222.714 35.1677 223.752 37.6989 223.794C48.4023 223.971 59.0469 224.827 69.6585 226.333C93.7913 229.758 117.013 236.121 138.56 247.558C144.128 250.513 149.522 252.351 155.828 251.761C157.871 251.57 159.654 251.231 161.454 250.19C177.131 241.119 194.045 235.094 211.6 230.81C229.902 226.343 248.522 224.074 267.372 223.767C269.699 223.729 270.593 222.929 270.572 220.564C270.477 209.884 270.5 199.204 270.537 188.524C270.542 187.224 270.221 186.238 269.266 185.314C265.126 181.311 262.794 176.35 262.068 170.739C260.875 161.52 260.201 152.235 260.051 142.956C259.947 136.461 257.635 131.273 252.986 126.95C250.07 124.238 247.075 121.606 244.058 119.004C235.858 111.931 227.717 104.786 219.364 97.8935C215.978 95.099 212.227 92.4876 207.524 92.4297C204.406 92.3913 201.285 92.8712 198.161 93.0303C189.998 93.4462 181.86 94.6283 173.678 94.3342C165.033 94.0233 157.688 91.0212 153.359 83.001C152.653 81.6946 151.667 81.3322 150.372 81.5026C147.704 81.8535 145.521 80.8849 143.321 79.4815C140.255 77.5249 137.083 75.6991 133.826 74.0722C103.408 58.8769 70.905 52.5543 37.071 51.8808C34.3443 51.8265 34.4846 53.4032 34.485 55.2187C34.4947 100.869 34.4892 146.519 34.4861 192.687ZM230.304 10.2047C224.373 12.027 218.784 14.6069 213.471 17.7612C194.736 28.8839 179.334 43.7318 165.26 60.06C163.029 62.6479 161.28 65.4924 160.291 68.7628C157.595 77.6776 161.297 84.1897 170.227 86.0661C171.907 86.4192 173.694 86.4865 175.417 86.3968C183.488 85.9767 191.553 85.4329 199.623 84.9814C202.998 84.7925 206.41 84.3884 209.752 84.6786C214.641 85.103 218.892 87.479 222.681 90.4166C235.63 100.455 247.972 111.206 259.72 122.587C264.088 126.818 267.364 131.872 267.641 138.383C268.007 146.972 268.626 155.553 269.294 164.125C269.554 167.453 269.854 170.799 271.128 173.987C273.903 180.934 279.244 183.704 286.521 181.813C290.596 180.754 293.986 178.566 296.825 175.536C306.191 165.54 314.715 154.872 322.078 143.36C329.875 131.168 336.664 118.48 339.102 103.992C341.068 92.3094 339.254 81.5169 331.172 72.3206C324.687 64.9413 316.108 61.0821 306.605 59.8755C297.036 58.6605 289.898 54.1166 284.003 46.9783C281.251 43.6467 280.58 39.5132 279.207 35.6345C275.497 25.1596 269.814 16.2418 259.209 11.2955C249.876 6.94249 240.346 7.29829 230.304 10.2047ZM54.639 238.285C77.8273 239.78 100.721 243.24 123.365 248.42C117.145 245.499 110.688 243.258 104.146 241.222C83.0937 234.671 61.4724 231.608 39.4754 230.889C37.6023 230.828 35.4349 230.058 33.9075 232.065C33.7686 232.247 33.0944 232.106 32.6955 232.008C28.2982 230.931 26.9228 229.207 26.9225 224.789C26.9189 173.375 26.9178 121.961 26.9088 70.5479C26.9086 69.4309 26.8657 68.3099 26.7592 67.1986C26.6945 66.524 26.5968 65.723 25.8389 65.4601C23.6524 64.7017 21.2582 64.4894 19.1909 65.2469C17.6101 65.8262 18.5946 67.8714 18.451 69.2545C18.3182 70.5329 18.42 71.8352 18.42 73.127C18.421 126.607 18.4364 180.088 18.3773 233.568C18.3746 235.991 18.997 236.842 21.5685 236.843C32.446 236.847 43.3094 237.368 54.639 238.285ZM286.62 200.956C286.619 198.889 286.62 196.823 286.618 194.756C286.614 190.448 286.614 190.45 282.458 190.363C282.111 190.356 281.752 190.35 281.421 190.261C278.885 189.575 278.296 190.719 278.316 193.054C278.404 203.474 278.352 213.894 278.351 224.314C278.351 226.928 278.351 229.541 278.351 232.219C275.759 232.267 274.273 230.752 272.281 230.738C263.829 230.678 255.395 231.17 247.013 232.041C232.644 233.534 218.429 236.003 204.555 240.115C196.764 242.424 189.063 244.985 181.673 248.4C194.384 245.521 207.171 243.093 220.081 241.353C241.132 238.514 262.288 237.005 283.533 236.832C285.862 236.813 286.699 236.2 286.671 233.767C286.547 223.003 286.619 212.238 286.62 200.956Z" fill="white"/>
<path d="M172.806 171.7C163.035 178.323 153.423 184.847 143.784 191.331C142.207 192.392 140.597 193.489 138.848 194.198C134.472 195.974 130.926 193.762 130.468 189.134C130.392 188.365 130.413 187.585 130.413 186.81C130.412 166.141 130.42 145.473 130.41 124.804C130.409 121.9 130.379 118.815 133.385 117.332C136.281 115.903 139.165 116.943 141.725 118.674C156.305 128.538 170.918 138.355 185.428 148.318C191.381 152.405 191.298 158.939 185.422 163.088C181.314 165.988 177.115 168.759 172.806 171.7Z" fill="white"/>
<path d="M255.134 51.3975C254.099 52.376 254.272 53.125 255.171 53.8929C256.686 55.1873 258.177 56.5103 259.654 57.8473C264.239 61.9969 264.653 68.5562 260.633 73.1533C256.82 77.5141 250.344 78.0533 245.599 74.3441C243.56 72.7498 241.616 71.0362 239.457 69.2334C237.744 71.0921 236.126 72.8571 234.497 74.612C230 79.4573 223.32 79.8117 218.432 75.4696C214.015 71.5464 213.873 64.5996 218.094 59.9344C219.598 58.2727 221.055 56.5693 222.703 54.691C220.627 52.8278 218.633 51.0795 216.685 49.281C212.378 45.3023 211.997 38.6319 215.807 34.3778C219.887 29.8213 226.675 29.3037 231.275 33.2157C233.175 34.8311 235.043 36.4825 237.152 38.3145C238.915 36.3463 240.519 34.5649 242.113 32.7732C246.011 28.3893 252.48 27.6761 257.196 31.1162C261.739 34.4302 262.982 40.8226 259.83 45.6528C258.518 47.6626 256.785 49.4032 255.134 51.3975ZM240.481 60.0011C243.793 62.1051 246.491 64.9392 249.469 67.4373C251.147 68.844 252.784 69.4291 254.534 67.772C255.871 66.5071 255.446 64.5839 253.519 62.8781C251.12 60.7542 248.649 58.7103 246.266 56.5689C243.725 54.2847 243.634 52.2091 245.875 49.6392C247.978 47.2283 250.054 44.793 252.227 42.4453C253.644 40.9141 254.359 39.3291 252.583 37.7548C250.86 36.2269 249.205 36.9295 247.813 38.4629C245.663 40.8332 243.534 43.2224 241.375 45.5845C238.766 48.4381 237.053 48.5535 234.05 46.0202C231.601 43.954 229.229 41.797 226.778 39.7331C225.214 38.416 223.554 37.9356 221.995 39.7675C220.383 41.6607 221.418 43.0942 222.91 44.398C225.387 46.5631 227.93 48.6574 230.353 50.881C232.773 53.1019 232.832 55.1798 230.715 57.621C228.676 59.9726 226.618 62.3079 224.581 64.6612C222.829 66.6846 222.578 68.8472 224.154 69.8575C226.143 71.1333 227.705 70.2421 229.099 68.5863C231.157 66.1399 233.321 63.7795 235.476 61.4145C236.708 60.0623 238.149 59.1886 240.481 60.0011Z" fill="white"/>
<path d="M297.041 91.7783C294.438 88.5934 294.317 85.36 296.275 82.0615C297.924 79.2825 301.313 77.9097 304.594 78.5385C308.014 79.194 310.42 81.5441 311.118 85.0774C311.796 88.506 310.316 91.1198 307.627 93.1122C305.251 94.8728 301.506 94.9338 299.012 93.3556C298.359 92.9421 297.79 92.3975 297.041 91.7783Z" fill="white"/>
<path d="M311.701 126.525C307.218 125.26 304.579 121.7 305.018 117.756C305.444 113.933 308.782 110.833 312.709 110.614C316.538 110.401 320.151 113.108 321.134 116.927C322.522 122.316 317.79 127.257 311.701 126.525Z" fill="white"/>
<path d="M284.799 119.22C281.471 121.531 278.198 121.751 274.973 119.555C272.137 117.624 271.03 114.832 271.597 111.487C272.16 108.167 274.783 105.687 278.211 105.04C281.189 104.478 284.582 105.945 286.334 108.552C288.158 111.265 288.145 114.795 286.268 117.509C285.879 118.071 285.389 118.565 284.799 119.22Z" fill="white"/>
</svg>
