<svg width="166" height="37" viewBox="0 0 166 37" fill="none" xmlns="http://www.w3.org/2000/svg">
<path d="M17.2296 9.4557C15.3456 11.4401 13.5519 13.3269 11.6387 15.3394C16.3852 19.434 20.1051 24.1232 23.5703 29.6481C20.9845 29.6481 18.8033 29.7335 16.6387 29.5859C16.1203 29.5505 15.6076 28.7804 15.177 28.2786C12.9482 25.6819 10.7611 23.051 8.52329 20.462C8.11097 19.9849 7.53226 19.6455 7.03036 19.2425C6.84797 19.3065 6.66558 19.3704 6.48319 19.4344C6.48319 21.5571 6.48319 23.6798 6.48319 25.8024C6.4832 29.7162 6.48045 29.6235 2.44771 29.738C0.513572 29.7929 -0.0261185 29.1819 0.000959249 27.3095C0.106446 20.015 0.0418002 12.7181 0.0453442 5.42216C0.046512 3.01864 0.100657 2.94378 2.4479 2.96619C7.01472 3.00979 6.44121 2.3216 6.48091 6.89132C6.49512 8.52607 6.48319 10.161 6.48319 12.2076C7.27554 11.7422 7.6845 11.6076 7.93997 11.3353C10.0751 9.05935 12.2428 6.80797 14.2693 4.4415C15.1618 3.39935 16.0609 2.84066 17.481 2.93665C19.0466 3.04249 20.6254 2.96079 22.5849 2.96079C21.2366 5.68021 19.1257 7.40552 17.2296 9.4557Z" fill="#1E86D5"/>
<path d="M45.9354 30.0556C42.2094 30.3105 38.7683 30.0578 36.0381 27.4667C32.7731 24.368 32.7509 20.4526 33.321 16.425C34.0326 11.3978 38.8678 8.10624 43.9378 9.19306C44.6581 9.34748 45.3771 9.50824 46.4972 9.75391C46.4972 7.57162 46.4967 5.63279 46.4973 3.69395C46.4982 0.905832 46.4954 0.890045 49.3414 0.357941C50.245 0.188993 51.1698 0.128655 52.2398 0C52.2995 0.754527 52.3785 1.2907 52.379 1.82693C52.3867 10.2314 52.3435 18.6363 52.4237 27.0401C52.4374 28.4734 51.8789 29.065 50.5876 29.2829C49.0945 29.5349 47.6019 29.7896 45.9354 30.0556ZM46.3696 15.1182C45.2033 13.3709 43.41 13.6975 41.7802 13.9669C40.0608 14.2512 39.2504 15.7161 39.1138 17.1939C38.9652 18.8014 39.0888 20.5309 39.558 22.0721C40.2596 24.3771 42.0278 25.3302 44.4893 25.2689C45.7637 25.2371 46.4717 24.7814 46.4368 23.386C46.3707 20.7398 46.4114 18.091 46.3696 15.1182Z" fill="#1C85D5"/>
<path d="M98.0209 27.6695C94.1327 25.1896 92.6766 20.4235 94.1785 15.4194C95.2594 11.8176 98.8461 9.21727 103.094 9.2168C105.285 9.21655 107.484 9.55348 109.666 9.83212C110.938 9.99449 111.56 10.6584 111.534 12.0985C111.438 17.3452 111.527 22.5948 111.482 27.8429C111.431 33.9177 108.578 36.7746 102.35 36.9837C100.843 37.0343 99.3098 36.9611 97.8209 36.7389C94.6213 36.2615 94.5852 36.1312 95.7367 32.9265C96.4131 33.038 97.1288 33.2535 97.8453 33.2561C100.148 33.2643 102.516 33.5095 104.735 33.0673C107.078 32.6003 107.78 30.7203 107.039 28.104C104.056 28.9433 101.029 29.4018 98.0209 27.6695ZM107.137 12.5254C106.192 12.4683 105.245 12.438 104.303 12.3494C100.718 12.0119 98.4276 14.3203 97.8822 17.3296C96.9389 22.5344 99.898 27.1413 105.945 25.4009C107.943 24.8259 108.238 24.2823 107.634 21.957C105.712 22.8893 103.698 23.1239 102.542 21.0497C102.038 20.1445 101.982 18.5971 102.43 17.6669C103.551 15.3372 105.679 15.6272 108.22 16.7038C107.911 15.0778 107.681 13.8663 107.137 12.5254Z" fill="#268AD7"/>
<path d="M132.029 26.1497C131.887 28.1135 131.983 29.9508 131.554 31.6621C130.679 35.1501 127.902 36.6233 124.525 36.8291C122.1 36.9769 119.643 36.5624 117.197 36.4535C115.565 36.3808 115.649 35.404 115.82 34.2621C116.03 32.8526 116.894 32.9323 118.03 33.0791C120.016 33.3357 122.043 33.6419 124.023 33.5066C127.09 33.297 128.597 31.1207 127.936 28.0668C127.289 28.2234 126.638 28.3512 126.006 28.5384C120.364 30.2095 114.786 26.4244 114.416 20.6661C114.065 15.2017 115.75 11.5183 120.027 10.0403C122.298 9.25534 125.014 9.14106 127.435 9.44254C133 10.1352 131.952 9.55338 132.02 14.6632C132.069 18.4303 132.029 22.1985 132.029 26.1497ZM128.491 15.7003C128.29 14.6636 128.458 13.1363 127.822 12.6794C125.636 11.1096 120.457 12.6571 119.384 15.1531C118.796 16.5215 118.555 18.1244 118.548 19.6231C118.529 24.3738 122.061 26.8097 126.702 25.3905C128.549 24.8256 128.865 24.1158 128.096 22.2522C127.974 22.2608 127.835 22.235 127.732 22.2832C126.031 23.0781 124.653 22.5662 123.534 21.2336C122.467 19.9625 122.488 18.5797 123.497 17.3199C124.559 15.9931 125.92 15.3994 127.653 16.1955C127.838 16.2807 128.167 16.0679 128.491 15.7003Z" fill="#2489D7"/>
<path d="M151.434 28.7059C146.232 31.1012 139.71 29.8448 137.046 26.0462C133.44 20.9061 134.974 12.7933 140.145 10.0216C144.852 7.49875 151.982 8.86532 152.879 16.2042C153.405 20.4984 153.431 20.495 149.001 20.4954C146.346 20.4956 143.689 20.5444 141.036 20.479C139.533 20.442 139.338 21.1731 139.603 22.3491C140.226 25.1078 143.089 26.8709 146.533 26.5399C148.032 26.3958 149.519 26.1258 151.285 25.8738C151.372 26.853 151.451 27.7325 151.434 28.7059ZM148.154 17.6109C148.409 17.1405 148.908 16.6543 148.877 16.2025C148.719 13.8772 146.912 12.258 144.545 12.1673C142.005 12.0701 139.765 13.8276 139.386 16.1296C139.189 17.321 139.694 17.6658 140.822 17.6459C143.15 17.6046 145.48 17.6315 148.154 17.6109Z" fill="#268AD7"/>
<path d="M77.5707 10.2082C84.1469 6.98387 90.982 10.7537 91.7968 17.9235C92.3607 22.8851 90.3102 27.1548 86.434 29.0903C82.2925 31.1584 77.094 29.8368 74.5337 26.0649C71.0235 20.8937 72.36 13.6518 77.5707 10.2082ZM84.1823 26.3485C85.2076 25.3355 86.615 24.4925 87.1806 23.2752C88.4607 20.5203 88.208 17.6226 86.785 14.9094C85.8761 13.1765 84.3959 12.3465 82.3384 12.3504C80.2307 12.3543 78.6926 13.1693 77.697 14.9473C76.3136 17.4179 76.2799 20.0622 77.0822 22.6574C78.1393 26.0769 80.2309 27.1594 84.1823 26.3485Z" fill="#258AD7"/>
<path d="M69.9199 26.2512C70.7876 26.2513 71.4746 26.2513 72.3446 26.2513C72.3446 27.3771 72.3446 28.3736 72.3446 29.5987C68.5833 29.5987 64.8747 29.5987 61.166 29.5987C56.0548 29.5987 56.0548 29.5987 56.0548 24.5499C56.0548 18.374 56.0545 12.1981 56.0549 6.02217C56.0552 2.5511 56.0557 2.5511 59.8531 3.05274C59.8875 3.73588 59.9543 4.45601 59.9552 5.17622C59.9637 11.5374 60.0011 17.899 59.9312 24.2595C59.9145 25.7821 60.3866 26.3431 61.9738 26.2791C64.5582 26.1749 67.1503 26.2511 69.9199 26.2512Z" fill="#2087D6"/>
<path d="M24.3471 15.7726C24.3474 14.044 24.3782 12.4996 24.3375 10.9571C24.3075 9.82067 24.7012 9.2404 25.9703 9.26232C31.5105 9.35801 30.5393 8.59525 30.5944 13.5306C30.6475 18.2842 30.5661 23.0393 30.6311 27.7927C30.6496 29.1426 30.2366 29.6256 28.8075 29.6347C24.3464 29.6633 24.3467 29.7159 24.3467 25.4044C24.3468 22.2555 24.3468 19.1066 24.3471 15.7726Z" fill="#2389D6"/>
<path d="M160.413 19.8522C160.413 22.6965 160.332 25.3584 160.443 28.0127C160.51 29.6325 159.564 29.6505 158.4 29.6298C157.293 29.6102 156.277 29.7399 156.301 28.0687C156.381 22.6905 156.302 17.3102 156.377 11.9319C156.385 11.3489 156.9 10.3651 157.346 10.2634C159.778 9.70905 162.263 9.0444 164.726 9.05882C166.942 9.07181 165.503 10.9941 165.914 12.2867C164.582 12.2867 163.467 12.2964 162.351 12.2842C160.958 12.269 160.289 12.8004 160.387 14.2892C160.504 16.0749 160.413 17.8736 160.413 19.8522Z" fill="#2D8ED8"/>
<path d="M31.0776 3.80315C30.258 6.38309 28.3208 7.57524 26.2905 6.88406C24.5198 6.28126 23.526 4.20558 24.146 2.32953C24.7196 0.5942 26.1084 0.0237618 27.815 0.0602217C29.6781 0.100028 30.6786 1.24402 31.0776 3.80315Z" fill="#2489D7"/>
</svg>
