<svg width="89" height="90" viewBox="0 0 89 90" fill="none" xmlns="http://www.w3.org/2000/svg">
<path d="M81.9601 6.89453C72.8038 -2.29818 57.908 -2.29818 48.757 6.89453L37.5122 18.181C35.8351 19.8685 35.8351 22.6029 37.5122 24.2904C39.1945 25.9727 41.9132 25.9727 43.5955 24.2904L54.8403 12.9987C69.1736 -0.516927 89.3715 19.7591 75.8767 34.1237L62.7361 47.3216C56.0851 54.1862 44.2101 52.6966 39.4497 44.4102C38.2361 42.3529 35.5955 41.681 33.5538 42.8945C29.059 45.7435 32.8872 50.7956 35.6163 53.4258C40.1945 58.0247 46.2049 60.3216 52.2153 60.3216C58.2309 60.3216 64.2413 58.0247 68.8195 53.4258L81.9601 40.2331C91.0695 31.457 91.0747 15.6706 81.9601 6.89453Z" fill="#68B4E7"/>
<path d="M45.2115 64.9258L33.9667 76.2122C19.7375 89.7695 -0.580205 69.3789 12.925 55.0872L26.0656 41.8893C32.7115 35.0404 44.5656 36.5039 49.3313 44.7799C50.5448 46.832 53.1854 47.5091 55.2219 46.2904C59.7115 43.4622 55.899 38.3945 53.1906 35.7852C44.0344 26.5924 29.1385 26.5977 19.9875 35.7852L6.84688 48.9779C-7.94479 63.6289 2.89896 89.4518 23.4458 89.2122C29.4563 89.2122 35.4719 86.9154 40.0448 82.3164L51.2896 71.0299C55.2167 66.9414 49.274 60.9779 45.2115 64.9258Z" fill="#68B4E7"/>
</svg>
