<?xml version="1.0" standalone="no"?>
<!DOCTYPE svg PUBLIC "-//W3C//DTD SVG 20010904//EN"
 "http://www.w3.org/TR/2001/REC-SVG-20010904/DTD/svg10.dtd">
<svg version="1.0" xmlns="http://www.w3.org/2000/svg"
 width="666.000000pt" height="375.000000pt" viewBox="0 0 666.000000 375.000000"
 preserveAspectRatio="xMidYMid meet">

<g transform="translate(0.000000,375.000000) scale(0.100000,-0.100000)"
fill="#000000" stroke="none">
<path d="M3287 3703 c-5 -9 -16 -85 -57 -393 -16 -124 -34 -256 -39 -295 -6
-38 -13 -96 -17 -127 l-6 -58 -143 0 c-78 0 -189 -3 -248 -6 l-105 -7 -7 -58
c-4 -33 -9 -59 -11 -59 -2 0 -47 28 -101 63 -141 91 -193 120 -193 109 0 -11
16 -31 203 -260 l97 -119 0 -165 c0 -121 -3 -168 -12 -175 -7 -6 -114 -33
-238 -62 -767 -175 -888 -203 -913 -213 -49 -19 -121 -10 693 -88 234 -22 432
-41 440 -43 13 -2 15 -22 12 -127 l-3 -125 -57 -85 c-32 -47 -105 -152 -163
-235 -59 -82 -114 -165 -124 -184 l-17 -34 48 35 c27 19 162 112 301 207 l252
172 83 -3 83 -3 126 -625 c124 -617 137 -676 145 -667 2 2 25 150 50 328 75
542 122 881 129 937 l7 52 57 0 57 0 309 -213 c171 -117 323 -219 338 -225 34
-15 50 -37 -155 225 -87 111 -158 204 -158 207 0 3 22 6 49 6 48 0 48 0 55 38
3 20 6 94 6 163 l0 126 43 7 c37 6 202 29 772 105 198 27 278 40 292 49 7 4
-67 23 -165 41 -97 18 -231 44 -297 57 -327 63 -544 104 -584 110 l-44 7 8
211 7 210 107 151 c104 145 155 225 146 225 -3 0 -59 -35 -125 -79 l-120 -79
0 39 0 39 -290 0 -290 0 -1 -67 c0 -50 -3 -63 -10 -48 -5 11 -49 220 -98 465
-119 592 -113 563 -124 543z m87 -458 c41 -203 90 -450 110 -547 26 -130 36
-202 36 -272 0 -53 -4 -96 -8 -96 -5 0 -63 113 -130 250 l-121 250 -36 0 c-23
0 -35 5 -35 13 0 11 71 560 96 742 4 27 9 45 10 40 2 -6 37 -176 78 -380z
m910 -427 c-8 -13 -91 -129 -154 -216 -18 -24 -34 -42 -36 -39 -2 2 -1 36 2
75 l7 71 91 60 c50 34 92 61 94 61 2 0 0 -6 -4 -12z m-1722 -84 l98 -64 0 -72
c0 -40 -4 -68 -8 -62 -4 5 -28 34 -53 64 -24 30 -76 93 -114 139 -76 93 -74
92 77 -5z m726 -6 c22 -46 93 -191 157 -323 64 -132 122 -251 128 -265 9 -20
13 48 15 313 l2 337 246 0 247 0 -7 -157 c-9 -215 -25 -680 -32 -953 -3 -124
-7 -235 -10 -247 l-4 -23 -264 0 c-202 0 -265 3 -269 13 -39 100 -252 616
-271 657 l-26 55 0 -375 0 -376 -242 4 c-134 2 -244 5 -246 7 -3 3 14 839 24
1202 l6 202 67 4 c36 2 150 4 253 5 l187 2 39 -82z m-638 -779 l0 -182 -72 6
c-40 4 -143 14 -228 22 -210 20 -324 31 -525 50 -93 9 -190 19 -215 24 -52 8
-103 -5 580 151 330 75 437 101 458 109 1 1 2 -81 2 -180z m1963 24 c251 -48
454 -90 450 -93 -5 -4 -219 -35 -478 -69 -258 -35 -480 -65 -492 -68 -23 -5
-23 -5 -23 130 0 74 3 149 6 167 7 30 9 31 43 25 20 -3 242 -45 494 -92z
m-1254 -263 c139 -343 129 -290 96 -525 -8 -55 -30 -217 -50 -360 -20 -143
-44 -318 -54 -390 -11 -72 -22 -155 -26 -185 -3 -30 -9 -60 -13 -67 -6 -10
-243 1138 -242 1175 0 11 16 12 75 7 l75 -7 0 338 c0 186 4 334 8 329 5 -6 64
-147 131 -315z m-621 -340 c114 0 118 8 -63 -115 -71 -49 -171 -117 -222 -152
-50 -35 -94 -63 -97 -63 -3 0 20 37 51 83 32 45 96 138 143 205 l85 122 3 -40
3 -40 97 0z m1324 -167 c80 -104 145 -189 143 -191 -2 -2 -105 67 -330 223
-38 27 -99 69 -135 93 -36 25 -69 49 -74 54 -6 4 48 8 120 8 l129 0 147 -187z"/>
</g>
</svg>
