<svg width="303" height="340" viewBox="0 0 303 340" fill="none" xmlns="http://www.w3.org/2000/svg">
<mask id="mask0_1871_56" style="mask-type:luminance" maskUnits="userSpaceOnUse" x="0" y="0" width="303" height="340">
<path d="M0 0H302.529V340H0V0Z" fill="white"/>
</mask>
<g mask="url(#mask0_1871_56)">
<path d="M214.733 -0.212402C167.735 -0.212402 129.521 33.3626 129.521 74.6053C129.521 97.2366 141.297 118.699 161.219 132.83C160.457 136.956 158.279 144.536 152.152 153.266L144.821 163.714L157.553 163.767H157.765C176.696 163.767 190.012 153.036 195.59 147.528C201.841 148.786 208.252 149.423 214.733 149.423C261.713 149.423 299.946 115.866 299.946 74.6053C299.946 33.3626 261.713 -0.212402 214.733 -0.212402ZM218.505 37.1168C233.433 37.1168 243.403 45.7407 243.403 57.8355C243.403 66.2116 239.259 72.073 231.857 76.5001C224.721 80.7147 222.702 83.5126 222.702 88.9136V92.048H210.058L210.005 88.3116C209.509 80.0949 212.679 75.1897 220.205 70.7626C226.952 66.672 229.254 63.7501 229.254 58.3314C229.254 52.647 224.667 48.5386 217.797 48.5386C210.766 48.5386 206.233 52.8064 205.79 59.4824H192.987C193.43 46.5199 202.32 37.1168 218.505 37.1168ZM74.0935 88.9491C50.4529 88.9491 31.2216 108.251 31.2216 131.98C31.2216 155.727 50.4529 175.029 74.0935 175.029C97.7164 175.029 116.948 155.727 116.948 131.98C116.948 108.251 97.7164 88.9491 74.0935 88.9491ZM216.982 100.707C222.542 100.707 226.031 104.143 226.031 109.455C226.013 114.715 222.542 118.15 216.982 118.15C211.546 118.15 207.933 114.715 207.933 109.455C207.933 104.143 211.546 100.707 216.982 100.707ZM42.856 196.545C20.7029 196.545 2.67578 214.643 2.67578 236.902V336.405C2.67578 338.389 4.26953 340 6.25286 340H31.2216V264.687C31.2216 262.703 32.8331 261.092 34.7987 261.092C36.782 261.092 38.3758 262.703 38.3758 264.687L38.3581 340H127.644C129.609 340 131.221 338.389 131.221 336.405L131.238 273.346L151.497 293.675C158.066 300.263 168.691 300.67 176.217 294.136L207.791 254.451C215.052 244.446 221.232 241.489 226.173 239.133C232.211 236.265 237.4 233.786 238.356 221.939C238.445 220.947 238.09 219.955 237.417 219.212C236.745 218.468 235.806 218.061 234.797 218.061H202.249C194.616 218.061 187.48 221.496 182.716 227.481L163.503 251.618L129.609 205.098C124.863 199.662 118.01 196.545 110.803 196.545H42.856Z" fill="white"/>
</g>
</svg>
