<svg width="228" height="110" viewBox="0 0 228 110" fill="none" xmlns="http://www.w3.org/2000/svg">
<path d="M100.332 78.5181C99.4487 79.5813 98.7375 80.4345 97.9987 81.2668C94.4163 85.3023 93.045 89.886 94.0488 95.0275C95.5417 102.673 89.925 109.303 81.4044 109.943C71.4532 110.691 59.3482 103.94 56 97.5133C58.4825 92.3078 59.4147 86.4024 63.0557 81.1099C63.9952 81.8095 64.8929 82.2749 65.4982 82.9603C71.3275 89.5627 81.4688 87.9355 87.3443 84.0298C88.788 83.07 90.3219 81.8243 91.0179 80.3828C93.2761 75.7061 95.4827 70.9675 97.1107 66.0831C98.9016 60.7098 96.8695 55.6451 93.9852 51.0118C91.9125 47.682 88.455 46.2037 84.2081 46.0598C79.4811 45.8996 74.9546 46.5455 70.3555 48.4104C69.8546 47.3533 69.1026 46.5129 69.1209 45.687C69.2792 38.5718 65.7456 32.5026 62.8505 26.2451C61.6293 23.6055 60.5094 20.9248 59.2308 18.3096C58.5794 16.9774 58.7258 15.9258 59.4783 14.6152C63.8578 6.98952 71.0465 2.91966 79.7021 0.52278C82.4929 -0.25007 85.2567 -0.254018 87.6011 1.11072C91.0824 3.13743 94.4183 5.44358 97.5018 7.9587C99.2226 9.36238 99.8768 11.483 100.113 13.7769C100.378 16.3474 101.08 18.9751 102.159 21.3597C104.686 26.946 106.264 32.6744 106.488 38.728C106.624 42.4265 107.05 46.1248 106.995 49.8189C106.875 57.9751 105.923 66.0383 102.713 73.7334C102.064 75.2878 101.236 76.7784 100.332 78.5181Z" fill="#399DDA"/>
<path d="M159.107 76.6237C156.837 79.6438 155.85 82.8112 155.598 86.1867C155.445 88.2521 154.487 89.8552 152.603 90.911C149.735 92.5179 146.901 94.2182 143.879 95.5412C138.469 97.9085 133.275 97.5069 128.87 93.5086C126.093 90.9888 123.39 88.4871 119 88.2208C120.711 82.7386 122.369 77.6472 123.886 72.5204C126.725 62.9266 128.044 53.1229 127.263 43.2216C126.874 38.2934 125.461 33.4089 124.209 28.5707C123.185 24.6085 123.442 23.8322 127.734 22.6426C134.332 20.8143 141.047 19.6746 147.973 20.0828C158.181 20.6846 165.928 24.7335 170.447 33.5225C172.091 36.7189 172.267 40.0242 171.724 43.2944C171.2 46.4457 168.407 48.3889 165.514 49.7141C163.19 50.7783 161.535 52.1973 160.161 54.1437C158.897 55.9338 157.434 57.6127 155.963 59.2686C152.859 62.7625 152.852 63.4835 155.035 67.5417C156.574 70.4018 157.779 73.414 159.107 76.6237Z" fill="#399DDA"/>
<path d="M45.5097 59.966C43.2243 71.249 39.9163 81.7525 30.7094 90C22.9727 87.9228 15.7679 84.7132 10.7658 78.3707C5.8777 72.1728 1.60565 65.5336 0.366305 57.7629C-0.818172 50.3355 0.754928 43.5182 6.77541 37.9339C13.5617 31.6391 20.8931 26.1058 29.5165 22.1809C33.5908 20.3265 34.3572 20.4865 37.2828 23.8823C42.4888 29.9252 45.7964 36.7328 45.9783 44.5806C46.0945 49.5985 45.7156 54.6266 45.5097 59.966ZM29.5982 46.7363C28.0669 45.8371 26.5772 45.06 24.6397 45.8966C22.2413 46.9323 20.7813 48.9349 20.8025 51.5488C20.823 54.0514 22.6915 56.7565 24.9205 57.5105C27.8821 58.5123 30.9832 57.1591 31.9555 54.3045C32.8833 51.5816 32.3165 49.1236 29.5982 46.7363Z" fill="#399DDA"/>
<path d="M204.166 48.0285C205.54 48.0274 206.583 47.9517 207.607 48.0516C210.86 48.369 213.839 49.0452 216.07 51.6725C219.802 56.0672 224.158 60.0318 226.311 65.431C229.118 72.4673 228.347 79.2572 224.586 85.7743C222.494 89.3993 219.188 91.9221 214.866 92.9474C207.334 94.7344 199.932 94.508 193.354 90.2126C191.327 88.8893 189.843 86.8105 188.268 84.9632C186.999 83.4756 185.841 81.8784 184.869 80.2133C184.037 78.7902 182.922 77.1723 183.004 75.6916C183.288 70.5997 183.842 65.4996 184.739 60.4704C185.019 58.9027 186.453 57.2791 187.819 56.1579C190.319 54.1057 193.169 52.4189 195.857 50.5598C198.223 48.9232 201.038 48.5201 204.166 48.0285Z" fill="#399DDA"/>
<path d="M41.0439 86.9963C47.6798 77.4223 50.464 66.954 52.2454 56.1496C53.3071 49.7105 52.498 43.4545 50.8014 37.2147C49.3835 31.9995 46.8044 27.292 43.7061 22.7883C42.9631 21.7084 42.3031 20.58 41.3754 19.1097C45.3762 17.7536 49.0123 17.8654 52.5922 18.2703C53.5113 18.3743 54.5383 19.4867 55.0768 20.3648C64.4157 35.5922 68.2524 51.5249 61.7954 68.6026C59.0432 75.8822 55.9228 83.043 53.087 90.2967C52.3513 92.1781 51.167 92.9138 49.0461 92.9881C45.5431 93.1108 42.3361 92.2753 39.1919 90.9752C38.421 89.1848 40.1638 88.3979 41.0439 86.9963Z" fill="#399DDA"/>
<path d="M108.632 22.5545C109.716 20.7959 111.119 20.8199 112.832 21.2289C114.96 21.7369 117.039 22.2458 117.769 24.3592C119.222 28.5694 120.999 32.7424 121.855 37.0575C125.089 53.363 121.102 68.8371 114.516 83.9358C114.034 85.0401 113.372 86.1072 112.614 87.0779C112.115 87.7179 111.352 88.5199 110.606 88.6176C107.498 89.0245 104.312 89.5193 101 87.6843C101.407 86.5894 101.493 85.2666 102.258 84.4783C107.288 79.2933 109.28 72.9721 110.363 66.4475C111.377 60.3328 112.308 54.1147 112.177 47.9612C112.016 40.3606 110.988 32.7478 108.916 25.3112C108.694 24.5132 108.694 23.6649 108.632 22.5545Z" fill="#399DDA"/>
<path d="M84.5757 78.7476C82.1572 79.6139 80.0184 80.7397 77.7758 80.9384C73.3663 81.3291 71.0844 79.8672 69.0592 76.3891C66.9317 72.7355 66.2309 69.3987 68.0209 65.4903C69.0353 63.2748 69.0091 60.7002 69.7624 58.3665C70.1645 57.1208 70.9524 55.7527 72.0402 54.9414C76.1842 51.8515 81.2094 51.5141 86.1904 52.4785C87.7766 52.7857 89.2939 54.5151 90.2741 55.909C92.2403 58.7047 92.2445 62.0104 91.6654 65.0856C90.7286 70.0579 88.663 74.7169 84.5757 78.7476Z" fill="#399DDA"/>
<path d="M176.571 60.0529C178.413 60.7576 177.94 62.0906 177.958 63.2098C177.975 64.2742 177.905 65.3512 177.747 66.4049C177.328 69.2118 176.84 72.0092 176.349 75C173.042 75 169.788 75 166.249 75C164.567 71.8755 162.761 68.662 161.135 65.3642C160.84 64.7658 161.068 63.7034 161.436 63.062C162.202 61.7246 163.212 60.5165 164.145 59.2719C165.044 58.0723 166.245 57.7971 167.706 58.132C170.549 58.7837 173.409 59.3715 176.571 60.0529Z" fill="#399DDA"/>
</svg>
