<svg width="303" height="221" viewBox="0 0 303 221" fill="none" xmlns="http://www.w3.org/2000/svg">
<mask id="mask0_1871_54" style="mask-type:luminance" maskUnits="userSpaceOnUse" x="96" y="0" width="110" height="109">
<path d="M96.8789 0H205.865V108.103H96.8789V0Z" fill="white"/>
</mask>
<g mask="url(#mask0_1871_54)">
<path d="M150.661 106.258C179.784 106.258 203.467 82.4805 203.467 53.2788C203.467 24.0771 179.784 0.283691 150.661 0.283691C121.554 0.283691 97.8711 24.0771 97.8711 53.2788C97.8711 82.4805 121.554 106.258 150.661 106.258Z" fill="white"/>
</g>
<path d="M242.192 128.632C263.856 128.632 281.5 110.94 281.5 89.1968C281.5 67.4532 263.856 49.7461 242.192 49.7461C220.527 49.7461 202.883 67.4532 202.883 89.1968C202.883 110.94 220.527 128.632 242.192 128.632Z" fill="white"/>
<path d="M59.1448 128.632C80.8096 128.632 98.4536 110.94 98.4536 89.1968C98.4536 67.4532 80.8096 49.7461 59.1448 49.7461C37.4643 49.7461 19.8203 67.4532 19.8203 89.1968C19.8203 110.94 37.4643 128.632 59.1448 128.632Z" fill="white"/>
<mask id="mask1_1871_54" style="mask-type:luminance" maskUnits="userSpaceOnUse" x="68" y="112" width="167" height="109">
<path d="M68.625 112.139H234.122V220.999H68.625V112.139Z" fill="white"/>
</mask>
<g mask="url(#mask1_1871_54)">
<path d="M210.918 140.489C210.729 140.268 210.54 140.079 210.351 139.858C208.443 137.761 206.409 135.743 204.28 133.851C204.091 133.677 203.902 133.504 203.697 133.33C199.045 129.247 193.921 125.683 188.418 122.75C188.244 122.656 188.039 122.577 187.882 122.498C185.453 121.221 182.978 120.101 180.424 119.076C179.667 118.777 178.894 118.509 178.106 118.241C176.072 117.5 174.022 116.822 171.925 116.27C170.979 116.002 170.017 115.734 169.071 115.513C166.974 115.024 164.845 114.646 162.685 114.315C161.77 114.189 160.887 114.015 159.957 113.905C156.914 113.558 153.808 113.321 150.67 113.321C147.516 113.321 144.442 113.558 141.383 113.905C140.468 114.015 139.57 114.189 138.655 114.315C136.511 114.646 134.366 115.024 132.285 115.513C131.307 115.734 130.377 116.002 129.415 116.27C127.318 116.822 125.253 117.5 123.234 118.241C122.462 118.509 121.673 118.777 120.901 119.076C118.362 120.101 115.871 121.237 113.458 122.498C113.269 122.577 113.096 122.656 112.922 122.75C107.419 125.683 102.295 129.247 97.6276 133.33C97.4384 133.504 97.2492 133.677 97.0758 133.851C94.9471 135.743 92.9131 137.761 90.9895 139.858C90.8003 140.079 90.6268 140.268 90.4218 140.489C88.4036 142.744 86.5114 145.109 84.7455 147.569C75.3164 160.861 69.7031 177.054 69.7031 194.572C69.7031 208.195 80.7562 219.296 94.348 219.296H206.992C220.584 219.296 231.637 208.195 231.637 194.572C231.637 177.054 226.024 160.861 216.595 147.569C214.844 145.109 212.921 142.744 210.918 140.489Z" fill="white"/>
</g>
<mask id="mask2_1871_54" style="mask-type:luminance" maskUnits="userSpaceOnUse" x="0" y="140" width="65" height="81">
<path d="M0 140.395H64.5843V220.999H0V140.395Z" fill="white"/>
</mask>
<g mask="url(#mask2_1871_54)">
<path d="M59.147 141.578C26.1453 141.578 -0.707031 168.509 -0.707031 201.637C-0.707031 211.365 7.19256 219.296 16.9054 219.296H55.8988C51.3105 212.138 48.5827 203.702 48.5827 194.573C48.5827 175.273 54.0383 157.251 63.3096 141.846C61.9379 141.735 60.5503 141.578 59.147 141.578Z" fill="white"/>
</g>
<mask id="mask3_1871_54" style="mask-type:luminance" maskUnits="userSpaceOnUse" x="234" y="140" width="69" height="81">
<path d="M234.117 140.396H302.738V221H234.117V140.396Z" fill="white"/>
</mask>
<g mask="url(#mask3_1871_54)">
<path d="M242.19 141.578C240.787 141.578 239.399 141.735 238.027 141.846C247.299 157.251 252.754 175.273 252.754 194.573C252.754 203.702 250.027 212.138 245.422 219.296H284.432C294.129 219.296 302.028 211.365 302.028 201.637C302.028 168.509 275.176 141.578 242.19 141.578Z" fill="white"/>
</g>
</svg>
