<svg width="89" height="119" viewBox="0 0 89 119" fill="none" xmlns="http://www.w3.org/2000/svg">
<mask id="mask0_1828_7" style="mask-type:luminance" maskUnits="userSpaceOnUse" x="0" y="0" width="89" height="119">
<path d="M0 0H89V119H0V0Z" fill="white"/>
</mask>
<g mask="url(#mask0_1828_7)">
<path d="M53.3166 74.5359L57.1495 43.695C57.8344 43.8252 58.4847 44.1227 59.0106 44.5937L84.0487 66.9C84.6299 67.4206 84.9758 68.0652 85.0934 68.747L53.3166 74.5359ZM35.5775 114.754L42.496 84.6075C43.2501 81.3102 46.1282 78.7442 49.8297 78.0687L83.682 71.9017L35.5775 114.754ZM32.0352 116.019C31.2465 115.919 30.52 115.597 29.9527 115.089L4.91455 92.7825C4.36106 92.2929 4.01514 91.6793 3.88369 91.0409L38.5455 87.6197L32.0352 116.019ZM48.4736 49.2979C48.4252 50.0293 48.3422 50.7606 48.2246 51.4734C47.7956 54.1571 46.4327 56.4875 44.4886 58.3035C44.4886 58.3035 43.4093 59.4377 44.4816 60.386C45.5471 61.3343 46.0452 61.0058 46.0452 61.0058C46.0937 60.9686 46.149 60.9252 46.2044 60.8818C49.6498 57.9254 51.4694 53.8596 51.5455 49.6264C51.5593 48.5976 51.5593 47.5749 51.5593 46.5461L53.7525 44.5937C53.7732 44.5689 53.8078 44.5503 53.8355 44.5193L50.0372 75.1309L49.1862 75.2858C44.2395 76.1907 40.3789 79.6243 39.3758 84.0373L39.2166 84.7004L4.9353 88.0721L48.4736 49.2979ZM46.0798 20.5272C46.0798 19.1327 47.0138 17.9365 48.3629 17.3911C48.3629 17.8745 48.3629 18.3579 48.3629 18.8352C48.3629 20.6636 51.5455 20.6636 51.5455 18.8352C51.5455 18.3579 51.5455 17.8745 51.5455 17.3911C52.8877 17.9365 53.8217 19.1327 53.8217 20.5272C53.8217 22.43 52.0851 23.9794 49.9542 23.9794C47.8164 23.9794 46.0798 22.43 46.0798 20.5272ZM86.3042 64.8857L61.266 42.5856C58.5885 40.1994 54.2437 40.187 51.5455 42.5484V26.6507C54.6726 26 57.0111 23.5084 57.0111 20.5272C57.0111 17.5522 54.6726 15.0544 51.5455 14.4037C51.5455 10.2077 51.5455 5.99929 51.5455 1.8033C51.5455 -0.0250838 48.3629 -0.0312817 48.3629 1.8033C48.3629 5.99929 48.3629 10.2077 48.3629 14.4037C45.2288 15.0544 42.8904 17.5522 42.8904 20.5272C42.8904 23.5084 45.2288 26 48.3629 26.6507V38.5693C48.3629 40.7324 48.4944 42.9761 48.5428 45.2135L29.842 61.8797C28.9772 61.6442 28.1193 61.3467 27.2891 60.95C23.0411 58.9171 20.1146 55.062 19.7202 50.7668C19.4988 48.4364 19.6718 46.0316 19.6718 43.6888C19.6718 43.1868 19.7756 42.4802 19.824 41.7923C21.6989 43.6702 23.5669 45.5482 25.4488 47.4262C26.8117 48.7959 29.0533 46.7816 27.6973 45.418C25.7255 43.4471 23.7606 41.47 21.7889 39.4928C21.0693 38.7739 20.3706 37.8318 19.229 37.6521C17.4648 37.3793 16.5723 38.7119 16.4823 40.0506C16.2817 42.9575 16.4823 45.9263 16.4823 48.8455C16.4823 52.5209 17.4578 56.0041 19.9693 58.9853C21.9411 61.3343 24.5493 63.0263 27.4067 64.049L2.65911 86.0888C-0.0322023 88.4874 -0.0322023 92.3983 2.65911 94.7968L27.6904 117.097C28.998 118.256 30.7345 118.901 32.5748 118.901C34.4221 118.901 36.1586 118.256 37.4662 117.097L86.2972 73.5938C88.9886 71.189 88.9955 67.2843 86.3042 64.8857Z" fill="#68B4E7"/>
</g>
</svg>
