<svg width="1919" height="1158" viewBox="0 0 1919 1158" fill="none" xmlns="http://www.w3.org/2000/svg">
<g filter="url(#filter0_d_448_4955)">
<path d="M-18 0H1915V1150C1208.21 1019.28 699.842 1079.94 -18 1150V0Z" fill="url(#paint0_linear_448_4955)"/>
</g>
<path d="M1669.45 816.542C1660.05 816.542 1660.03 802 1669.45 802C1678.85 802 1678.86 816.542 1669.45 816.542Z" fill="#F7A876"/>
<path d="M769.236 728.542C759.833 728.542 759.817 714 769.236 714C778.634 714 778.65 728.542 769.236 728.542Z" fill="#F7A876"/>
<path d="M1748.82 757.542C1739.42 757.542 1739.4 743 1748.82 743C1758.22 743 1758.23 757.542 1748.82 757.542Z" fill="#F7A876"/>
<path d="M90.0584 962.542C80.655 962.542 80.6393 948 90.0584 948C99.4566 948 99.4723 962.542 90.0584 962.542Z" fill="#F7A876"/>
<path d="M635.611 755.542C626.208 755.542 626.192 741 635.611 741C645.009 741 645.025 755.542 635.611 755.542Z" fill="#F7A876"/>
<path d="M883.773 728.542C874.37 728.542 874.354 714 883.773 714C893.171 714 893.187 728.542 883.773 728.542Z" fill="#F7A876"/>
<path d="M332.191 846.542C322.788 846.542 322.772 832 332.191 832C341.589 832 341.605 846.542 332.191 846.542Z" fill="#F7A876"/>
<path d="M1841.25 947.542C1831.85 947.542 1831.83 933 1841.25 933C1850.65 933 1850.67 947.542 1841.25 947.542Z" fill="#F7A876"/>
<path d="M1559.94 706.542C1550.53 706.542 1550.52 692 1559.94 692C1569.34 692 1569.35 706.542 1559.94 706.542Z" fill="#F7A876"/>
<path d="M1262.54 665.542C1253.14 665.542 1253.13 651 1262.54 651C1271.94 651 1271.96 665.542 1262.54 665.542Z" fill="#F7A876"/>
<path d="M1050.55 713.542C1041.15 713.542 1041.13 699 1050.55 699C1059.95 699 1059.97 713.542 1050.55 713.542Z" fill="#F7A876"/>
<path d="M185.506 889.542C176.102 889.542 176.087 875 185.506 875C194.904 875 194.92 889.542 185.506 889.542Z" fill="#F7A876"/>
<path d="M258.847 781.542C249.444 781.542 249.428 767 258.847 767C268.246 767 268.261 781.542 258.847 781.542Z" fill="#F7A876"/>
<path d="M501.986 748.542C492.583 748.542 492.567 734 501.986 734C511.384 734 511.4 748.542 501.986 748.542Z" fill="#F7A876"/>
<path d="M727.039 658.542C717.636 658.542 717.62 644 727.039 644C736.437 644 736.453 658.542 727.039 658.542Z" fill="#F7A876"/>
<path d="M1398.18 755.542C1388.78 755.542 1388.76 741 1398.18 741C1407.58 741 1407.59 755.542 1398.18 755.542Z" fill="#F7A876"/>
<path d="M1756.86 881.542C1747.45 881.542 1747.44 867 1756.86 867C1766.26 867 1766.27 881.542 1756.86 881.542Z" fill="#F7A876"/>
<path d="M173.449 672.542C164.046 672.542 164.03 658 173.449 658C182.847 658 182.863 672.542 173.449 672.542Z" fill="#F7A876"/>
<defs>
<filter id="filter0_d_448_4955" x="-22" y="0" width="1941" height="1158" filterUnits="userSpaceOnUse" color-interpolation-filters="sRGB">
<feFlood flood-opacity="0" result="BackgroundImageFix"/>
<feColorMatrix in="SourceAlpha" type="matrix" values="0 0 0 0 0 0 0 0 0 0 0 0 0 0 0 0 0 0 127 0" result="hardAlpha"/>
<feOffset dy="4"/>
<feGaussianBlur stdDeviation="2"/>
<feComposite in2="hardAlpha" operator="out"/>
<feColorMatrix type="matrix" values="0 0 0 0 0 0 0 0 0 0 0 0 0 0 0 0 0 0 0.25 0"/>
<feBlend mode="normal" in2="BackgroundImageFix" result="effect1_dropShadow_448_4955"/>
<feBlend mode="normal" in="SourceGraphic" in2="effect1_dropShadow_448_4955" result="shape"/>
</filter>
<linearGradient id="paint0_linear_448_4955" x1="948.5" y1="0" x2="948.5" y2="1150" gradientUnits="userSpaceOnUse">
<stop offset="1" stop-color="#FBDEAB"/>
</linearGradient>
</defs>
</svg>
