<svg width="309" height="341" viewBox="0 0 309 341" fill="none" xmlns="http://www.w3.org/2000/svg">
<path d="M246.791 152.8C244.741 146.126 241.387 139.907 236.922 134.502C232.458 129.097 226.97 124.611 220.775 121.303C209.052 115.056 195.438 113.388 182.629 116.629C178.18 104.187 169.205 93.8145 157.482 87.5656C151.274 84.2647 144.483 82.2098 137.498 81.5192C130.513 80.8285 123.473 81.5158 116.783 83.5413C88.2893 92.1042 72.8768 121.038 81.7022 149.393L112.457 248.276L211.693 218.682C240.153 210.202 255.581 181.276 246.791 152.8Z" fill="white"/>
<path d="M97.2745 295.993C96.2491 295.914 95.2964 295.466 94.5812 294.727C85.0234 285.034 18.4895 212.467 63.754 116.193L104.662 29.1854C105.185 28.0651 106.051 27.1439 107.121 26.5687C108.19 25.9935 109.402 25.7974 110.563 26.0118L212.337 44.7639C213.19 44.9214 213.984 45.2947 214.649 45.8509L294.015 112.264C294.921 113.021 295.543 114.08 295.782 115.27C296.021 116.461 295.864 117.715 295.336 118.833L254.428 205.841C208.71 303.079 110.795 297.288 97.2686 296.006L97.2745 295.993Z" stroke="white" stroke-width="12.2868" stroke-miterlimit="10"/>
</svg>
