<svg width="41" height="45" viewBox="0 0 41 45" fill="none" xmlns="http://www.w3.org/2000/svg">
<path opacity="0.5" fill-rule="evenodd" clip-rule="evenodd" d="M0 22.22C0 9.94824 9.16768 0 20.4766 0C31.7855 0 40.9532 9.94824 40.9532 22.22C40.9532 34.4918 31.7855 44.44 20.4766 44.44C9.16768 44.44 0 34.4918 0 22.22Z" fill="#1F2937"/>
<path fill-rule="evenodd" clip-rule="evenodd" d="M19.8633 18.0617L19.9063 18.8306L19.1901 18.7364C16.5833 18.3755 14.306 17.1516 12.3724 15.0961L11.4271 14.0762L11.1836 14.8293C10.668 16.5083 10.9974 18.2814 12.0716 19.4739C12.6445 20.1329 12.5156 20.2271 11.5273 19.8348C11.1836 19.7093 10.8828 19.6151 10.8542 19.6622C10.7539 19.772 11.0977 21.1999 11.3698 21.7648C11.7422 22.5493 12.5013 23.3182 13.332 23.7733L14.0339 24.1341L13.2031 24.1498C12.401 24.1498 12.3724 24.1655 12.4583 24.495C12.7448 25.515 13.8763 26.5976 15.1367 27.0684L16.0248 27.3979L15.2513 27.9C14.1055 28.6218 12.7591 29.0298 11.4128 29.0611C10.7682 29.0768 10.2383 29.1396 10.2383 29.1867C10.2383 29.3436 11.9857 30.2223 13.0026 30.5675C16.0534 31.5874 19.6771 31.1481 22.3985 29.4063C24.3321 28.1667 26.2657 25.7033 27.168 23.3182C27.655 22.0472 28.142 19.725 28.142 18.6109C28.142 17.8891 28.1849 17.795 28.987 16.9319C29.4597 16.4298 29.9037 15.8806 29.9896 15.7237C30.1328 15.4256 30.1185 15.4256 29.3881 15.6924C28.1706 16.1631 27.9987 16.1003 28.6003 15.3942C29.0443 14.8921 29.5743 13.982 29.5743 13.7153C29.5743 13.6682 29.3594 13.7467 29.1159 13.8879C28.8581 14.0448 28.2852 14.2802 27.8555 14.4214L27.0821 14.6881L26.3802 14.1703C25.9935 13.8879 25.4492 13.5741 25.1628 13.4799C24.4323 13.2602 23.3151 13.2916 22.6563 13.5427C20.8659 14.2488 19.7344 16.0689 19.8633 18.0617Z" fill="white"/>
</svg>
