<svg width="41" height="45" viewBox="0 0 41 45" fill="none" xmlns="http://www.w3.org/2000/svg">
<path opacity="0.5" fill-rule="evenodd" clip-rule="evenodd" d="M0 22.22C0 9.94824 9.16768 0 20.4766 0C31.7855 0 40.9532 9.94824 40.9532 22.22C40.9532 34.4918 31.7855 44.44 20.4766 44.44C9.16768 44.44 0 34.4918 0 22.22Z" fill="#1F2937"/>
<path fill-rule="evenodd" clip-rule="evenodd" d="M29.0108 14.5818C29.9506 14.8617 30.6907 15.6862 30.9419 16.7334C31.3983 18.6312 31.3983 22.5909 31.3983 22.5909C31.3983 22.5909 31.3983 26.5505 30.9419 28.4485C30.6907 29.4956 29.9506 30.3201 29.0108 30.6001C27.3076 31.1086 20.4775 31.1086 20.4775 31.1086C20.4775 31.1086 13.6474 31.1086 11.9441 30.6001C11.0043 30.3201 10.2641 29.4956 10.013 28.4485C9.55664 26.5505 9.55664 22.5909 9.55664 22.5909C9.55664 22.5909 9.55664 18.6312 10.013 16.7334C10.2641 15.6862 11.0043 14.8617 11.9441 14.5818C13.6474 14.0732 20.4775 14.0732 20.4775 14.0732C20.4775 14.0732 27.3076 14.0732 29.0108 14.5818ZM18.4298 19.2578V26.6645L23.8903 22.9613L18.4298 19.2578Z" fill="white"/>
</svg>
